<?xml version="1.0" encoding="us-ascii" standalone="no"?><svg xmlns="http://www.w3.org/2000/svg" xmlns:xlink="http://www.w3.org/1999/xlink" contentStyleType="text/css" height="1603px" preserveAspectRatio="none" style="width:1391px;height:1603px;background:#FFFFFF;" version="1.1" viewBox="0 0 1391 1603" width="1391px" zoomAndPan="magnify"><defs/><g><text fill="#000000" font-family="Microsoft YaHei" font-size="14" font-weight="bold" lengthAdjust="spacing" textLength="528" x="427.5" y="29.8135">&#20219;&#21153;&#25191;&#34892;&#26102;&#24207;&#65288;RunTask &#8594; Python Engine &#8594; &#29366;&#24577;&#36718;&#35810;/&#26085;&#24535; &#8594; &#23436;&#25104;/&#21462;&#28040;/&#36229;&#26102;&#65289;</text><rect fill="#FFFFFF" height="186.9463" style="stroke:#181818;stroke-width:1.0;" width="10" x="1080" y="565.6406"/><rect fill="none" height="126.6309" style="stroke:#000000;stroke-width:1.5;" width="614.5" x="101.5" y="892.2178"/><rect fill="none" height="237.2617" style="stroke:#000000;stroke-width:1.5;" width="1150" x="10" y="1078.0063"/><rect fill="none" height="112.6309" style="stroke:#000000;stroke-width:1.5;" width="727" x="433" y="1374.4258"/><line style="stroke:#181818;stroke-width:0.5;stroke-dasharray:5.0,5.0;" x1="37" x2="37" y1="127.4326" y2="1504.0566"/><line style="stroke:#181818;stroke-width:0.5;stroke-dasharray:5.0,5.0;" x1="145.5" x2="145.5" y1="127.4326" y2="1504.0566"/><line style="stroke:#181818;stroke-width:0.5;stroke-dasharray:5.0,5.0;" x1="317" x2="317" y1="127.4326" y2="1504.0566"/><line style="stroke:#181818;stroke-width:0.5;stroke-dasharray:5.0,5.0;" x1="490" x2="490" y1="127.4326" y2="1504.0566"/><line style="stroke:#181818;stroke-width:0.5;stroke-dasharray:5.0,5.0;" x1="655" x2="655" y1="127.4326" y2="1504.0566"/><line style="stroke:#181818;stroke-width:0.5;stroke-dasharray:5.0,5.0;" x1="762" x2="762" y1="127.4326" y2="1504.0566"/><line style="stroke:#181818;stroke-width:0.5;stroke-dasharray:5.0,5.0;" x1="878" x2="878" y1="127.4326" y2="1504.0566"/><line style="stroke:#181818;stroke-width:0.5;stroke-dasharray:5.0,5.0;" x1="1085" x2="1085" y1="127.4326" y2="1504.0566"/><line style="stroke:#181818;stroke-width:0.5;stroke-dasharray:5.0,5.0;" x1="1336" x2="1336" y1="127.4326" y2="1504.0566"/><text fill="#000000" font-family="Microsoft YaHei" font-size="14" lengthAdjust="spacing" textLength="29" x="20" y="123.7686">User</text><ellipse cx="37.5" cy="57.4551" fill="#E2E2F0" rx="8" ry="8" style="stroke:#181818;stroke-width:0.5;"/><path d="M37.5,65.4551 L37.5,92.4551 M24.5,73.4551 L50.5,73.4551 M37.5,92.4551 L24.5,107.4551 M37.5,92.4551 L50.5,107.4551 " fill="none" style="stroke:#181818;stroke-width:0.5;"/><text fill="#000000" font-family="Microsoft YaHei" font-size="14" lengthAdjust="spacing" textLength="29" x="20" y="1517.8701">User</text><ellipse cx="37.5" cy="1530.0342" fill="#E2E2F0" rx="8" ry="8" style="stroke:#181818;stroke-width:0.5;"/><path d="M37.5,1538.0342 L37.5,1565.0342 M24.5,1546.0342 L50.5,1546.0342 M37.5,1565.0342 L24.5,1580.0342 M37.5,1565.0342 L50.5,1580.0342 " fill="none" style="stroke:#181818;stroke-width:0.5;"/><rect fill="#E2E2F0" height="32.4775" rx="2.5" ry="2.5" style="stroke:#181818;stroke-width:0.5;" width="68" x="111.5" y="93.9551"/><text fill="#000000" font-family="Microsoft YaHei" font-size="14" lengthAdjust="spacing" textLength="54" x="118.5" y="115.7686">Wails UI</text><rect fill="#E2E2F0" height="32.4775" rx="2.5" ry="2.5" style="stroke:#181818;stroke-width:0.5;" width="68" x="111.5" y="1503.0566"/><text fill="#000000" font-family="Microsoft YaHei" font-size="14" lengthAdjust="spacing" textLength="54" x="118.5" y="1524.8701">Wails UI</text><rect fill="#E2E2F0" height="50.9551" rx="2.5" ry="2.5" style="stroke:#181818;stroke-width:0.5;" width="123" x="256" y="75.4775"/><text fill="#000000" font-family="Microsoft YaHei" font-size="14" lengthAdjust="spacing" textLength="81" x="277" y="97.291">Go Backend</text><text fill="#000000" font-family="Microsoft YaHei" font-size="14" lengthAdjust="spacing" textLength="109" x="263" y="115.7686">(Wails bindings)</text><rect fill="#E2E2F0" height="50.9551" rx="2.5" ry="2.5" style="stroke:#181818;stroke-width:0.5;" width="123" x="256" y="1503.0566"/><text fill="#000000" font-family="Microsoft YaHei" font-size="14" lengthAdjust="spacing" textLength="81" x="277" y="1524.8701">Go Backend</text><text fill="#000000" font-family="Microsoft YaHei" font-size="14" lengthAdjust="spacing" textLength="109" x="263" y="1543.3477">(Wails bindings)</text><rect fill="#E2E2F0" height="32.4775" rx="2.5" ry="2.5" style="stroke:#181818;stroke-width:0.5;" width="95" x="443" y="93.9551"/><text fill="#000000" font-family="Microsoft YaHei" font-size="14" lengthAdjust="spacing" textLength="81" x="450" y="115.7686">Task Service</text><rect fill="#E2E2F0" height="32.4775" rx="2.5" ry="2.5" style="stroke:#181818;stroke-width:0.5;" width="95" x="443" y="1503.0566"/><text fill="#000000" font-family="Microsoft YaHei" font-size="14" lengthAdjust="spacing" textLength="81" x="450" y="1524.8701">Task Service</text><rect fill="#E2E2F0" height="32.4775" rx="2.5" ry="2.5" style="stroke:#181818;stroke-width:0.5;" width="101" x="605" y="93.9551"/><text fill="#000000" font-family="Microsoft YaHei" font-size="14" lengthAdjust="spacing" textLength="87" x="612" y="115.7686">Task Registry</text><rect fill="#E2E2F0" height="32.4775" rx="2.5" ry="2.5" style="stroke:#181818;stroke-width:0.5;" width="101" x="605" y="1503.0566"/><text fill="#000000" font-family="Microsoft YaHei" font-size="14" lengthAdjust="spacing" textLength="87" x="612" y="1524.8701">Task Registry</text><rect fill="#E2E2F0" height="32.4775" rx="2.5" ry="2.5" style="stroke:#181818;stroke-width:0.5;" width="93" x="716" y="93.9551"/><text fill="#000000" font-family="Microsoft YaHei" font-size="14" lengthAdjust="spacing" textLength="79" x="723" y="115.7686">Task Queue</text><rect fill="#E2E2F0" height="32.4775" rx="2.5" ry="2.5" style="stroke:#181818;stroke-width:0.5;" width="93" x="716" y="1503.0566"/><text fill="#000000" font-family="Microsoft YaHei" font-size="14" lengthAdjust="spacing" textLength="79" x="723" y="1524.8701">Task Queue</text><rect fill="#E2E2F0" height="32.4775" rx="2.5" ry="2.5" style="stroke:#181818;stroke-width:0.5;" width="118" x="819" y="93.9551"/><text fill="#000000" font-family="Microsoft YaHei" font-size="14" lengthAdjust="spacing" textLength="104" x="826" y="115.7686">Worker/Runner</text><rect fill="#E2E2F0" height="32.4775" rx="2.5" ry="2.5" style="stroke:#181818;stroke-width:0.5;" width="118" x="819" y="1503.0566"/><text fill="#000000" font-family="Microsoft YaHei" font-size="14" lengthAdjust="spacing" textLength="104" x="826" y="1524.8701">Worker/Runner</text><rect fill="#E2E2F0" height="50.9551" rx="2.5" ry="2.5" style="stroke:#181818;stroke-width:0.5;" width="130" x="1020" y="75.4775"/><text fill="#000000" font-family="Microsoft YaHei" font-size="14" lengthAdjust="spacing" textLength="99" x="1035.5" y="97.291">Python Engine</text><text fill="#000000" font-family="Microsoft YaHei" font-size="14" lengthAdjust="spacing" textLength="116" x="1027" y="115.7686">(engine_main.py)</text><rect fill="#E2E2F0" height="50.9551" rx="2.5" ry="2.5" style="stroke:#181818;stroke-width:0.5;" width="130" x="1020" y="1503.0566"/><text fill="#000000" font-family="Microsoft YaHei" font-size="14" lengthAdjust="spacing" textLength="99" x="1035.5" y="1524.8701">Python Engine</text><text fill="#000000" font-family="Microsoft YaHei" font-size="14" lengthAdjust="spacing" textLength="116" x="1027" y="1543.3477">(engine_main.py)</text><text fill="#000000" font-family="Microsoft YaHei" font-size="14" lengthAdjust="spacing" textLength="68" x="1299" y="105.291">Filesystem</text><text fill="#000000" font-family="Microsoft YaHei" font-size="14" lengthAdjust="spacing" textLength="80" x="1293" y="123.7686">(output_dir)</text><path d="M1318,54.4775 C1318,44.4775 1336,44.4775 1336,44.4775 C1336,44.4775 1354,44.4775 1354,54.4775 L1354,80.4775 C1354,90.4775 1336,90.4775 1336,90.4775 C1336,90.4775 1318,90.4775 1318,80.4775 L1318,54.4775 " fill="#E2E2F0" style="stroke:#181818;stroke-width:1.5;"/><path d="M1318,54.4775 C1318,64.4775 1336,64.4775 1336,64.4775 C1336,64.4775 1354,64.4775 1354,54.4775 " fill="none" style="stroke:#181818;stroke-width:1.5;"/><text fill="#000000" font-family="Microsoft YaHei" font-size="14" lengthAdjust="spacing" textLength="68" x="1299" y="1517.8701">Filesystem</text><text fill="#000000" font-family="Microsoft YaHei" font-size="14" lengthAdjust="spacing" textLength="80" x="1293" y="1536.3477">(output_dir)</text><path d="M1318,1550.0117 C1318,1540.0117 1336,1540.0117 1336,1540.0117 C1336,1540.0117 1354,1540.0117 1354,1550.0117 L1354,1576.0117 C1354,1586.0117 1336,1586.0117 1336,1586.0117 C1336,1586.0117 1318,1586.0117 1318,1576.0117 L1318,1550.0117 " fill="#E2E2F0" style="stroke:#181818;stroke-width:1.5;"/><path d="M1318,1550.0117 C1318,1560.0117 1336,1560.0117 1336,1560.0117 C1336,1560.0117 1354,1560.0117 1354,1550.0117 " fill="none" style="stroke:#181818;stroke-width:1.5;"/><rect fill="#FFFFFF" height="186.9463" style="stroke:#181818;stroke-width:1.0;" width="10" x="1080" y="565.6406"/><rect fill="#EEEEEE" height="3" style="stroke:#EEEEEE;stroke-width:1.0;" width="1384" x="0" y="159.0115"/><line style="stroke:#000000;stroke-width:1.0;" x1="0" x2="1384" y1="159.0115" y2="159.0115"/><line style="stroke:#000000;stroke-width:1.0;" x1="0" x2="1384" y1="162.0115" y2="162.0115"/><rect fill="#EEEEEE" height="25.1577" style="stroke:#000000;stroke-width:2.0;" width="70" x="657" y="147.4326"/><text fill="#000000" font-family="Microsoft YaHei" font-size="13" font-weight="bold" lengthAdjust="spacing" textLength="52" x="663" y="165.188">&#25552;&#20132;&#20219;&#21153;</text><polygon fill="#444444" points="133.5,218.9058,143.5,222.9058,133.5,226.9058,137.5,222.9058" style="stroke:#444444;stroke-width:1.0;"/><line style="stroke:#444444;stroke-width:1.0;" x1="37.5" x2="139.5" y1="222.9058" y2="222.9058"/><text fill="#000000" font-family="Microsoft YaHei" font-size="13" lengthAdjust="spacing" textLength="84" x="44.5" y="200.3457">&#36873;&#25321;&#25991;&#20214;/&#21442;&#25968;</text><text fill="#000000" font-family="Microsoft YaHei" font-size="13" lengthAdjust="spacing" textLength="52" x="44.5" y="217.5034">&#28857;&#20987;&#24320;&#22987;</text><polygon fill="#444444" points="305.5,250.0635,315.5,254.0635,305.5,258.0635,309.5,254.0635" style="stroke:#444444;stroke-width:1.0;"/><line style="stroke:#444444;stroke-width:1.0;" x1="145.5" x2="311.5" y1="254.0635" y2="254.0635"/><text fill="#000000" font-family="Microsoft YaHei" font-size="13" lengthAdjust="spacing" textLength="105" x="152.5" y="248.6611">RunTask(request)</text><polygon fill="#444444" points="478.5,281.2212,488.5,285.2212,478.5,289.2212,482.5,285.2212" style="stroke:#444444;stroke-width:1.0;"/><line style="stroke:#444444;stroke-width:1.0;" x1="317.5" x2="484.5" y1="285.2212" y2="285.2212"/><text fill="#000000" font-family="Microsoft YaHei" font-size="13" lengthAdjust="spacing" textLength="149" x="324.5" y="279.8188">validate + create task_id</text><polygon fill="#444444" points="643.5,312.3789,653.5,316.3789,643.5,320.3789,647.5,316.3789" style="stroke:#444444;stroke-width:1.0;"/><line style="stroke:#444444;stroke-width:1.0;" x1="490.5" x2="649.5" y1="316.3789" y2="316.3789"/><text fill="#000000" font-family="Microsoft YaHei" font-size="13" lengthAdjust="spacing" textLength="97" x="497.5" y="310.9766">status=pending</text><polygon fill="#444444" points="750.5,343.5366,760.5,347.5366,750.5,351.5366,754.5,347.5366" style="stroke:#444444;stroke-width:1.0;"/><line style="stroke:#444444;stroke-width:1.0;" x1="490.5" x2="756.5" y1="347.5366" y2="347.5366"/><text fill="#000000" font-family="Microsoft YaHei" font-size="13" lengthAdjust="spacing" textLength="103" x="497.5" y="342.1343">enqueue(task_id)</text><polygon fill="#444444" points="156.5,374.6943,146.5,378.6943,156.5,382.6943,152.5,378.6943" style="stroke:#444444;stroke-width:1.0;"/><line style="stroke:#444444;stroke-width:1.0;stroke-dasharray:2.0,2.0;" x1="150.5" x2="316.5" y1="378.6943" y2="378.6943"/><text fill="#000000" font-family="Microsoft YaHei" font-size="13" lengthAdjust="spacing" textLength="84" x="162.5" y="373.292">return task_id</text><rect fill="#EEEEEE" height="3" style="stroke:#EEEEEE;stroke-width:1.0;" width="1384" x="0" y="408.2732"/><line style="stroke:#000000;stroke-width:1.0;" x1="0" x2="1384" y1="408.2732" y2="408.2732"/><line style="stroke:#000000;stroke-width:1.0;" x1="0" x2="1384" y1="411.2732" y2="411.2732"/><rect fill="#EEEEEE" height="25.1577" style="stroke:#000000;stroke-width:2.0;" width="70" x="657" y="396.6943"/><text fill="#000000" font-family="Microsoft YaHei" font-size="13" font-weight="bold" lengthAdjust="spacing" textLength="52" x="663" y="414.4497">&#35843;&#24230;&#25191;&#34892;</text><polygon fill="#444444" points="773.5,451.0098,763.5,455.0098,773.5,459.0098,769.5,455.0098" style="stroke:#444444;stroke-width:1.0;"/><line style="stroke:#444444;stroke-width:1.0;" x1="767.5" x2="877" y1="455.0098" y2="455.0098"/><text fill="#000000" font-family="Microsoft YaHei" font-size="13" lengthAdjust="spacing" textLength="55" x="779.5" y="449.6074">take task</text><polygon fill="#444444" points="666.5,482.1675,656.5,486.1675,666.5,490.1675,662.5,486.1675" style="stroke:#444444;stroke-width:1.0;"/><line style="stroke:#444444;stroke-width:1.0;" x1="660.5" x2="877" y1="486.1675" y2="486.1675"/><text fill="#000000" font-family="Microsoft YaHei" font-size="13" lengthAdjust="spacing" textLength="95" x="672.5" y="480.7651">status=running</text><polygon fill="#444444" points="1324,513.3252,1334,517.3252,1324,521.3252,1328,517.3252" style="stroke:#444444;stroke-width:1.0;"/><line style="stroke:#444444;stroke-width:1.0;" x1="878" x2="1330" y1="517.3252" y2="517.3252"/><text fill="#000000" font-family="Microsoft YaHei" font-size="13" lengthAdjust="spacing" textLength="107" x="885" y="511.9229">create workspace</text><polygon fill="#444444" points="1068,561.6406,1078,565.6406,1068,569.6406,1072,565.6406" style="stroke:#444444;stroke-width:1.0;"/><line style="stroke:#444444;stroke-width:1.0;" x1="878" x2="1074" y1="565.6406" y2="565.6406"/><text fill="#000000" font-family="Microsoft YaHei" font-size="13" lengthAdjust="spacing" textLength="90" x="885" y="543.0806">spawn process</text><text fill="#000000" font-family="Microsoft YaHei" font-size="13" lengthAdjust="spacing" textLength="118" x="885" y="560.2383">send request JSON</text><rect fill="#EEEEEE" height="3" style="stroke:#EEEEEE;stroke-width:1.0;" width="1384" x="0" y="595.2195"/><line style="stroke:#000000;stroke-width:1.0;" x1="0" x2="1384" y1="595.2195" y2="595.2195"/><line style="stroke:#000000;stroke-width:1.0;" x1="0" x2="1384" y1="598.2195" y2="598.2195"/><rect fill="#EEEEEE" height="25.1577" style="stroke:#000000;stroke-width:2.0;" width="109" x="637.5" y="583.6406"/><text fill="#000000" font-family="Microsoft YaHei" font-size="13" font-weight="bold" lengthAdjust="spacing" textLength="91" x="643.5" y="601.396">&#24341;&#25806;&#25191;&#34892;&#19982;&#36755;&#20986;</text><polygon fill="#444444" points="1324,637.9561,1334,641.9561,1324,645.9561,1328,641.9561" style="stroke:#444444;stroke-width:1.0;"/><line style="stroke:#444444;stroke-width:1.0;" x1="1090" x2="1330" y1="641.9561" y2="641.9561"/><text fill="#000000" font-family="Microsoft YaHei" font-size="13" lengthAdjust="spacing" textLength="63" x="1097" y="636.5537">read input</text><polygon fill="#444444" points="1324,686.2715,1334,690.2715,1324,694.2715,1328,690.2715" style="stroke:#444444;stroke-width:1.0;"/><line style="stroke:#444444;stroke-width:1.0;" x1="1090" x2="1330" y1="690.2715" y2="690.2715"/><text fill="#000000" font-family="Microsoft YaHei" font-size="13" lengthAdjust="spacing" textLength="84" x="1097" y="667.7114">write artifacts</text><text fill="#000000" font-family="Microsoft YaHei" font-size="13" lengthAdjust="spacing" textLength="222" x="1097" y="684.8691">(result.csv, summary.json, plots.json)</text><polygon fill="#444444" points="889,717.4292,879,721.4292,889,725.4292,885,721.4292" style="stroke:#444444;stroke-width:1.0;"/><line style="stroke:#444444;stroke-width:1.0;stroke-dasharray:2.0,2.0;" x1="883" x2="1079" y1="721.4292" y2="721.4292"/><text fill="#000000" font-family="Microsoft YaHei" font-size="13" lengthAdjust="spacing" textLength="138" x="895" y="716.0269">stdout response JSON</text><polygon fill="#444444" points="889,748.5869,879,752.5869,889,756.5869,885,752.5869" style="stroke:#444444;stroke-width:1.0;"/><line style="stroke:#444444;stroke-width:1.0;stroke-dasharray:2.0,2.0;" x1="883" x2="1084" y1="752.5869" y2="752.5869"/><text fill="#000000" font-family="Microsoft YaHei" font-size="13" lengthAdjust="spacing" textLength="178" x="895" y="747.1846">stderr logs/progress (stream)</text><polygon fill="#444444" points="666.5,796.9023,656.5,800.9023,666.5,804.9023,662.5,800.9023" style="stroke:#444444;stroke-width:1.0;"/><line style="stroke:#444444;stroke-width:1.0;" x1="660.5" x2="877" y1="800.9023" y2="800.9023"/><text fill="#000000" font-family="Microsoft YaHei" font-size="13" lengthAdjust="spacing" textLength="151" x="672.5" y="778.3423">status=succeeded/failed</text><text fill="#000000" font-family="Microsoft YaHei" font-size="13" lengthAdjust="spacing" textLength="121" x="672.5" y="795.5">store artifacts/error</text><polygon fill="#444444" points="501.5,828.0601,491.5,832.0601,501.5,836.0601,497.5,832.0601" style="stroke:#444444;stroke-width:1.0;"/><line style="stroke:#444444;stroke-width:1.0;stroke-dasharray:2.0,2.0;" x1="495.5" x2="877" y1="832.0601" y2="832.0601"/><text fill="#000000" font-family="Microsoft YaHei" font-size="13" lengthAdjust="spacing" textLength="171" x="507.5" y="826.6577">notify completion (optional)</text><rect fill="#EEEEEE" height="3" style="stroke:#EEEEEE;stroke-width:1.0;" width="1384" x="0" y="861.6389"/><line style="stroke:#000000;stroke-width:1.0;" x1="0" x2="1384" y1="861.6389" y2="861.6389"/><line style="stroke:#000000;stroke-width:1.0;" x1="0" x2="1384" y1="864.6389" y2="864.6389"/><rect fill="#EEEEEE" height="25.1577" style="stroke:#000000;stroke-width:2.0;" width="88" x="648" y="850.0601"/><text fill="#000000" font-family="Microsoft YaHei" font-size="13" font-weight="bold" lengthAdjust="spacing" textLength="70" x="654" y="867.8154">UI &#36718;&#35810;&#29366;&#24577;</text><path d="M101.5,892.2178 L177.5,892.2178 L177.5,901.3755 L167.5,911.3755 L101.5,911.3755 L101.5,892.2178 " fill="#EEEEEE" style="stroke:#000000;stroke-width:1.5;"/><rect fill="none" height="126.6309" style="stroke:#000000;stroke-width:1.5;" width="614.5" x="101.5" y="892.2178"/><text fill="#000000" font-family="Microsoft YaHei" font-size="13" font-weight="bold" lengthAdjust="spacing" textLength="31" x="116.5" y="906.9731">loop</text><text fill="#000000" font-family="Microsoft YaHei" font-size="11" font-weight="bold" lengthAdjust="spacing" textLength="106" x="192.5" y="905.8569">[every 200~500ms]</text><polygon fill="#444444" points="305.5,930.5332,315.5,934.5332,305.5,938.5332,309.5,934.5332" style="stroke:#444444;stroke-width:1.0;"/><line style="stroke:#444444;stroke-width:1.0;" x1="145.5" x2="311.5" y1="934.5332" y2="934.5332"/><text fill="#000000" font-family="Microsoft YaHei" font-size="13" lengthAdjust="spacing" textLength="138" x="152.5" y="929.1309">GetTaskStatus(task_id)</text><polygon fill="#444444" points="643.5,961.6909,653.5,965.6909,643.5,969.6909,647.5,965.6909" style="stroke:#444444;stroke-width:1.0;"/><line style="stroke:#444444;stroke-width:1.0;" x1="317.5" x2="649.5" y1="965.6909" y2="965.6909"/><text fill="#000000" font-family="Microsoft YaHei" font-size="13" lengthAdjust="spacing" textLength="179" x="324.5" y="960.2886">read status + logs + artifacts</text><polygon fill="#444444" points="328.5,975.6909,318.5,979.6909,328.5,983.6909,324.5,979.6909" style="stroke:#444444;stroke-width:1.0;"/><line style="stroke:#444444;stroke-width:1.0;stroke-dasharray:2.0,2.0;" x1="322.5" x2="654.5" y1="979.6909" y2="979.6909"/><polygon fill="#444444" points="156.5,1006.8486,146.5,1010.8486,156.5,1014.8486,152.5,1010.8486" style="stroke:#444444;stroke-width:1.0;"/><line style="stroke:#444444;stroke-width:1.0;stroke-dasharray:2.0,2.0;" x1="150.5" x2="316.5" y1="1010.8486" y2="1010.8486"/><text fill="#000000" font-family="Microsoft YaHei" font-size="13" lengthAdjust="spacing" textLength="148" x="162.5" y="1005.4463">status + logs + artifacts</text><rect fill="#EEEEEE" height="3" style="stroke:#EEEEEE;stroke-width:1.0;" width="1384" x="0" y="1047.4275"/><line style="stroke:#000000;stroke-width:1.0;" x1="0" x2="1384" y1="1047.4275" y2="1047.4275"/><line style="stroke:#000000;stroke-width:1.0;" x1="0" x2="1384" y1="1050.4275" y2="1050.4275"/><rect fill="#EEEEEE" height="25.1577" style="stroke:#000000;stroke-width:2.0;" width="96" x="644" y="1035.8486"/><text fill="#000000" font-family="Microsoft YaHei" font-size="13" font-weight="bold" lengthAdjust="spacing" textLength="78" x="650" y="1053.604">&#21462;&#28040;&#65288;&#21487;&#36873;&#65289;</text><path d="M10,1078.0063 L78,1078.0063 L78,1087.1641 L68,1097.1641 L10,1097.1641 L10,1078.0063 " fill="#EEEEEE" style="stroke:#000000;stroke-width:1.5;"/><rect fill="none" height="237.2617" style="stroke:#000000;stroke-width:1.5;" width="1150" x="10" y="1078.0063"/><text fill="#000000" font-family="Microsoft YaHei" font-size="13" font-weight="bold" lengthAdjust="spacing" textLength="23" x="25" y="1092.7617">opt</text><text fill="#000000" font-family="Microsoft YaHei" font-size="11" font-weight="bold" lengthAdjust="spacing" textLength="104" x="93" y="1091.6455">[User clicks Cancel]</text><polygon fill="#444444" points="133.5,1116.3218,143.5,1120.3218,133.5,1124.3218,137.5,1120.3218" style="stroke:#444444;stroke-width:1.0;"/><line style="stroke:#444444;stroke-width:1.0;" x1="37.5" x2="139.5" y1="1120.3218" y2="1120.3218"/><text fill="#000000" font-family="Microsoft YaHei" font-size="13" lengthAdjust="spacing" textLength="52" x="44.5" y="1114.9194">&#28857;&#20987;&#21462;&#28040;</text><polygon fill="#444444" points="305.5,1147.4795,315.5,1151.4795,305.5,1155.4795,309.5,1151.4795" style="stroke:#444444;stroke-width:1.0;"/><line style="stroke:#444444;stroke-width:1.0;" x1="145.5" x2="311.5" y1="1151.4795" y2="1151.4795"/><text fill="#000000" font-family="Microsoft YaHei" font-size="13" lengthAdjust="spacing" textLength="118" x="152.5" y="1146.0771">CancelTask(task_id)</text><polygon fill="#444444" points="478.5,1178.6372,488.5,1182.6372,478.5,1186.6372,482.5,1182.6372" style="stroke:#444444;stroke-width:1.0;"/><line style="stroke:#444444;stroke-width:1.0;" x1="317.5" x2="484.5" y1="1182.6372" y2="1182.6372"/><text fill="#000000" font-family="Microsoft YaHei" font-size="13" lengthAdjust="spacing" textLength="89" x="324.5" y="1177.2349">cancel request</text><polygon fill="#444444" points="643.5,1209.7949,653.5,1213.7949,643.5,1217.7949,647.5,1213.7949" style="stroke:#444444;stroke-width:1.0;"/><line style="stroke:#444444;stroke-width:1.0;" x1="490.5" x2="649.5" y1="1213.7949" y2="1213.7949"/><text fill="#000000" font-family="Microsoft YaHei" font-size="13" lengthAdjust="spacing" textLength="141" x="497.5" y="1208.3926">mark cancel_requested</text><polygon fill="#444444" points="866,1240.9526,876,1244.9526,866,1248.9526,870,1244.9526" style="stroke:#444444;stroke-width:1.0;"/><line style="stroke:#444444;stroke-width:1.0;" x1="490.5" x2="872" y1="1244.9526" y2="1244.9526"/><text fill="#000000" font-family="Microsoft YaHei" font-size="13" lengthAdjust="spacing" textLength="115" x="497.5" y="1239.5503">signal kill/interrupt</text><polygon fill="#444444" points="1073,1272.1104,1083,1276.1104,1073,1280.1104,1077,1276.1104" style="stroke:#444444;stroke-width:1.0;"/><line style="stroke:#444444;stroke-width:1.0;" x1="878" x2="1079" y1="1276.1104" y2="1276.1104"/><text fill="#000000" font-family="Microsoft YaHei" font-size="13" lengthAdjust="spacing" textLength="110" x="885" y="1270.708">terminate process</text><polygon fill="#444444" points="666.5,1303.2681,656.5,1307.2681,666.5,1311.2681,662.5,1307.2681" style="stroke:#444444;stroke-width:1.0;"/><line style="stroke:#444444;stroke-width:1.0;" x1="660.5" x2="877" y1="1307.2681" y2="1307.2681"/><text fill="#000000" font-family="Microsoft YaHei" font-size="13" lengthAdjust="spacing" textLength="101" x="672.5" y="1301.8657">status=canceled</text><rect fill="#EEEEEE" height="3" style="stroke:#EEEEEE;stroke-width:1.0;" width="1384" x="0" y="1343.8469"/><line style="stroke:#000000;stroke-width:1.0;" x1="0" x2="1384" y1="1343.8469" y2="1343.8469"/><line style="stroke:#000000;stroke-width:1.0;" x1="0" x2="1384" y1="1346.8469" y2="1346.8469"/><rect fill="#EEEEEE" height="25.1577" style="stroke:#000000;stroke-width:2.0;" width="96" x="644" y="1332.2681"/><text fill="#000000" font-family="Microsoft YaHei" font-size="13" font-weight="bold" lengthAdjust="spacing" textLength="78" x="650" y="1350.0234">&#36229;&#26102;&#65288;&#21487;&#36873;&#65289;</text><path d="M433,1374.4258 L501,1374.4258 L501,1383.5835 L491,1393.5835 L433,1393.5835 L433,1374.4258 " fill="#EEEEEE" style="stroke:#000000;stroke-width:1.5;"/><rect fill="none" height="112.6309" style="stroke:#000000;stroke-width:1.5;" width="727" x="433" y="1374.4258"/><text fill="#000000" font-family="Microsoft YaHei" font-size="13" font-weight="bold" lengthAdjust="spacing" textLength="23" x="448" y="1389.1812">opt</text><text fill="#000000" font-family="Microsoft YaHei" font-size="11" font-weight="bold" lengthAdjust="spacing" textLength="108" x="516" y="1388.0649">[Timeout triggered]</text><polygon fill="#444444" points="866,1412.7412,876,1416.7412,866,1420.7412,870,1416.7412" style="stroke:#444444;stroke-width:1.0;"/><line style="stroke:#444444;stroke-width:1.0;" x1="490.5" x2="872" y1="1416.7412" y2="1416.7412"/><text fill="#000000" font-family="Microsoft YaHei" font-size="13" lengthAdjust="spacing" textLength="87" x="497.5" y="1411.3389">timeout signal</text><polygon fill="#444444" points="1073,1443.8989,1083,1447.8989,1073,1451.8989,1077,1447.8989" style="stroke:#444444;stroke-width:1.0;"/><line style="stroke:#444444;stroke-width:1.0;" x1="878" x2="1079" y1="1447.8989" y2="1447.8989"/><text fill="#000000" font-family="Microsoft YaHei" font-size="13" lengthAdjust="spacing" textLength="67" x="885" y="1442.4966">kill process</text><polygon fill="#444444" points="666.5,1475.0566,656.5,1479.0566,666.5,1483.0566,662.5,1479.0566" style="stroke:#444444;stroke-width:1.0;"/><line style="stroke:#444444;stroke-width:1.0;" x1="660.5" x2="877" y1="1479.0566" y2="1479.0566"/><text fill="#000000" font-family="Microsoft YaHei" font-size="13" lengthAdjust="spacing" textLength="109" x="672.5" y="1473.6543">status=timed_out</text><!--SRC=[XLL1RnD75BxlhtXABxOASLIb5oHNefIahTGqYHDLaI9Pm-wpcNftPfcPjUKBIgaW2I22YY1dAYZg1JXPRPAs_wNABkw9lz0tCxl4TbBrvDMyxxttlM- -DpRSn0YdnyVv_UV5_glnyuV5uIW_EdX_ihUUYGscU_3tlPzWTMXkIW7NHPSBT2Vlxe-AdH_6VxmUl_cvKHo-pFywTEVvwuV5tkD6Vl2i6EqrngExLE_zoNuGw1uNALCi0NsJHNB0HHSwBDOu4Rcgb1nSax5KyD7Yuk94v0lii2msIrAO5POWVCD39RNi6DXYNo8F0XOQojhKg0BAC3paAHC6vhvZFDQm-TKSCFip7LoMy3aBUoYYRL7po1jSH4HDrrt2rTMP3AT82rMVX-WG6wqB0ElOvTgeeKEiNr- -0BAMOUOhhCqGbgg7ga7g2rI-mERAD6JgDeWvkezsmhYOJuUU-UfM4373RZ2DCBV4OzH3RJ0XjCnCcfbsn9L7BhM2eDc4uk3nwT4BxmHeDWCh9Lp-Z3I3A_3FpdxnuDVYsUxfyOZkzaxnzEssU7VdztptE3_PoLyz20X6ODABqALpQWflPQXDFR375DreKR3FOaxC43w6KA7zC8HjyoYWC858Ba9fmqoccocwsoX3QnH0SSigLokJojeLJuKcK-93HJlN-EsF-T4ltjjsBbApgcLOptUl3gTwAxe1sxkCBLdo9UC1tP5EMOXLS7NBvgLi821LCaIjjuKcxb1A05-tlbsn7kLzcq-NOwdb9q-B9uyyjTFV7et_V9Bl7bcELAxgI0qZe2t8pEJfG74gOptHeQBKZBJMj1_peUvV0fqb2LF3-U-r59SWZQNHxhlkIjWvYRMTCo8lK0UTIcBhESuYK2c8PLStQAukGJNKoDd8adeGuTH05sceip14Z31gT6YxaDPCqvfEC6zGVQbyRkKG8IauX50cQOo6azDhChM_BAuxtUYg_SFZ7o6hM2nb2jX7DOHF5XPkVxgmaEW0ODALosYiArkEsPb_04ftUk9ERy-U76edfvyFT0bjOPTzqIgtSjz_fv4L_8sxPv4Ur_pW3UqKFOoMF4tdNYu8OnxsD5nZ8iJOqf_SmNBTN8MPqNo2sxdpSpbDGuUex4Z1oMKZi_HAHBj4O7I6yLRWNT8VUZoE6rmOkhOijNKc5u1E4owi7yebE8jFkSAteXQLBDNVn7bPDdY2rgH6yMuNrJbQfenxUZDyBDd_eMBpepPLi5p-1G00]--></g></svg>