<?xml version="1.0" encoding="us-ascii" standalone="no"?><svg xmlns="http://www.w3.org/2000/svg" xmlns:xlink="http://www.w3.org/1999/xlink" contentStyleType="text/css" height="558px" preserveAspectRatio="none" style="width:701px;height:558px;background:#FFFFFF;" version="1.1" viewBox="0 0 701 558" width="701px" zoomAndPan="magnify"><defs/><g><text fill="#000000" font-family="Microsoft YaHei" font-size="14" font-weight="bold" lengthAdjust="spacing" textLength="150" x="268.605" y="24.8135">&#20219;&#21153;&#29366;&#24577;&#26426;&#65288;Go &#32500;&#25252;&#65289;</text><ellipse cx="434" cy="55.4775" fill="#222222" rx="10" ry="10" style="stroke:#222222;stroke-width:1.0;"/><g id="pending"><rect fill="#F1F1F1" height="50" rx="12.5" ry="12.5" style="stroke:#181818;stroke-width:0.5;" width="77" x="395.5" y="144.4775"/><line style="stroke:#181818;stroke-width:0.5;" x1="395.5" x2="472.5" y1="172.9551" y2="172.9551"/><text fill="#000000" font-family="Microsoft YaHei" font-size="14" lengthAdjust="spacing" textLength="57" x="405.5" y="164.291">pending</text></g><g id="running"><rect fill="#F1F1F1" height="50" rx="12.5" ry="12.5" style="stroke:#181818;stroke-width:0.5;" width="74" x="272" y="273.4775"/><line style="stroke:#181818;stroke-width:0.5;" x1="272" x2="346" y1="301.9551" y2="301.9551"/><text fill="#000000" font-family="Microsoft YaHei" font-size="14" lengthAdjust="spacing" textLength="54" x="282" y="293.291">running</text></g><g id="succeeded"><rect fill="#F1F1F1" height="50" rx="12.5" ry="12.5" style="stroke:#181818;stroke-width:0.5;" width="91" x="381.5" y="419.4775"/><line style="stroke:#181818;stroke-width:0.5;" x1="381.5" x2="472.5" y1="447.9551" y2="447.9551"/><text fill="#000000" font-family="Microsoft YaHei" font-size="14" lengthAdjust="spacing" textLength="71" x="391.5" y="439.291">succeeded</text></g><g id="failed"><rect fill="#F1F1F1" height="50" rx="12.5" ry="12.5" style="stroke:#181818;stroke-width:0.5;" width="58" x="130" y="419.4775"/><line style="stroke:#181818;stroke-width:0.5;" x1="130" x2="188" y1="447.9551" y2="447.9551"/><text fill="#000000" font-family="Microsoft YaHei" font-size="14" lengthAdjust="spacing" textLength="38" x="140" y="439.291">failed</text></g><g id="canceled"><rect fill="#F1F1F1" height="50" rx="12.5" ry="12.5" style="stroke:#181818;stroke-width:0.5;" width="80" x="266" y="419.4775"/><line style="stroke:#181818;stroke-width:0.5;" x1="266" x2="346" y1="447.9551" y2="447.9551"/><text fill="#000000" font-family="Microsoft YaHei" font-size="14" lengthAdjust="spacing" textLength="60" x="276" y="439.291">canceled</text></g><g id="timed_out"><rect fill="#F1F1F1" height="50" rx="12.5" ry="12.5" style="stroke:#181818;stroke-width:0.5;" width="88" x="7" y="419.4775"/><line style="stroke:#181818;stroke-width:0.5;" x1="7" x2="95" y1="447.9551" y2="447.9551"/><text fill="#000000" font-family="Microsoft YaHei" font-size="14" lengthAdjust="spacing" textLength="68" x="17" y="439.291">timed_out</text></g><ellipse cx="209" cy="541.4775" fill="none" rx="11" ry="11" style="stroke:#222222;stroke-width:1.0;"/><ellipse cx="209" cy="541.4775" fill="#222222" rx="6" ry="6" style="stroke:#222222;stroke-width:1.0;"/><!--link *start* to pending--><g id="link_*start*_pending"><path d="M434,65.6475 C434,82.6775 434,113.7075 434,138.3675 " fill="none" id="*start*-to-pending" style="stroke:#444444;stroke-width:1.0;"/><polygon fill="#444444" points="434,144.3675,438,135.3675,434,139.3675,430,135.3675,434,144.3675" style="stroke:#444444;stroke-width:1.0;"/><text fill="#000000" font-family="Microsoft YaHei" font-size="13" lengthAdjust="spacing" textLength="109" x="435" y="110.2329">RunTask() created</text></g><!--link pending to running--><g id="link_pending_running"><path d="M410.19,194.6675 C387.95,217.2575 359.1384,246.5309 336.9284,269.1009 " fill="none" id="pending-to-running" style="stroke:#444444;stroke-width:1.0;"/><polygon fill="#444444" points="332.72,273.3775,341.8837,269.7682,336.227,269.8137,336.1815,264.157,332.72,273.3775" style="stroke:#444444;stroke-width:1.0;"/><text fill="#000000" font-family="Microsoft YaHei" font-size="13" lengthAdjust="spacing" textLength="146" x="379" y="239.2329">worker starts / dispatch</text></g><!--link running to succeeded--><g id="link_running_succeeded"><path d="M346.23,318.8775 C360.73,327.8675 376.58,339.6375 388,353.4775 C404.04,372.9175 412.7857,394.229 418.8157,413.589 " fill="none" id="running-to-succeeded" style="stroke:#444444;stroke-width:1.0;"/><polygon fill="#444444" points="420.6,419.3175,421.7427,409.5352,419.1131,414.5437,414.1046,411.9142,420.6,419.3175" style="stroke:#444444;stroke-width:1.0;"/><text fill="#000000" font-family="Microsoft YaHei" font-size="13" lengthAdjust="spacing" textLength="108" x="409" y="376.7329">engine returns ok</text></g><!--link running to failed--><g id="link_running_failed"><path d="M271.79,303.8275 C240.18,309.5975 196.19,322.9075 172,353.4775 C157.4,371.9275 155.1257,393.3934 155.9957,413.1234 " fill="none" id="running-to-failed" style="stroke:#444444;stroke-width:1.0;"/><polygon fill="#444444" points="156.26,419.1175,159.8596,409.9501,156.0397,414.1224,151.8674,410.3025,156.26,419.1175" style="stroke:#444444;stroke-width:1.0;"/><text fill="#000000" font-family="Microsoft YaHei" font-size="13" lengthAdjust="spacing" textLength="123" x="173" y="368.2329">engine returns error</text><text fill="#000000" font-family="Microsoft YaHei" font-size="13" lengthAdjust="spacing" textLength="105" x="182" y="385.3906">or internal failure</text></g><!--link pending to canceled--><g id="link_pending_canceled"><path d="M472.52,180.5575 C494.69,188.5575 520.71,202.1975 534,224.4775 C557.3,263.5475 694.21,198.1575 526,389.4775 C477.65,444.4675 434.21,398.6975 364,419.4775 C358.15,421.2075 357.6842,421.1845 351.7742,423.4445 " fill="none" id="pending-to-canceled" style="stroke:#444444;stroke-width:1.0;"/><polygon fill="#444444" points="346.17,425.5875,356.005,426.1091,350.8402,423.8016,353.1476,418.6368,346.17,425.5875" style="stroke:#444444;stroke-width:1.0;"/><text fill="#000000" font-family="Microsoft YaHei" font-size="13" lengthAdjust="spacing" textLength="76" x="608" y="295.2329">CancelTask()</text><text fill="#000000" font-family="Microsoft YaHei" font-size="13" lengthAdjust="spacing" textLength="72" x="610" y="312.3906">before start</text></g><!--link running to canceled--><g id="link_running_canceled"><path d="M307.37,323.6575 C306.82,332.9775 306.27,343.7175 306,353.4775 C305.38,375.8175 305.3871,395.2779 305.5771,413.4079 " fill="none" id="running-to-canceled" style="stroke:#444444;stroke-width:1.0;"/><polygon fill="#444444" points="305.64,419.4075,309.5455,410.3661,305.5876,414.4078,301.5459,410.45,305.64,419.4075" style="stroke:#444444;stroke-width:1.0;"/><text fill="#000000" font-family="Microsoft YaHei" font-size="13" lengthAdjust="spacing" textLength="76" x="307" y="368.2329">CancelTask()</text><text fill="#000000" font-family="Microsoft YaHei" font-size="13" lengthAdjust="spacing" textLength="76" x="307" y="385.3906">kill/interrupt</text></g><!--link running to timed_out--><g id="link_running_timed_out"><path d="M271.59,303.8975 C214.32,311.3775 108.62,328.2175 81,353.4775 C62.53,370.3775 56.2055,392.9905 53.4755,413.4005 " fill="none" id="running-to-timed_out" style="stroke:#444444;stroke-width:1.0;"/><polygon fill="#444444" points="52.68,419.3475,57.8379,410.9573,53.3429,414.3917,49.9085,409.8967,52.68,419.3475" style="stroke:#444444;stroke-width:1.0;"/><text fill="#000000" font-family="Microsoft YaHei" font-size="13" lengthAdjust="spacing" textLength="48" x="91.5" y="368.2329">timeout</text><text fill="#000000" font-family="Microsoft YaHei" font-size="13" lengthAdjust="spacing" textLength="67" x="82" y="385.3906">kill process</text></g><!--link failed to *end*--><g id="link_failed_*end*"><path d="M171.88,469.9375 C182.41,489.9575 193.9355,511.848 201.3355,525.908 " fill="none" id="failed-to-*end*" style="stroke:#444444;stroke-width:1.0;"/><polygon fill="#444444" points="204.13,531.2175,203.478,521.3903,201.8013,526.7929,196.3986,525.1163,204.13,531.2175" style="stroke:#444444;stroke-width:1.0;"/></g><!--link succeeded to *end*--><g id="link_succeeded_*end*"><path d="M381.3,465.3975 C329.11,488.1375 252.8003,521.3903 224.5103,533.7203 " fill="none" id="succeeded-to-*end*" style="stroke:#444444;stroke-width:1.0;"/><polygon fill="#444444" points="219.01,536.1175,228.8586,536.1885,223.5936,534.1198,225.6623,528.8548,219.01,536.1175" style="stroke:#444444;stroke-width:1.0;"/></g><!--link canceled to *end*--><g id="link_canceled_*end*"><path d="M281.27,469.6975 C259.94,490.5875 234.746,515.2587 220.966,528.7587 " fill="none" id="canceled-to-*end*" style="stroke:#444444;stroke-width:1.0;"/><polygon fill="#444444" points="216.68,532.9575,225.9082,529.5165,220.2516,529.4585,220.3097,523.8019,216.68,532.9575" style="stroke:#444444;stroke-width:1.0;"/></g><!--link timed_out to *end*--><g id="link_timed_out_*end*"><path d="M91.28,469.6975 C127.85,491.6875 173.9879,519.4258 194.6779,531.8658 " fill="none" id="timed_out-to-*end*" style="stroke:#444444;stroke-width:1.0;"/><polygon fill="#444444" points="199.82,534.9575,194.168,526.8919,195.5349,532.3811,190.0457,533.748,199.82,534.9575" style="stroke:#444444;stroke-width:1.0;"/></g><!--SRC=[TP2nIWD148RxVOe16nL2cbGMWaJKHWkn4ICoxiqbosrcZzbTqcgdUGORmKSG2vF7qKkPL_0kbpCvqEvdvljdvfzWWYNucis-fw-BwKVny5YyV2xdJwSE5hFtOlgsd3yhvJF3EGgEmOymSHF3GqZHUjhg78cuITzP9x3Jw_MsEiUKOhJXn76um371kT7Yl4i3NECP6QLkzc-Xqpc4d3YfHX_0PUGhzDdk7cWX39IefbTn4fbhRk8a8m4VK8A7BYJ6vnZqIAc6gNWVjIPAA2aTn4F3148X2djmMOjCqTY_C2h3oO3BR8O32QDTeL6eTPX6rbGFwAza7MB0zvGweVhEri9_7PcnjhjQ9Z5lUu8PKtBdOYXDbIvLpKCkJfFtIgrpL7JvNBLvG5FvtTiKDaFNbHy0]--></g></svg>