<?xml version="1.0" encoding="us-ascii" standalone="no"?><svg xmlns="http://www.w3.org/2000/svg" xmlns:xlink="http://www.w3.org/1999/xlink" contentStyleType="text/css" height="864px" preserveAspectRatio="none" style="width:681px;height:864px;background:#FFFFFF;" version="1.1" viewBox="0 0 681 864" width="681px" zoomAndPan="magnify"><defs/><g><text fill="#000000" font-family="Microsoft YaHei" font-size="14" font-weight="bold" lengthAdjust="spacing" textLength="247" x="215.5" y="34.8135">&#35757;&#32451;&#20219;&#21153;&#27963;&#21160;&#22270;&#65288;Wails MVP &#20027;&#27969;&#31243;&#65289;</text><ellipse cx="438.5625" cy="59.4775" fill="#222222" rx="10" ry="10" style="stroke:#222222;stroke-width:1.0;"/><rect fill="#F1F1F1" height="51.6758" rx="12.5" ry="12.5" style="stroke:#181818;stroke-width:0.5;" width="188" x="344.5625" y="89.4775"/><text fill="#000000" font-family="Microsoft YaHei" font-size="12" lengthAdjust="spacing" textLength="168" x="354.5625" y="112.1748">&#29992;&#25143;&#37197;&#32622; csv_path, target_col,</text><text fill="#000000" font-family="Microsoft YaHei" font-size="12" lengthAdjust="spacing" textLength="132" x="354.5625" y="128.0127">output_dir, timeout_ms</text><rect fill="#F1F1F1" height="35.8379" rx="12.5" ry="12.5" style="stroke:#181818;stroke-width:0.5;" width="92" x="392.5625" y="161.1533"/><text fill="#000000" font-family="Microsoft YaHei" font-size="12" lengthAdjust="spacing" textLength="72" x="402.5625" y="183.8506">&#21069;&#31471;&#26657;&#39564;&#21442;&#25968;</text><polygon fill="#F1F1F1" points="414.0625,216.9912,463.0625,216.9912,475.0625,228.9912,463.0625,240.9912,414.0625,240.9912,402.0625,228.9912,414.0625,216.9912" style="stroke:#181818;stroke-width:0.5;"/><text fill="#000000" font-family="Microsoft YaHei" font-size="11" lengthAdjust="spacing" textLength="49" x="414.0625" y="233.3713">&#21442;&#25968;&#21512;&#27861;?</text><text fill="#000000" font-family="Microsoft YaHei" font-size="11" lengthAdjust="spacing" textLength="11" x="391.0625" y="226.1123">&#26159;</text><text fill="#000000" font-family="Microsoft YaHei" font-size="11" lengthAdjust="spacing" textLength="11" x="475.0625" y="226.1123">&#21542;</text><rect fill="#F1F1F1" height="35.8379" rx="12.5" ry="12.5" style="stroke:#181818;stroke-width:0.5;" width="97" x="234.625" y="250.9912"/><text fill="#000000" font-family="Microsoft YaHei" font-size="12" lengthAdjust="spacing" textLength="77" x="244.625" y="273.6885">&#35843;&#29992; RunTask</text><rect fill="#F1F1F1" height="35.8379" rx="12.5" ry="12.5" style="stroke:#181818;stroke-width:0.5;" width="229" x="168.625" y="306.8291"/><text fill="#000000" font-family="Microsoft YaHei" font-size="12" lengthAdjust="spacing" textLength="209" x="178.625" y="329.5264">&#35760;&#24405; task_id &#24182;&#26174;&#31034; pending/running</text><rect fill="#F1F1F1" height="35.8379" rx="12.5" ry="12.5" style="stroke:#181818;stroke-width:0.5;" width="158" x="204.125" y="419.8062"/><text fill="#000000" font-family="Microsoft YaHei" font-size="12" lengthAdjust="spacing" textLength="138" x="214.125" y="442.5034">&#35843;&#29992; GetTaskStatus &#36718;&#35810;</text><rect fill="#F1F1F1" height="35.8379" rx="12.5" ry="12.5" style="stroke:#181818;stroke-width:0.5;" width="176" x="195.125" y="483.885"/><text fill="#000000" font-family="Microsoft YaHei" font-size="12" lengthAdjust="spacing" textLength="156" x="205.125" y="506.5823">&#26356;&#26032;&#29366;&#24577;&#12289;&#36827;&#24230;&#26465;&#12289;&#20107;&#20214;&#26085;&#24535;</text><polygon fill="#F1F1F1" points="247.625,362.667,318.625,362.667,330.625,374.667,318.625,386.667,247.625,386.667,235.625,374.667,247.625,362.667" style="stroke:#181818;stroke-width:0.5;"/><text fill="#000000" font-family="Microsoft YaHei" font-size="11" lengthAdjust="spacing" textLength="11" x="287.125" y="398.3062">&#21542;</text><text fill="#000000" font-family="Microsoft YaHei" font-size="11" lengthAdjust="spacing" textLength="71" x="247.625" y="379.0471">&#20219;&#21153;&#26159;&#21542;&#32456;&#24577;?</text><text fill="#000000" font-family="Microsoft YaHei" font-size="11" lengthAdjust="spacing" textLength="11" x="224.625" y="371.7881">&#26159;</text><polygon fill="#F1F1F1" points="219.625,561.7229,346.625,561.7229,358.625,573.7229,346.625,585.7229,219.625,585.7229,207.625,573.7229,219.625,561.7229" style="stroke:#181818;stroke-width:0.5;"/><text fill="#000000" font-family="Microsoft YaHei" font-size="11" lengthAdjust="spacing" textLength="127" x="219.625" y="578.103">&#20219;&#21153;&#29366;&#24577; == succeeded?</text><text fill="#000000" font-family="Microsoft YaHei" font-size="11" lengthAdjust="spacing" textLength="11" x="196.625" y="570.844">&#26159;</text><text fill="#000000" font-family="Microsoft YaHei" font-size="11" lengthAdjust="spacing" textLength="11" x="358.625" y="570.844">&#21542;</text><rect fill="#F1F1F1" height="35.8379" rx="12.5" ry="12.5" style="stroke:#181818;stroke-width:0.5;" width="140" x="90.25" y="595.7229"/><text fill="#000000" font-family="Microsoft YaHei" font-size="12" lengthAdjust="spacing" textLength="120" x="100.25" y="618.4202">&#28210;&#26579;&#32467;&#26524;&#25688;&#35201;&#19982;&#25351;&#26631;&#34920;</text><polygon fill="#F1F1F1" points="124.75,651.5608,195.75,651.5608,207.75,663.5608,195.75,675.5608,124.75,675.5608,112.75,663.5608,124.75,651.5608" style="stroke:#181818;stroke-width:0.5;"/><text fill="#000000" font-family="Microsoft YaHei" font-size="11" lengthAdjust="spacing" textLength="71" x="124.75" y="667.9409">&#29992;&#25143;&#28857;&#20987;&#23548;&#20986;?</text><text fill="#000000" font-family="Microsoft YaHei" font-size="11" lengthAdjust="spacing" textLength="11" x="101.75" y="660.6819">&#26159;</text><text fill="#000000" font-family="Microsoft YaHei" font-size="11" lengthAdjust="spacing" textLength="11" x="207.75" y="660.6819">&#21542;</text><rect fill="#F1F1F1" height="35.8379" rx="12.5" ry="12.5" style="stroke:#181818;stroke-width:0.5;" width="147" x="11" y="685.5608"/><text fill="#000000" font-family="Microsoft YaHei" font-size="12" lengthAdjust="spacing" textLength="127" x="21" y="708.2581">&#23548;&#20986; JSON &#25110;&#25351;&#26631; CSV</text><rect fill="#F1F1F1" height="35.8379" rx="12.5" ry="12.5" style="stroke:#181818;stroke-width:0.5;" width="116" x="178" y="685.5608"/><text fill="#000000" font-family="Microsoft YaHei" font-size="12" lengthAdjust="spacing" textLength="96" x="188" y="708.2581">&#20572;&#30041;&#32467;&#26524;&#39029;&#20379;&#26597;&#30475;</text><polygon fill="#F1F1F1" points="160.25,727.3987,172.25,739.3987,160.25,751.3987,148.25,739.3987,160.25,727.3987" style="stroke:#181818;stroke-width:0.5;"/><rect fill="#F1F1F1" height="35.8379" rx="12.5" ry="12.5" style="stroke:#181818;stroke-width:0.5;" width="152" x="330" y="595.7229"/><text fill="#000000" font-family="Microsoft YaHei" font-size="12" lengthAdjust="spacing" textLength="132" x="340" y="618.4202">&#26174;&#31034;&#38169;&#35823;&#38754;&#26495;&#19982;&#21487;&#35835;&#25552;&#31034;</text><rect fill="#F1F1F1" height="35.8379" rx="12.5" ry="12.5" style="stroke:#181818;stroke-width:0.5;" width="164" x="324" y="651.5608"/><text fill="#000000" font-family="Microsoft YaHei" font-size="12" lengthAdjust="spacing" textLength="144" x="334" y="674.2581">&#20801;&#35768;&#28857;&#20987;&#8220;&#37325;&#35797;&#19978;&#27425;&#21442;&#25968;&#8221;</text><polygon fill="#F1F1F1" points="283.125,757.3987,295.125,769.3987,283.125,781.3987,271.125,769.3987,283.125,757.3987" style="stroke:#181818;stroke-width:0.5;"/><rect fill="#F1F1F1" height="35.8379" rx="12.5" ry="12.5" style="stroke:#181818;stroke-width:0.5;" width="152" x="518" y="250.9912"/><text fill="#000000" font-family="Microsoft YaHei" font-size="12" lengthAdjust="spacing" textLength="132" x="528" y="273.6885">&#25552;&#31034;&#36755;&#20837;&#38169;&#35823;&#24182;&#38459;&#27490;&#25552;&#20132;</text><polygon fill="#F1F1F1" points="438.5625,787.3987,450.5625,799.3987,438.5625,811.3987,426.5625,799.3987,438.5625,787.3987" style="stroke:#181818;stroke-width:0.5;"/><ellipse cx="438.5625" cy="842.3987" fill="none" rx="11" ry="11" style="stroke:#222222;stroke-width:1.0;"/><ellipse cx="438.5625" cy="842.3987" fill="#222222" rx="6" ry="6" style="stroke:#222222;stroke-width:1.0;"/><line style="stroke:#4A4A4A;stroke-width:1.0;" x1="438.5625" x2="438.5625" y1="69.4775" y2="89.4775"/><polygon fill="#4A4A4A" points="434.5625,79.4775,438.5625,89.4775,442.5625,79.4775,438.5625,83.4775" style="stroke:#4A4A4A;stroke-width:1.0;"/><line style="stroke:#4A4A4A;stroke-width:1.0;" x1="438.5625" x2="438.5625" y1="141.1533" y2="161.1533"/><polygon fill="#4A4A4A" points="434.5625,151.1533,438.5625,161.1533,442.5625,151.1533,438.5625,155.1533" style="stroke:#4A4A4A;stroke-width:1.0;"/><line style="stroke:#4A4A4A;stroke-width:1.0;" x1="283.125" x2="283.125" y1="286.8291" y2="306.8291"/><polygon fill="#4A4A4A" points="279.125,296.8291,283.125,306.8291,287.125,296.8291,283.125,300.8291" style="stroke:#4A4A4A;stroke-width:1.0;"/><line style="stroke:#4A4A4A;stroke-width:1.0;" x1="283.125" x2="283.125" y1="455.644" y2="483.885"/><polygon fill="#4A4A4A" points="279.125,473.885,283.125,483.885,287.125,473.885,283.125,477.885" style="stroke:#4A4A4A;stroke-width:1.0;"/><line style="stroke:#4A4A4A;stroke-width:1.0;" x1="283.125" x2="283.125" y1="386.667" y2="419.8062"/><polygon fill="#4A4A4A" points="279.125,409.8062,283.125,419.8062,287.125,409.8062,283.125,413.8062" style="stroke:#4A4A4A;stroke-width:1.0;"/><line style="stroke:#4A4A4A;stroke-width:1.0;" x1="283.125" x2="283.125" y1="519.7229" y2="529.7229"/><line style="stroke:#4A4A4A;stroke-width:1.0;" x1="283.125" x2="383.125" y1="529.7229" y2="529.7229"/><polygon fill="#4A4A4A" points="379.125,463.885,383.125,453.885,387.125,463.885,383.125,459.885" style="stroke:#4A4A4A;stroke-width:1.0;"/><line style="stroke:#4A4A4A;stroke-width:1.0;" x1="383.125" x2="383.125" y1="374.667" y2="529.7229"/><line style="stroke:#4A4A4A;stroke-width:1.0;" x1="383.125" x2="330.625" y1="374.667" y2="374.667"/><polygon fill="#4A4A4A" points="340.625,370.667,330.625,374.667,340.625,378.667,336.625,374.667" style="stroke:#4A4A4A;stroke-width:1.0;"/><line style="stroke:#4A4A4A;stroke-width:1.0;" x1="235.625" x2="183.125" y1="374.667" y2="374.667"/><polygon fill="#4A4A4A" points="179.125,449.885,183.125,459.885,187.125,449.885,183.125,453.885" style="stroke:#4A4A4A;stroke-width:1.0;"/><line style="stroke:#4A4A4A;stroke-width:1.0;" x1="183.125" x2="183.125" y1="374.667" y2="541.7229"/><line style="stroke:#4A4A4A;stroke-width:1.0;" x1="183.125" x2="283.125" y1="541.7229" y2="541.7229"/><line style="stroke:#4A4A4A;stroke-width:1.0;" x1="283.125" x2="283.125" y1="541.7229" y2="561.7229"/><polygon fill="#4A4A4A" points="279.125,551.7229,283.125,561.7229,287.125,551.7229,283.125,555.7229" style="stroke:#4A4A4A;stroke-width:1.0;"/><line style="stroke:#4A4A4A;stroke-width:1.0;" x1="283.125" x2="283.125" y1="342.667" y2="362.667"/><polygon fill="#4A4A4A" points="279.125,352.667,283.125,362.667,287.125,352.667,283.125,356.667" style="stroke:#4A4A4A;stroke-width:1.0;"/><line style="stroke:#4A4A4A;stroke-width:1.0;" x1="112.75" x2="84.5" y1="663.5608" y2="663.5608"/><line style="stroke:#4A4A4A;stroke-width:1.0;" x1="84.5" x2="84.5" y1="663.5608" y2="685.5608"/><polygon fill="#4A4A4A" points="80.5,675.5608,84.5,685.5608,88.5,675.5608,84.5,679.5608" style="stroke:#4A4A4A;stroke-width:1.0;"/><line style="stroke:#4A4A4A;stroke-width:1.0;" x1="207.75" x2="236" y1="663.5608" y2="663.5608"/><line style="stroke:#4A4A4A;stroke-width:1.0;" x1="236" x2="236" y1="663.5608" y2="685.5608"/><polygon fill="#4A4A4A" points="232,675.5608,236,685.5608,240,675.5608,236,679.5608" style="stroke:#4A4A4A;stroke-width:1.0;"/><line style="stroke:#4A4A4A;stroke-width:1.0;" x1="84.5" x2="84.5" y1="721.3987" y2="739.3987"/><line style="stroke:#4A4A4A;stroke-width:1.0;" x1="84.5" x2="148.25" y1="739.3987" y2="739.3987"/><polygon fill="#4A4A4A" points="138.25,735.3987,148.25,739.3987,138.25,743.3987,142.25,739.3987" style="stroke:#4A4A4A;stroke-width:1.0;"/><line style="stroke:#4A4A4A;stroke-width:1.0;" x1="236" x2="236" y1="721.3987" y2="739.3987"/><line style="stroke:#4A4A4A;stroke-width:1.0;" x1="236" x2="172.25" y1="739.3987" y2="739.3987"/><polygon fill="#4A4A4A" points="182.25,735.3987,172.25,739.3987,182.25,743.3987,178.25,739.3987" style="stroke:#4A4A4A;stroke-width:1.0;"/><line style="stroke:#4A4A4A;stroke-width:1.0;" x1="160.25" x2="160.25" y1="631.5608" y2="651.5608"/><polygon fill="#4A4A4A" points="156.25,641.5608,160.25,651.5608,164.25,641.5608,160.25,645.5608" style="stroke:#4A4A4A;stroke-width:1.0;"/><line style="stroke:#4A4A4A;stroke-width:1.0;" x1="406" x2="406" y1="631.5608" y2="651.5608"/><polygon fill="#4A4A4A" points="402,641.5608,406,651.5608,410,641.5608,406,645.5608" style="stroke:#4A4A4A;stroke-width:1.0;"/><line style="stroke:#4A4A4A;stroke-width:1.0;" x1="207.625" x2="160.25" y1="573.7229" y2="573.7229"/><line style="stroke:#4A4A4A;stroke-width:1.0;" x1="160.25" x2="160.25" y1="573.7229" y2="595.7229"/><polygon fill="#4A4A4A" points="156.25,585.7229,160.25,595.7229,164.25,585.7229,160.25,589.7229" style="stroke:#4A4A4A;stroke-width:1.0;"/><line style="stroke:#4A4A4A;stroke-width:1.0;" x1="358.625" x2="406" y1="573.7229" y2="573.7229"/><line style="stroke:#4A4A4A;stroke-width:1.0;" x1="406" x2="406" y1="573.7229" y2="595.7229"/><polygon fill="#4A4A4A" points="402,585.7229,406,595.7229,410,585.7229,406,589.7229" style="stroke:#4A4A4A;stroke-width:1.0;"/><line style="stroke:#4A4A4A;stroke-width:1.0;" x1="160.25" x2="160.25" y1="751.3987" y2="769.3987"/><line style="stroke:#4A4A4A;stroke-width:1.0;" x1="160.25" x2="271.125" y1="769.3987" y2="769.3987"/><polygon fill="#4A4A4A" points="261.125,765.3987,271.125,769.3987,261.125,773.3987,265.125,769.3987" style="stroke:#4A4A4A;stroke-width:1.0;"/><line style="stroke:#4A4A4A;stroke-width:1.0;" x1="406" x2="406" y1="687.3987" y2="769.3987"/><line style="stroke:#4A4A4A;stroke-width:1.0;" x1="406" x2="295.125" y1="769.3987" y2="769.3987"/><polygon fill="#4A4A4A" points="305.125,765.3987,295.125,769.3987,305.125,773.3987,301.125,769.3987" style="stroke:#4A4A4A;stroke-width:1.0;"/><line style="stroke:#4A4A4A;stroke-width:1.0;" x1="402.0625" x2="283.125" y1="228.9912" y2="228.9912"/><line style="stroke:#4A4A4A;stroke-width:1.0;" x1="283.125" x2="283.125" y1="228.9912" y2="250.9912"/><polygon fill="#4A4A4A" points="279.125,240.9912,283.125,250.9912,287.125,240.9912,283.125,244.9912" style="stroke:#4A4A4A;stroke-width:1.0;"/><line style="stroke:#4A4A4A;stroke-width:1.0;" x1="475.0625" x2="594" y1="228.9912" y2="228.9912"/><line style="stroke:#4A4A4A;stroke-width:1.0;" x1="594" x2="594" y1="228.9912" y2="250.9912"/><polygon fill="#4A4A4A" points="590,240.9912,594,250.9912,598,240.9912,594,244.9912" style="stroke:#4A4A4A;stroke-width:1.0;"/><line style="stroke:#4A4A4A;stroke-width:1.0;" x1="283.125" x2="283.125" y1="781.3987" y2="799.3987"/><line style="stroke:#4A4A4A;stroke-width:1.0;" x1="283.125" x2="426.5625" y1="799.3987" y2="799.3987"/><polygon fill="#4A4A4A" points="416.5625,795.3987,426.5625,799.3987,416.5625,803.3987,420.5625,799.3987" style="stroke:#4A4A4A;stroke-width:1.0;"/><line style="stroke:#4A4A4A;stroke-width:1.0;" x1="594" x2="594" y1="286.8291" y2="799.3987"/><line style="stroke:#4A4A4A;stroke-width:1.0;" x1="594" x2="450.5625" y1="799.3987" y2="799.3987"/><polygon fill="#4A4A4A" points="460.5625,795.3987,450.5625,799.3987,460.5625,803.3987,456.5625,799.3987" style="stroke:#4A4A4A;stroke-width:1.0;"/><line style="stroke:#4A4A4A;stroke-width:1.0;" x1="438.5625" x2="438.5625" y1="196.9912" y2="216.9912"/><polygon fill="#4A4A4A" points="434.5625,206.9912,438.5625,216.9912,442.5625,206.9912,438.5625,210.9912" style="stroke:#4A4A4A;stroke-width:1.0;"/><line style="stroke:#4A4A4A;stroke-width:1.0;" x1="438.5625" x2="438.5625" y1="811.3987" y2="831.3987"/><polygon fill="#4A4A4A" points="434.5625,821.3987,438.5625,831.3987,442.5625,821.3987,438.5625,825.3987" style="stroke:#4A4A4A;stroke-width:1.0;"/><!--SRC=[PP9HIzjG5CVVyoaEx4L1sCkUMcI8Oni3tPZ3CHYKqDxQO9kKv6Q-jaffRQtjq6gbxRIYfMopAPkwscZzBYxt9ddoA-p4MvYR19BS-x_d_pldt4CLcYJWzKvSUysnRLPiyrDyTrbZT7jPU2yhIGFc5j-0Cx3vMTRjbculroN9M5RKjApBAJ0ISanRKTGbYCj9WznJPdHTMvdLafeEZvxC1CyzyHc9osQIFjTKEY-d2CmfKLqpj3Y53_9BeY21oZgLGkvsbnT- -RcoUzM3gF4fafPfOWfGN28q4jMIKnzLpQHfaqPYYew2aYAuZgICi1HYwsNtcyKFslxN3LPPvRL-M9AKE4o81QiM-C_QqqcW2QB21AzRan90oEkl8HNUckexsLWEtstr-kogXbHZEQB4W5sSy_h8FHf2cgWnhFsnRgegVj4UO2MXO4SdnisiMwpQSUq2psIHf1W8htO2pb_I2q83qWALgMc0TzNphCEmEC4RftodxnRFCVnt9kjTDzYmmrjj_7U69SS-vxl7x7etE8sPZCbtXU1EKAd8GXZ0z3GOPZHAI8p4_YyxW0r-yFqjrzxYNvhySzthP9t19j_8yuEyr-wAZ09FSIVkwWNBsyowPFdXGpEq4nAyMdWz3xom8unWTc5HE16SbdlD20AoJRUs9_X- -ymPDVZ-iTiiZSzZf-FIWxYGk0b_Uy-pBBzro5lNc3MhM9vbyqeLfN4hMIxhzGOYwvjCqy-NFQlc38hyUrkCmqscDUuZSlwXX8IHDzfYkMD1mX7mwpO_EKJ96Hw59H66Owkb_m00]--></g></svg>