<?xml version="1.0" encoding="us-ascii" standalone="no"?><svg xmlns="http://www.w3.org/2000/svg" xmlns:xlink="http://www.w3.org/1999/xlink" contentStyleType="text/css" height="942px" preserveAspectRatio="none" style="width:389px;height:942px;background:#FFFFFF;" version="1.1" viewBox="0 0 389 942" width="389px" zoomAndPan="magnify"><defs/><g><text fill="#000000" font-family="Microsoft YaHei" font-size="14" font-weight="bold" lengthAdjust="spacing" textLength="188" x="93.5" y="24.8135">Go &#21518;&#31471;&#26680;&#24515;&#31867;&#22270;&#65288;&#38454;&#27573;2-3&#65289;</text><!--class Runner--><g id="elem_Runner"><rect codeLine="7" fill="#F1F1F1" height="66.4775" id="Runner" rx="2.5" ry="2.5" style="stroke:#181818;stroke-width:0.5;" width="111" x="40.5" y="576.4775"/><ellipse cx="69" cy="592.4775" fill="#B4A7E5" rx="11" ry="11" style="stroke:#181818;stroke-width:1.0;"/><path d="M69.9531,589.1182 L69.9531,595.7744 L71.6719,595.7744 Q72.2813,595.7744 72.5469,596.0088 Q72.8125,596.2432 72.8125,596.6338 Q72.8125,597.0088 72.5469,597.2432 Q72.2813,597.4775 71.6719,597.4775 L66.5313,597.4775 Q65.9219,597.4775 65.6563,597.2432 Q65.3906,597.0088 65.3906,596.6182 Q65.3906,596.2432 65.6563,596.0088 Q65.9219,595.7744 66.5313,595.7744 L68.25,595.7744 L68.25,589.1182 L66.5313,589.1182 Q65.9219,589.1182 65.6563,588.8838 Q65.3906,588.6494 65.3906,588.2588 Q65.3906,587.8838 65.6563,587.6494 Q65.9219,587.415 66.5313,587.415 L71.6719,587.415 Q72.2813,587.415 72.5469,587.6494 Q72.8125,587.8838 72.8125,588.2588 Q72.8125,588.6494 72.5469,588.8838 Q72.2813,589.1182 71.6719,589.1182 L69.9531,589.1182 Z " fill="#000000"/><text fill="#000000" font-family="Microsoft YaHei" font-size="14" font-style="italic" lengthAdjust="spacing" textLength="49" x="86" y="598.0522">Runner</text><line style="stroke:#181818;stroke-width:0.5;" x1="41.5" x2="150.5" y1="608.4775" y2="608.4775"/><line style="stroke:#181818;stroke-width:0.5;" x1="41.5" x2="150.5" y1="616.4775" y2="616.4775"/><ellipse cx="51.5" cy="631.2163" fill="#84BE84" rx="3" ry="3" style="stroke:#038048;stroke-width:1.0;"/><text fill="#000000" font-family="Microsoft YaHei" font-size="14" lengthAdjust="spacing" textLength="85" x="60.5" y="635.291">Run(ctx, req)</text></g><!--class EngineRunner--><g id="elem_EngineRunner"><rect codeLine="11" fill="#F1F1F1" height="121.9102" id="EngineRunner" rx="2.5" ry="2.5" style="stroke:#181818;stroke-width:0.5;" width="132" x="7" y="292.9775"/><ellipse cx="23.8" cy="308.9775" fill="#ADD1B2" rx="11" ry="11" style="stroke:#181818;stroke-width:1.0;"/><path d="M26.5656,304.8525 Q26.7219,304.6338 26.9094,304.5244 Q27.0969,304.415 27.3156,304.415 Q27.6906,304.415 27.925,304.6807 Q28.1594,304.9307 28.1594,305.54 L28.1594,306.9932 Q28.1594,307.6025 27.925,307.8682 Q27.6906,308.1338 27.3156,308.1338 Q26.9719,308.1338 26.7688,307.9307 Q26.5656,307.7432 26.4563,307.2275 Q26.4094,306.8682 26.2219,306.6807 Q25.8938,306.3057 25.2844,306.0869 Q24.675,305.8682 24.05,305.8682 Q23.2844,305.8682 22.6438,306.1963 Q22.0188,306.5244 21.5188,307.2744 Q21.0344,308.0244 21.0344,309.0557 L21.0344,310.1494 Q21.0344,311.3838 21.925,312.2119 Q22.8156,313.0244 24.4094,313.0244 Q25.3469,313.0244 26.0031,312.7744 Q26.3938,312.6182 26.8156,312.1807 Q27.0813,311.915 27.2219,311.8369 Q27.3781,311.7588 27.5813,311.7588 Q27.9094,311.7588 28.1594,312.0244 Q28.425,312.2744 28.425,312.6182 Q28.425,312.9619 28.0813,313.3682 Q27.5813,313.9463 26.7844,314.2744 Q25.7063,314.7275 24.4094,314.7275 Q22.8938,314.7275 21.6906,314.1025 Q20.7063,313.6025 20.0188,312.54 Q19.3313,311.4619 19.3313,310.1807 L19.3313,309.0244 Q19.3313,307.6963 19.9406,306.5557 Q20.5656,305.3994 21.6594,304.79 Q22.7531,304.165 23.9875,304.165 Q24.7219,304.165 25.3625,304.3369 Q26.0188,304.4932 26.5656,304.8525 Z " fill="#000000"/><text fill="#000000" font-family="Microsoft YaHei" font-size="14" lengthAdjust="spacing" textLength="96" x="38.2" y="314.5522">EngineRunner</text><line style="stroke:#181818;stroke-width:0.5;" x1="8" x2="138" y1="324.9775" y2="324.9775"/><ellipse cx="18" cy="339.7163" fill="none" rx="3" ry="3" style="stroke:#038048;stroke-width:1.0;"/><text fill="#000000" font-family="Microsoft YaHei" font-size="14" lengthAdjust="spacing" textLength="70" x="27" y="343.791">PythonBin</text><ellipse cx="18" cy="358.1938" fill="none" rx="3" ry="3" style="stroke:#038048;stroke-width:1.0;"/><text fill="#000000" font-family="Microsoft YaHei" font-size="14" lengthAdjust="spacing" textLength="85" x="27" y="362.2686">EngineScript</text><ellipse cx="18" cy="376.6714" fill="none" rx="3" ry="3" style="stroke:#038048;stroke-width:1.0;"/><text fill="#000000" font-family="Microsoft YaHei" font-size="14" lengthAdjust="spacing" textLength="106" x="27" y="380.7461">DefaultTimeout</text><line style="stroke:#181818;stroke-width:0.5;" x1="8" x2="138" y1="388.4102" y2="388.4102"/><ellipse cx="18" cy="403.1489" fill="#84BE84" rx="3" ry="3" style="stroke:#038048;stroke-width:1.0;"/><text fill="#000000" font-family="Microsoft YaHei" font-size="14" lengthAdjust="spacing" textLength="85" x="27" y="407.2236">Run(ctx, req)</text></g><!--class Service--><g id="elem_Service"><rect codeLine="18" fill="#F1F1F1" height="177.3428" id="Service" rx="2.5" ry="2.5" style="stroke:#181818;stroke-width:0.5;" width="175" x="174.5" y="265.4775"/><ellipse cx="234.25" cy="281.4775" fill="#ADD1B2" rx="11" ry="11" style="stroke:#181818;stroke-width:1.0;"/><path d="M237.0156,277.3525 Q237.1719,277.1338 237.3594,277.0244 Q237.5469,276.915 237.7656,276.915 Q238.1406,276.915 238.375,277.1807 Q238.6094,277.4307 238.6094,278.04 L238.6094,279.4932 Q238.6094,280.1025 238.375,280.3682 Q238.1406,280.6338 237.7656,280.6338 Q237.4219,280.6338 237.2188,280.4307 Q237.0156,280.2432 236.9063,279.7275 Q236.8594,279.3682 236.6719,279.1807 Q236.3438,278.8057 235.7344,278.5869 Q235.125,278.3682 234.5,278.3682 Q233.7344,278.3682 233.0938,278.6963 Q232.4688,279.0244 231.9688,279.7744 Q231.4844,280.5244 231.4844,281.5557 L231.4844,282.6494 Q231.4844,283.8838 232.375,284.7119 Q233.2656,285.5244 234.8594,285.5244 Q235.7969,285.5244 236.4531,285.2744 Q236.8438,285.1182 237.2656,284.6807 Q237.5313,284.415 237.6719,284.3369 Q237.8281,284.2588 238.0313,284.2588 Q238.3594,284.2588 238.6094,284.5244 Q238.875,284.7744 238.875,285.1182 Q238.875,285.4619 238.5313,285.8682 Q238.0313,286.4463 237.2344,286.7744 Q236.1563,287.2275 234.8594,287.2275 Q233.3438,287.2275 232.1406,286.6025 Q231.1563,286.1025 230.4688,285.04 Q229.7813,283.9619 229.7813,282.6807 L229.7813,281.5244 Q229.7813,280.1963 230.3906,279.0557 Q231.0156,277.8994 232.1094,277.29 Q233.2031,276.665 234.4375,276.665 Q235.1719,276.665 235.8125,276.8369 Q236.4688,276.9932 237.0156,277.3525 Z " fill="#000000"/><text fill="#000000" font-family="Microsoft YaHei" font-size="14" lengthAdjust="spacing" textLength="47" x="254.75" y="287.0522">Service</text><line style="stroke:#181818;stroke-width:0.5;" x1="175.5" x2="348.5" y1="297.4775" y2="297.4775"/><rect fill="none" height="6" style="stroke:#C82930;stroke-width:1.0;" width="6" x="182.5" y="309.2163"/><text fill="#000000" font-family="Microsoft YaHei" font-size="14" lengthAdjust="spacing" textLength="45" x="194.5" y="316.291">runner</text><rect fill="none" height="6" style="stroke:#C82930;stroke-width:1.0;" width="6" x="182.5" y="327.6938"/><text fill="#000000" font-family="Microsoft YaHei" font-size="14" lengthAdjust="spacing" textLength="33" x="194.5" y="334.7686">tasks</text><rect fill="none" height="6" style="stroke:#C82930;stroke-width:1.0;" width="6" x="182.5" y="346.1714"/><text fill="#000000" font-family="Microsoft YaHei" font-size="14" lengthAdjust="spacing" textLength="53" x="194.5" y="353.2461">runtime</text><rect fill="none" height="6" style="stroke:#C82930;stroke-width:1.0;" width="6" x="182.5" y="364.6489"/><text fill="#000000" font-family="Microsoft YaHei" font-size="14" lengthAdjust="spacing" textLength="43" x="194.5" y="371.7236">queue</text><line style="stroke:#181818;stroke-width:0.5;" x1="175.5" x2="348.5" y1="379.3877" y2="379.3877"/><ellipse cx="185.5" cy="394.1265" fill="#84BE84" rx="3" ry="3" style="stroke:#038048;stroke-width:1.0;"/><text fill="#000000" font-family="Microsoft YaHei" font-size="14" lengthAdjust="spacing" textLength="149" x="194.5" y="398.2012">RunTask(req, timeout)</text><ellipse cx="185.5" cy="412.604" fill="#84BE84" rx="3" ry="3" style="stroke:#038048;stroke-width:1.0;"/><text fill="#000000" font-family="Microsoft YaHei" font-size="14" lengthAdjust="spacing" textLength="127" x="194.5" y="416.6787">CancelTask(taskID)</text><ellipse cx="185.5" cy="431.0815" fill="#84BE84" rx="3" ry="3" style="stroke:#038048;stroke-width:1.0;"/><text fill="#000000" font-family="Microsoft YaHei" font-size="14" lengthAdjust="spacing" textLength="146" x="194.5" y="435.1563">GetTaskStatus(taskID)</text></g><!--class Task--><g id="elem_Task"><rect codeLine="28" fill="#F1F1F1" height="214.2979" id="Task" rx="2.5" ry="2.5" style="stroke:#181818;stroke-width:0.5;" width="104" x="210" y="502.4775"/><ellipse cx="243.9" cy="518.4775" fill="#ADD1B2" rx="11" ry="11" style="stroke:#181818;stroke-width:1.0;"/><path d="M246.6656,514.3525 Q246.8219,514.1338 247.0094,514.0244 Q247.1969,513.915 247.4156,513.915 Q247.7906,513.915 248.025,514.1807 Q248.2594,514.4307 248.2594,515.04 L248.2594,516.4932 Q248.2594,517.1025 248.025,517.3682 Q247.7906,517.6338 247.4156,517.6338 Q247.0719,517.6338 246.8688,517.4307 Q246.6656,517.2432 246.5563,516.7275 Q246.5094,516.3682 246.3219,516.1807 Q245.9938,515.8057 245.3844,515.5869 Q244.775,515.3682 244.15,515.3682 Q243.3844,515.3682 242.7438,515.6963 Q242.1188,516.0244 241.6188,516.7744 Q241.1344,517.5244 241.1344,518.5557 L241.1344,519.6494 Q241.1344,520.8838 242.025,521.7119 Q242.9156,522.5244 244.5094,522.5244 Q245.4469,522.5244 246.1031,522.2744 Q246.4938,522.1182 246.9156,521.6807 Q247.1813,521.415 247.3219,521.3369 Q247.4781,521.2588 247.6813,521.2588 Q248.0094,521.2588 248.2594,521.5244 Q248.525,521.7744 248.525,522.1182 Q248.525,522.4619 248.1813,522.8682 Q247.6813,523.4463 246.8844,523.7744 Q245.8063,524.2275 244.5094,524.2275 Q242.9938,524.2275 241.7906,523.6025 Q240.8063,523.1025 240.1188,522.04 Q239.4313,520.9619 239.4313,519.6807 L239.4313,518.5244 Q239.4313,517.1963 240.0406,516.0557 Q240.6656,514.8994 241.7594,514.29 Q242.8531,513.665 244.0875,513.665 Q244.8219,513.665 245.4625,513.8369 Q246.1188,513.9932 246.6656,514.3525 Z " fill="#000000"/><text fill="#000000" font-family="Microsoft YaHei" font-size="14" lengthAdjust="spacing" textLength="30" x="262.1" y="524.0522">Task</text><line style="stroke:#181818;stroke-width:0.5;" x1="211" x2="313" y1="534.4775" y2="534.4775"/><ellipse cx="221" cy="549.2163" fill="none" rx="3" ry="3" style="stroke:#038048;stroke-width:1.0;"/><text fill="#000000" font-family="Microsoft YaHei" font-size="14" lengthAdjust="spacing" textLength="15" x="230" y="553.291">ID</text><ellipse cx="221" cy="567.6938" fill="none" rx="3" ry="3" style="stroke:#038048;stroke-width:1.0;"/><text fill="#000000" font-family="Microsoft YaHei" font-size="14" lengthAdjust="spacing" textLength="41" x="230" y="571.7686">Status</text><ellipse cx="221" cy="586.1714" fill="none" rx="3" ry="3" style="stroke:#038048;stroke-width:1.0;"/><text fill="#000000" font-family="Microsoft YaHei" font-size="14" lengthAdjust="spacing" textLength="54" x="230" y="590.2461">Request</text><ellipse cx="221" cy="604.6489" fill="none" rx="3" ry="3" style="stroke:#038048;stroke-width:1.0;"/><text fill="#000000" font-family="Microsoft YaHei" font-size="14" lengthAdjust="spacing" textLength="64" x="230" y="608.7236">Response</text><ellipse cx="221" cy="623.1265" fill="none" rx="3" ry="3" style="stroke:#038048;stroke-width:1.0;"/><text fill="#000000" font-family="Microsoft YaHei" font-size="14" lengthAdjust="spacing" textLength="32" x="230" y="627.2012">Error</text><ellipse cx="221" cy="641.604" fill="none" rx="3" ry="3" style="stroke:#038048;stroke-width:1.0;"/><text fill="#000000" font-family="Microsoft YaHei" font-size="14" lengthAdjust="spacing" textLength="67" x="230" y="645.6787">CreatedAt</text><ellipse cx="221" cy="660.0815" fill="none" rx="3" ry="3" style="stroke:#038048;stroke-width:1.0;"/><text fill="#000000" font-family="Microsoft YaHei" font-size="14" lengthAdjust="spacing" textLength="63" x="230" y="664.1563">StartedAt</text><ellipse cx="221" cy="678.5591" fill="none" rx="3" ry="3" style="stroke:#038048;stroke-width:1.0;"/><text fill="#000000" font-family="Microsoft YaHei" font-size="14" lengthAdjust="spacing" textLength="58" x="230" y="682.6338">EndedAt</text><ellipse cx="221" cy="697.0366" fill="none" rx="3" ry="3" style="stroke:#038048;stroke-width:1.0;"/><text fill="#000000" font-family="Microsoft YaHei" font-size="14" lengthAdjust="spacing" textLength="78" x="230" y="701.1113">TimeoutMS</text><line style="stroke:#181818;stroke-width:0.5;" x1="211" x2="313" y1="708.7754" y2="708.7754"/></g><!--class Request--><g id="elem_Request"><rect codeLine="40" fill="#F1F1F1" height="103.4326" id="Request" rx="2.5" ry="2.5" style="stroke:#181818;stroke-width:0.5;" width="86" x="153" y="804.4775"/><ellipse cx="168" cy="820.4775" fill="#ADD1B2" rx="11" ry="11" style="stroke:#181818;stroke-width:1.0;"/><path d="M170.7656,816.3525 Q170.9219,816.1338 171.1094,816.0244 Q171.2969,815.915 171.5156,815.915 Q171.8906,815.915 172.125,816.1807 Q172.3594,816.4307 172.3594,817.04 L172.3594,818.4932 Q172.3594,819.1025 172.125,819.3682 Q171.8906,819.6338 171.5156,819.6338 Q171.1719,819.6338 170.9688,819.4307 Q170.7656,819.2432 170.6563,818.7275 Q170.6094,818.3682 170.4219,818.1807 Q170.0938,817.8057 169.4844,817.5869 Q168.875,817.3682 168.25,817.3682 Q167.4844,817.3682 166.8438,817.6963 Q166.2188,818.0244 165.7188,818.7744 Q165.2344,819.5244 165.2344,820.5557 L165.2344,821.6494 Q165.2344,822.8838 166.125,823.7119 Q167.0156,824.5244 168.6094,824.5244 Q169.5469,824.5244 170.2031,824.2744 Q170.5938,824.1182 171.0156,823.6807 Q171.2813,823.415 171.4219,823.3369 Q171.5781,823.2588 171.7813,823.2588 Q172.1094,823.2588 172.3594,823.5244 Q172.625,823.7744 172.625,824.1182 Q172.625,824.4619 172.2813,824.8682 Q171.7813,825.4463 170.9844,825.7744 Q169.9063,826.2275 168.6094,826.2275 Q167.0938,826.2275 165.8906,825.6025 Q164.9063,825.1025 164.2188,824.04 Q163.5313,822.9619 163.5313,821.6807 L163.5313,820.5244 Q163.5313,819.1963 164.1406,818.0557 Q164.7656,816.8994 165.8594,816.29 Q166.9531,815.665 168.1875,815.665 Q168.9219,815.665 169.5625,815.8369 Q170.2188,815.9932 170.7656,816.3525 Z " fill="#000000"/><text fill="#000000" font-family="Microsoft YaHei" font-size="14" lengthAdjust="spacing" textLength="54" x="182" y="826.0522">Request</text><line style="stroke:#181818;stroke-width:0.5;" x1="154" x2="238" y1="836.4775" y2="836.4775"/><ellipse cx="164" cy="851.2163" fill="none" rx="3" ry="3" style="stroke:#038048;stroke-width:1.0;"/><text fill="#000000" font-family="Microsoft YaHei" font-size="14" lengthAdjust="spacing" textLength="45" x="173" y="855.291">TaskID</text><ellipse cx="164" cy="869.6938" fill="none" rx="3" ry="3" style="stroke:#038048;stroke-width:1.0;"/><text fill="#000000" font-family="Microsoft YaHei" font-size="14" lengthAdjust="spacing" textLength="44" x="173" y="873.7686">Action</text><ellipse cx="164" cy="888.1714" fill="none" rx="3" ry="3" style="stroke:#038048;stroke-width:1.0;"/><text fill="#000000" font-family="Microsoft YaHei" font-size="14" lengthAdjust="spacing" textLength="54" x="173" y="892.2461">Payload</text><line style="stroke:#181818;stroke-width:0.5;" x1="154" x2="238" y1="899.9102" y2="899.9102"/></g><!--class Response--><g id="elem_Response"><rect codeLine="46" fill="#F1F1F1" height="158.8652" id="Response" rx="2.5" ry="2.5" style="stroke:#181818;stroke-width:0.5;" width="108" x="274" y="776.4775"/><ellipse cx="294.4" cy="792.4775" fill="#ADD1B2" rx="11" ry="11" style="stroke:#181818;stroke-width:1.0;"/><path d="M297.1656,788.3525 Q297.3219,788.1338 297.5094,788.0244 Q297.6969,787.915 297.9156,787.915 Q298.2906,787.915 298.525,788.1807 Q298.7594,788.4307 298.7594,789.04 L298.7594,790.4932 Q298.7594,791.1025 298.525,791.3682 Q298.2906,791.6338 297.9156,791.6338 Q297.5719,791.6338 297.3688,791.4307 Q297.1656,791.2432 297.0563,790.7275 Q297.0094,790.3682 296.8219,790.1807 Q296.4938,789.8057 295.8844,789.5869 Q295.275,789.3682 294.65,789.3682 Q293.8844,789.3682 293.2438,789.6963 Q292.6188,790.0244 292.1188,790.7744 Q291.6344,791.5244 291.6344,792.5557 L291.6344,793.6494 Q291.6344,794.8838 292.525,795.7119 Q293.4156,796.5244 295.0094,796.5244 Q295.9469,796.5244 296.6031,796.2744 Q296.9938,796.1182 297.4156,795.6807 Q297.6813,795.415 297.8219,795.3369 Q297.9781,795.2588 298.1813,795.2588 Q298.5094,795.2588 298.7594,795.5244 Q299.025,795.7744 299.025,796.1182 Q299.025,796.4619 298.6813,796.8682 Q298.1813,797.4463 297.3844,797.7744 Q296.3063,798.2275 295.0094,798.2275 Q293.4938,798.2275 292.2906,797.6025 Q291.3063,797.1025 290.6188,796.04 Q289.9313,794.9619 289.9313,793.6807 L289.9313,792.5244 Q289.9313,791.1963 290.5406,790.0557 Q291.1656,788.8994 292.2594,788.29 Q293.3531,787.665 294.5875,787.665 Q295.3219,787.665 295.9625,787.8369 Q296.6188,787.9932 297.1656,788.3525 Z " fill="#000000"/><text fill="#000000" font-family="Microsoft YaHei" font-size="14" lengthAdjust="spacing" textLength="64" x="309.6" y="798.0522">Response</text><line style="stroke:#181818;stroke-width:0.5;" x1="275" x2="381" y1="808.4775" y2="808.4775"/><ellipse cx="285" cy="823.2163" fill="none" rx="3" ry="3" style="stroke:#038048;stroke-width:1.0;"/><text fill="#000000" font-family="Microsoft YaHei" font-size="14" lengthAdjust="spacing" textLength="45" x="294" y="827.291">TaskID</text><ellipse cx="285" cy="841.6938" fill="none" rx="3" ry="3" style="stroke:#038048;stroke-width:1.0;"/><text fill="#000000" font-family="Microsoft YaHei" font-size="14" lengthAdjust="spacing" textLength="41" x="294" y="845.7686">Status</text><ellipse cx="285" cy="860.1714" fill="none" rx="3" ry="3" style="stroke:#038048;stroke-width:1.0;"/><text fill="#000000" font-family="Microsoft YaHei" font-size="14" lengthAdjust="spacing" textLength="41" x="294" y="864.2461">Result</text><ellipse cx="285" cy="878.6489" fill="none" rx="3" ry="3" style="stroke:#038048;stroke-width:1.0;"/><text fill="#000000" font-family="Microsoft YaHei" font-size="14" lengthAdjust="spacing" textLength="32" x="294" y="882.7236">Error</text><ellipse cx="285" cy="897.1265" fill="none" rx="3" ry="3" style="stroke:#038048;stroke-width:1.0;"/><text fill="#000000" font-family="Microsoft YaHei" font-size="14" lengthAdjust="spacing" textLength="74" x="294" y="901.2012">Timestamp</text><ellipse cx="285" cy="915.604" fill="none" rx="3" ry="3" style="stroke:#038048;stroke-width:1.0;"/><text fill="#000000" font-family="Microsoft YaHei" font-size="14" lengthAdjust="spacing" textLength="82" x="294" y="919.6787">DurationMS</text><line style="stroke:#181818;stroke-width:0.5;" x1="275" x2="381" y1="927.3428" y2="927.3428"/></g><!--class App--><g id="elem_App"><rect codeLine="55" fill="#F1F1F1" height="158.8652" id="App" rx="2.5" ry="2.5" style="stroke:#181818;stroke-width:0.5;" width="172" x="176" y="46.4775"/><ellipse cx="243.75" cy="62.4775" fill="#ADD1B2" rx="11" ry="11" style="stroke:#181818;stroke-width:1.0;"/><path d="M246.5156,58.3525 Q246.6719,58.1338 246.8594,58.0244 Q247.0469,57.915 247.2656,57.915 Q247.6406,57.915 247.875,58.1807 Q248.1094,58.4307 248.1094,59.04 L248.1094,60.4932 Q248.1094,61.1025 247.875,61.3682 Q247.6406,61.6338 247.2656,61.6338 Q246.9219,61.6338 246.7188,61.4307 Q246.5156,61.2432 246.4063,60.7275 Q246.3594,60.3682 246.1719,60.1807 Q245.8438,59.8057 245.2344,59.5869 Q244.625,59.3682 244,59.3682 Q243.2344,59.3682 242.5938,59.6963 Q241.9688,60.0244 241.4688,60.7744 Q240.9844,61.5244 240.9844,62.5557 L240.9844,63.6494 Q240.9844,64.8838 241.875,65.7119 Q242.7656,66.5244 244.3594,66.5244 Q245.2969,66.5244 245.9531,66.2744 Q246.3438,66.1182 246.7656,65.6807 Q247.0313,65.415 247.1719,65.3369 Q247.3281,65.2588 247.5313,65.2588 Q247.8594,65.2588 248.1094,65.5244 Q248.375,65.7744 248.375,66.1182 Q248.375,66.4619 248.0313,66.8682 Q247.5313,67.4463 246.7344,67.7744 Q245.6563,68.2275 244.3594,68.2275 Q242.8438,68.2275 241.6406,67.6025 Q240.6563,67.1025 239.9688,66.04 Q239.2813,64.9619 239.2813,63.6807 L239.2813,62.5244 Q239.2813,61.1963 239.8906,60.0557 Q240.5156,58.8994 241.6094,58.29 Q242.7031,57.665 243.9375,57.665 Q244.6719,57.665 245.3125,57.8369 Q245.9688,57.9932 246.5156,58.3525 Z " fill="#000000"/><text fill="#000000" font-family="Microsoft YaHei" font-size="14" lengthAdjust="spacing" textLength="28" x="264.25" y="68.0522">App</text><line style="stroke:#181818;stroke-width:0.5;" x1="177" x2="347" y1="78.4775" y2="78.4775"/><rect fill="none" height="6" style="stroke:#C82930;stroke-width:1.0;" width="6" x="184" y="90.2163"/><text fill="#000000" font-family="Microsoft YaHei" font-size="14" lengthAdjust="spacing" textLength="45" x="196" y="97.291">service</text><line style="stroke:#181818;stroke-width:0.5;" x1="177" x2="347" y1="104.9551" y2="104.9551"/><ellipse cx="187" cy="119.6938" fill="#84BE84" rx="3" ry="3" style="stroke:#038048;stroke-width:1.0;"/><text fill="#000000" font-family="Microsoft YaHei" font-size="14" lengthAdjust="spacing" textLength="121" x="196" y="123.7686">RunTask(payload)</text><ellipse cx="187" cy="138.1714" fill="#84BE84" rx="3" ry="3" style="stroke:#038048;stroke-width:1.0;"/><text fill="#000000" font-family="Microsoft YaHei" font-size="14" lengthAdjust="spacing" textLength="146" x="196" y="142.2461">GetTaskStatus(taskID)</text><ellipse cx="187" cy="156.6489" fill="#84BE84" rx="3" ry="3" style="stroke:#038048;stroke-width:1.0;"/><text fill="#000000" font-family="Microsoft YaHei" font-size="14" lengthAdjust="spacing" textLength="127" x="196" y="160.7236">CancelTask(taskID)</text><ellipse cx="187" cy="175.1265" fill="#84BE84" rx="3" ry="3" style="stroke:#038048;stroke-width:1.0;"/><text fill="#000000" font-family="Microsoft YaHei" font-size="14" lengthAdjust="spacing" textLength="76" x="196" y="179.2012">SelectCSV()</text><ellipse cx="187" cy="193.604" fill="#84BE84" rx="3" ry="3" style="stroke:#038048;stroke-width:1.0;"/><text fill="#000000" font-family="Microsoft YaHei" font-size="14" lengthAdjust="spacing" textLength="118" x="196" y="197.6787">SelectOutputDir()</text></g><!--link EngineRunner to Runner--><g id="link_EngineRunner_Runner"><path codeLine="64" d="M78.45,415.0575 C83.03,465.5675 87.784,517.9011 91.454,558.3611 " fill="none" id="EngineRunner-to-Runner" style="stroke:#4A4A4A;stroke-width:1.0;stroke-dasharray:7.0,7.0;"/><polygon fill="none" points="93.08,576.2875,97.4294,557.8191,85.4785,558.9032,93.08,576.2875" style="stroke:#4A4A4A;stroke-width:1.0;"/></g><!--link Service to Runner--><g id="link_Service_Runner"><path codeLine="65" d="M204.64,442.5775 C174.37,488.7975 142.347,537.708 120.397,571.228 " fill="none" id="Service-to-Runner" style="stroke:#4A4A4A;stroke-width:1.0;"/><polygon fill="#4A4A4A" points="117.11,576.2475,125.3868,570.9095,119.8491,572.0646,118.6941,566.5269,117.11,576.2475" style="stroke:#4A4A4A;stroke-width:1.0;"/></g><!--link App to Service--><g id="link_App_Service"><path codeLine="66" d="M262,205.7075 C262,224.9375 262,239.6375 262,259.2675 " fill="none" id="App-to-Service" style="stroke:#4A4A4A;stroke-width:1.0;"/><polygon fill="#4A4A4A" points="262,265.2675,266,256.2675,262,260.2675,258,256.2675,262,265.2675" style="stroke:#4A4A4A;stroke-width:1.0;"/></g><!--reverse link Service to Task--><g id="link_Service_Task"><path codeLine="68" d="M262,454.5775 C262,473.7475 262,482.2575 262,502.0775 " fill="none" id="Service-backto-Task" style="stroke:#4A4A4A;stroke-width:1.0;"/><polygon fill="#4A4A4A" points="262,442.5775,258,448.5775,262,454.5775,266,448.5775,262,442.5775" style="stroke:#4A4A4A;stroke-width:1.0;"/><text fill="#000000" font-family="Microsoft YaHei" font-size="13" lengthAdjust="spacing" textLength="8" x="253.6563" y="464.6695">1</text><text fill="#000000" font-family="Microsoft YaHei" font-size="13" lengthAdjust="spacing" textLength="6" x="255.7984" y="491.0412">*</text></g><!--reverse link Task to Request--><g id="link_Task_Request"><path codeLine="69" d="M230.2132,728.233 C222.0032,758.653 216.55,778.8275 209.7,804.2375 " fill="none" id="Task-backto-Request" style="stroke:#4A4A4A;stroke-width:1.0;"/><polygon fill="#4A4A4A" points="233.34,716.6475,227.9148,721.398,230.2132,728.233,235.6384,723.4825,233.34,716.6475" style="stroke:#4A4A4A;stroke-width:1.0;"/></g><!--reverse link Task to Response--><g id="link_Task_Response"><path codeLine="70" d="M293.7855,728.2334 C299.1755,748.2134 301.6,757.1875 306.72,776.1475 " fill="none" id="Task-backto-Response" style="stroke:#4A4A4A;stroke-width:1.0;"/><polygon fill="#4A4A4A" points="290.66,716.6475,288.3608,723.4823,293.7855,728.2334,296.0847,721.3986,290.66,716.6475" style="stroke:#4A4A4A;stroke-width:1.0;"/></g><!--SRC=[VL9DQnH14BtthsZMooPc0dwSXN5tZJb4WxC87elPsgJ9RFUakzeOr9CNlGIFWXVlWk914GpwQpR1K_w2KzszOqSmB0nLzRhVU_kgIL63Sil8vTkJyu-VppvyN_vwTVxbn_BzpulJrx_VVJlxzFLcSUlYz8qGxa3f5YmifDk7cJbIUa_EeN6O8QMrvcXa6cFbjTib_p9mZ7Fm3TqpcXx00kMEggrnPaxo2Tn79OJIX7OEDSf7NckqyhcGydfN3sjwjY4j7gw9bqBK3JWd9tfFQSmFxXxJlj5tbUOcmbLjLKlS9_6fMg3nT0LlXVQfwYmmPM43FLS4xi2b4NKaN1vwz9YefXq-x9Ws94M9DGP6e6ji0iO4s-CmtKBYKKL0tlL0xu2n-8-sn_oDvu8ETf8kkaVN6ks2_AHBtGOvYq0uAobTitqpqRDLcIBOgVug9jueEWr-k2fhKYQakGl7ZO5PVYFA_tibz-gwl2_POsL7i6Z3Ghm5fizzb6qRStTn2NcsRRHmHO3_pRl21ciQLO-7MVlGK-jfhEmmH7_fEMrklhYJtg1OlOUYw4Tiazi4YVxCuCP0hXU57AmFmXP5M2LFLflB1cb_Vm00]--></g></svg>