<?xml version="1.0" encoding="us-ascii" standalone="no"?><svg xmlns="http://www.w3.org/2000/svg" xmlns:xlink="http://www.w3.org/1999/xlink" contentStyleType="text/css" height="907px" preserveAspectRatio="none" style="width:669px;height:907px;background:#FFFFFF;" version="1.1" viewBox="0 0 669 907" width="669px" zoomAndPan="magnify"><defs/><g><text fill="#000000" font-family="Microsoft YaHei" font-size="14" font-weight="bold" lengthAdjust="spacing" textLength="295" x="180" y="24.8135">&#26412;&#22320;&#37096;&#32626;&#22270;&#65288;Wails + Go + Python Engine&#65289;</text><!--cluster ???? (Windows)--><g id="cluster_&#29992;&#25143;&#30005;&#33041; (Windows)"><polygon fill="none" points="16,197.9775,26,187.9775,652,187.9775,652,880.9775,642,890.9775,16,890.9775,16,197.9775" style="stroke:#181818;stroke-width:1.0;"/><line style="stroke:#181818;stroke-width:1.0;" x1="642" x2="652" y1="197.9775" y2="187.9775"/><line style="stroke:#181818;stroke-width:1.0;" x1="16" x2="642" y1="197.9775" y2="197.9775"/><line style="stroke:#181818;stroke-width:1.0;" x1="642" x2="642" y1="197.9775" y2="890.9775"/><text fill="#000000" font-family="Microsoft YaHei" font-size="14" font-weight="bold" lengthAdjust="spacing" textLength="135" x="262.5" y="215.791">&#29992;&#25143;&#30005;&#33041; (Windows)</text></g><!--cluster Wails Desktop Process--><g id="cluster_Wails Desktop Process"><polygon fill="none" points="77,247.9775,87,237.9775,398,237.9775,398,498.9775,388,508.9775,77,508.9775,77,247.9775" style="stroke:#181818;stroke-width:1.0;"/><line style="stroke:#181818;stroke-width:1.0;" x1="388" x2="398" y1="247.9775" y2="237.9775"/><line style="stroke:#181818;stroke-width:1.0;" x1="77" x2="388" y1="247.9775" y2="247.9775"/><line style="stroke:#181818;stroke-width:1.0;" x1="388" x2="388" y1="247.9775" y2="508.9775"/><text fill="#000000" font-family="Microsoft YaHei" font-size="14" font-weight="bold" lengthAdjust="spacing" textLength="157" x="155" y="265.791">Wails Desktop Process</text></g><!--cluster Python Runtime--><g id="cluster_Python Runtime"><polygon fill="none" points="196,569.9775,206,559.9775,386,559.9775,386,692.9775,376,702.9775,196,702.9775,196,569.9775" style="stroke:#181818;stroke-width:1.0;"/><line style="stroke:#181818;stroke-width:1.0;" x1="376" x2="386" y1="569.9775" y2="559.9775"/><line style="stroke:#181818;stroke-width:1.0;" x1="196" x2="376" y1="569.9775" y2="569.9775"/><line style="stroke:#181818;stroke-width:1.0;" x1="376" x2="376" y1="569.9775" y2="702.9775"/><text fill="#000000" font-family="Microsoft YaHei" font-size="14" font-weight="bold" lengthAdjust="spacing" textLength="114" x="230" y="587.791">Python Runtime</text></g><!--cluster Project Workspace--><g id="cluster_Project Workspace"><path d="M42.5,753.9775 L173.5,753.9775 A3.75,3.75 0 0 1 176,756.4775 L183,778.4551 L625.5,778.4551 A2.5,2.5 0 0 1 628,780.9551 L628,864.4775 A2.5,2.5 0 0 1 625.5,866.9775 L42.5,866.9775 A2.5,2.5 0 0 1 40,864.4775 L40,756.4775 A2.5,2.5 0 0 1 42.5,753.9775 " fill="none" style="stroke:#000000;stroke-width:1.5;"/><line style="stroke:#000000;stroke-width:1.5;" x1="40" x2="183" y1="778.4551" y2="778.4551"/><text fill="#000000" font-family="Microsoft YaHei" font-size="14" font-weight="bold" lengthAdjust="spacing" textLength="130" x="44" y="770.791">Project Workspace</text></g><!--entity DIALOG--><g id="elem_DIALOG"><polygon fill="#F1F1F1" points="42.5,630.4775,52.5,620.4775,177.5,620.4775,177.5,658.9551,167.5,668.9551,42.5,668.9551,42.5,630.4775" style="stroke:#181818;stroke-width:0.5;"/><line style="stroke:#181818;stroke-width:0.5;" x1="167.5" x2="177.5" y1="630.4775" y2="620.4775"/><line style="stroke:#181818;stroke-width:0.5;" x1="42.5" x2="167.5" y1="630.4775" y2="630.4775"/><line style="stroke:#181818;stroke-width:0.5;" x1="167.5" x2="167.5" y1="630.4775" y2="668.9551"/><text fill="#000000" font-family="Microsoft YaHei" font-size="14" lengthAdjust="spacing" textLength="95" x="57.5" y="655.291">OS Dialog API</text></g><!--entity UI--><g id="elem_UI"><rect fill="#F1F1F1" height="66.9551" rx="2.5" ry="2.5" style="stroke:#181818;stroke-width:0.5;" width="246" x="114" y="279.9775"/><rect fill="#F1F1F1" height="10" style="stroke:#181818;stroke-width:0.5;" width="15" x="340" y="284.9775"/><rect fill="#F1F1F1" height="2" style="stroke:#181818;stroke-width:0.5;" width="4" x="338" y="286.9775"/><rect fill="#F1F1F1" height="2" style="stroke:#181818;stroke-width:0.5;" width="4" x="338" y="290.9775"/><text fill="#000000" font-family="Microsoft YaHei" font-size="14" lengthAdjust="spacing" textLength="79" x="129" y="314.791">Frontend UI</text><text fill="#000000" font-family="Microsoft YaHei" font-size="14" lengthAdjust="spacing" textLength="206" x="129" y="333.2686">index.html + main.js + style.css</text></g><!--entity GO--><g id="elem_GO"><rect fill="#F1F1F1" height="66.9551" rx="2.5" ry="2.5" style="stroke:#181818;stroke-width:0.5;" width="265" x="104.5" y="425.9775"/><rect fill="#F1F1F1" height="10" style="stroke:#181818;stroke-width:0.5;" width="15" x="349.5" y="430.9775"/><rect fill="#F1F1F1" height="2" style="stroke:#181818;stroke-width:0.5;" width="4" x="347.5" y="432.9775"/><rect fill="#F1F1F1" height="2" style="stroke:#181818;stroke-width:0.5;" width="4" x="347.5" y="436.9775"/><text fill="#000000" font-family="Microsoft YaHei" font-size="14" lengthAdjust="spacing" textLength="81" x="119.5" y="460.791">Go Backend</text><text fill="#000000" font-family="Microsoft YaHei" font-size="14" lengthAdjust="spacing" textLength="225" x="119.5" y="479.2686">Bindings + Task Service + Runner</text></g><!--entity PY--><g id="elem_PY"><rect fill="#F1F1F1" height="85.4326" rx="2.5" ry="2.5" style="stroke:#181818;stroke-width:0.5;" width="157" x="212.5" y="601.9775"/><rect fill="#F1F1F1" height="10" style="stroke:#181818;stroke-width:0.5;" width="15" x="349.5" y="606.9775"/><rect fill="#F1F1F1" height="2" style="stroke:#181818;stroke-width:0.5;" width="4" x="347.5" y="608.9775"/><rect fill="#F1F1F1" height="2" style="stroke:#181818;stroke-width:0.5;" width="4" x="347.5" y="612.9775"/><text fill="#000000" font-family="Microsoft YaHei" font-size="14" lengthAdjust="spacing" textLength="106" x="227.5" y="636.791">engine_main.py</text><text fill="#000000" font-family="Microsoft YaHei" font-size="14" lengthAdjust="spacing" textLength="117" x="227.5" y="655.2686">engine_service.py</text><text fill="#000000" font-family="Microsoft YaHei" font-size="14" lengthAdjust="spacing" textLength="107" x="227.5" y="673.7461">training_core.py</text></g><!--entity CSV--><g id="elem_CSV"><rect fill="#F1F1F1" height="59.9551" rx="2.5" ry="2.5" style="stroke:#181818;stroke-width:0.5;" width="86" x="56" y="790.9775"/><polygon fill="#F1F1F1" points="125,795.9775,125,809.9775,137,809.9775,137,801.9775,131,795.9775,125,795.9775" style="stroke:#181818;stroke-width:0.5;"/><line style="stroke:#181818;stroke-width:0.5;" x1="131" x2="131" y1="795.9775" y2="801.9775"/><line style="stroke:#181818;stroke-width:0.5;" x1="137" x2="131" y1="801.9775" y2="801.9775"/><text fill="#000000" font-family="Microsoft YaHei" font-size="14" lengthAdjust="spacing" textLength="56" x="66" y="818.791">&#36755;&#20837;&#25968;&#25454;</text><ellipse cx="71.5" cy="833.4326" fill="#000000" rx="2.5" ry="2.5" style="stroke:#000000;stroke-width:0.0;"/><text fill="#000000" font-family="Microsoft YaHei" font-size="14" lengthAdjust="spacing" textLength="23" x="78" y="837.2686">.csv</text></g><!--entity OUT--><g id="elem_OUT"><rect fill="#F1F1F1" height="59.9551" rx="2.5" ry="2.5" style="stroke:#181818;stroke-width:0.5;" width="228" x="177" y="790.9775"/><polygon fill="#F1F1F1" points="388,795.9775,388,809.9775,400,809.9775,400,801.9775,394,795.9775,388,795.9775" style="stroke:#181818;stroke-width:0.5;"/><line style="stroke:#181818;stroke-width:0.5;" x1="394" x2="394" y1="795.9775" y2="801.9775"/><line style="stroke:#181818;stroke-width:0.5;" x1="400" x2="394" y1="801.9775" y2="801.9775"/><text fill="#000000" font-family="Microsoft YaHei" font-size="14" lengthAdjust="spacing" textLength="56" x="187" y="818.791">&#36755;&#20986;&#30446;&#24405;</text><text fill="#000000" font-family="Microsoft YaHei" font-size="14" lengthAdjust="spacing" textLength="198" x="187" y="837.2686">summary + metrics + artifacts</text></g><!--entity LOG--><g id="elem_LOG"><rect fill="#F1F1F1" height="59.9551" rx="2.5" ry="2.5" style="stroke:#181818;stroke-width:0.5;" width="172" x="440" y="790.9775"/><polygon fill="#F1F1F1" points="595,795.9775,595,809.9775,607,809.9775,607,801.9775,601,795.9775,595,795.9775" style="stroke:#181818;stroke-width:0.5;"/><line style="stroke:#181818;stroke-width:0.5;" x1="601" x2="601" y1="795.9775" y2="801.9775"/><line style="stroke:#181818;stroke-width:0.5;" x1="607" x2="601" y1="801.9775" y2="801.9775"/><text fill="#000000" font-family="Microsoft YaHei" font-size="14" lengthAdjust="spacing" textLength="28" x="450" y="818.791">&#26085;&#24535;</text><text fill="#000000" font-family="Microsoft YaHei" font-size="14" lengthAdjust="spacing" textLength="142" x="450" y="837.2686">stderr structured logs</text></g><!--entity USER--><g id="elem_USER"><ellipse cx="237" cy="53.4775" fill="#F1F1F1" rx="8" ry="8" style="stroke:#181818;stroke-width:0.5;"/><path d="M237,61.4775 L237,88.4775 M224,69.4775 L250,69.4775 M237,88.4775 L224,103.4775 M237,88.4775 L250,103.4775 " fill="none" style="stroke:#181818;stroke-width:0.5;"/><text fill="#000000" font-family="Microsoft YaHei" font-size="14" lengthAdjust="spacing" textLength="28" x="223" y="119.791">&#29992;&#25143;</text></g><!--link USER to UI--><g id="link_USER_UI"><path d="M237,123.0575 C237,166.9475 237,232.3475 237,273.8175 " fill="none" id="USER-to-UI" style="stroke:#4A4A4A;stroke-width:1.0;"/><polygon fill="#4A4A4A" points="237,279.8175,241,270.8175,237,274.8175,233,270.8175,237,279.8175" style="stroke:#4A4A4A;stroke-width:1.0;"/><text fill="#000000" font-family="Microsoft YaHei" font-size="13" lengthAdjust="spacing" textLength="91" x="238" y="167.7329">&#37197;&#32622;&#21442;&#25968;&#19982;&#25805;&#20316;</text></g><!--link UI to GO--><g id="link_UI_GO"><path d="M153.84,347.0475 C142.33,355.1075 132.05,364.9775 125,376.9775 C113.37,396.7775 120.9213,409.9687 141.3313,422.7187 " fill="none" id="UI-to-GO" style="stroke:#4A4A4A;stroke-width:1.0;"/><polygon fill="#4A4A4A" points="146.42,425.8975,140.9062,417.7368,142.1794,423.2485,136.6677,424.5217,146.42,425.8975" style="stroke:#4A4A4A;stroke-width:1.0;"/><text fill="#000000" font-family="Microsoft YaHei" font-size="13" lengthAdjust="spacing" textLength="93" x="126" y="391.7329">Wails Bind &#35843;&#29992;</text></g><!--link GO to UI--><g id="link_GO_UI"><path d="M237,425.9275 C237,402.3975 237,376.7175 237,353.1575 " fill="none" id="GO-to-UI" style="stroke:#4A4A4A;stroke-width:1.0;"/><polygon fill="#4A4A4A" points="237,347.1575,233,356.1575,237,352.1575,241,356.1575,237,347.1575" style="stroke:#4A4A4A;stroke-width:1.0;"/><text fill="#000000" font-family="Microsoft YaHei" font-size="13" lengthAdjust="spacing" textLength="117" x="238" y="391.7329">&#36820;&#22238;&#20219;&#21153;&#29366;&#24577;&#19982;&#32467;&#26524;</text></g><!--link GO to DIALOG--><g id="link_GO_DIALOG"><path d="M193.21,493.1175 C182.41,502.5675 171.52,513.4675 163,524.9775 C141.01,554.6875 127.3326,589.2639 118.9826,614.3839 " fill="none" id="GO-to-DIALOG" style="stroke:#4A4A4A;stroke-width:1.0;"/><polygon fill="#4A4A4A" points="117.09,620.0775,123.7247,612.7987,118.6672,615.3328,116.1331,610.2753,117.09,620.0775" style="stroke:#4A4A4A;stroke-width:1.0;"/><text fill="#000000" font-family="Microsoft YaHei" font-size="13" lengthAdjust="spacing" textLength="84" x="164" y="539.7329">&#36873;&#25321;&#25991;&#20214;/&#30446;&#24405;</text></g><!--link GO to PY--><g id="link_GO_PY"><path d="M246.65,493.1975 C255.6,523.5175 267.2614,563.033 276.9814,595.963 " fill="none" id="GO-to-PY" style="stroke:#4A4A4A;stroke-width:1.0;"/><polygon fill="#4A4A4A" points="278.68,601.7175,279.9685,591.9533,277.2645,596.9221,272.2958,594.2181,278.68,601.7175" style="stroke:#4A4A4A;stroke-width:1.0;"/><text fill="#000000" font-family="Microsoft YaHei" font-size="13" lengthAdjust="spacing" textLength="197" x="261" y="539.7329">exec.CommandContext + JSON</text></g><!--link PY to CSV--><g id="link_PY_CSV"><path d="M239.77,687.2075 C229.66,695.2175 219.07,703.4475 209,710.9775 C187.28,727.2275 178.85,727.4875 159,745.9775 C144.48,759.5075 134.015,771.8364 123.135,786.1864 " fill="none" id="PY-to-CSV" style="stroke:#4A4A4A;stroke-width:1.0;"/><polygon fill="#4A4A4A" points="119.51,790.9675,128.1349,786.2125,122.5308,786.9833,121.7601,781.3792,119.51,790.9675" style="stroke:#4A4A4A;stroke-width:1.0;"/><text fill="#000000" font-family="Microsoft YaHei" font-size="13" lengthAdjust="spacing" textLength="52" x="198" y="733.7329">&#35835;&#21462;&#25968;&#25454;</text></g><!--link PY to OUT--><g id="link_PY_OUT"><path d="M291,687.2775 C291,719.2375 291,756.4875 291,784.7975 " fill="none" id="PY-to-OUT" style="stroke:#4A4A4A;stroke-width:1.0;"/><polygon fill="#4A4A4A" points="291,790.7975,295,781.7975,291,785.7975,287,781.7975,291,790.7975" style="stroke:#4A4A4A;stroke-width:1.0;"/><text fill="#000000" font-family="Microsoft YaHei" font-size="13" lengthAdjust="spacing" textLength="78" x="292" y="733.7329">&#20889;&#20837;&#32467;&#26524;&#20135;&#29289;</text></g><!--link PY to LOG--><g id="link_PY_LOG"><path d="M346.99,687.0575 C390.03,719.0075 443.5728,758.7706 481.7928,787.1506 " fill="none" id="PY-to-LOG" style="stroke:#4A4A4A;stroke-width:1.0;"/><polygon fill="#4A4A4A" points="486.61,790.7275,481.7689,782.1506,482.5957,787.7467,476.9996,788.5735,486.61,790.7275" style="stroke:#4A4A4A;stroke-width:1.0;"/><text fill="#000000" font-family="Microsoft YaHei" font-size="13" lengthAdjust="spacing" textLength="91" x="416" y="733.7329">&#36755;&#20986;&#32467;&#26500;&#21270;&#26085;&#24535;</text></g><!--SRC=[RL9TInj157tVNt59N_g1wKkV-b28YQQMrWIZ5I4WmsQYQtPdmin43QLWgrPZcqhnYs8G-Y1LA5OAjSKO_JFPtVZaN-YTdKIioCB0pZdtt7lE7UKebqBG-E4tZYyN3yBMBt_t_EfiTPmuheH7aEPuPAjgcZCOO5CEerTdDSkI9OULYI0Uo6bIu7CEcu8YSIMzWII4u7D9xd81zvuaz7S3JD4YgRXga3CrJ3mAhnnRSCcB2YR8S-fO5kC52h5myo1O_HDk_kuiVO7xumx3Nl913DvO08PX1arHMLAy35d1RIgb8G3Ot2jpHfc2sA30LfGLO6mepr27piUdbUUYEuyuB3wZpKfLTMdSrlL48l6s1eRHJ-mIgkHPFsgWQrqsIcG9SbJCEZR5tv4AOrH44kaCIhorheVj1eaCvNZqZYbf5F5aD5AvccVTVsd4eoib4CJEapON-YPgb9tulr4c1oc7k7mA4jcXY94QIhpCf3MZoDq25JYCu3FKLZ3EHKcMYNqz3n7AAH94Oftp3NzvFzWw3kf7UVOGevcDn9AvrtSmLqx3tIE_jPLdik9vH5Hrk5G9nzOfzRWctCpOw2s5O6VVlzZ1MeNJ2To5gDYg8cW1q8OfqWQqJJIA9VYkkk_3h2itC69P-eI-lcUuFNWAbylri7Nahxz72-s_duEDUhlLi13IZ7G66URvw6L2vtWHvIoyrgZ9Isiir8AFXy7sIhjvyjWOx76o4uZJUMh7anmDiq9Ilx5vXMvVv3B35kAQXcaXh_EpwQzlconx2AQ0YF_XAwOSDZU2lKRxz7jOE-pXPe9kjXfVyZzjcw1wCqG-EnUR_kvUkzdqrxw5QoV1mZjqQmIjVm00]--></g></svg>