<?xml version="1.0" encoding="us-ascii" standalone="no"?><svg xmlns="http://www.w3.org/2000/svg" xmlns:xlink="http://www.w3.org/1999/xlink" contentStyleType="text/css" height="1522px" preserveAspectRatio="none" style="width:1261px;height:1522px;background:#FFFFFF;" version="1.1" viewBox="0 0 1261 1522" width="1261px" zoomAndPan="magnify"><defs/><g><text fill="#000000" font-family="Microsoft YaHei" font-size="14" font-weight="bold" lengthAdjust="spacing" textLength="370" x="441.5" y="29.8135">&#38454;&#27573;2&#21069;&#21518;&#23545;&#27604;&#26102;&#24207;&#22270;&#65288;&#21069;&#31471;&#30452;&#36830;Python -&gt; Go&#32534;&#25490;&#25176;&#31649;&#65289;</text><rect fill="none" height="112.6309" style="stroke:#000000;stroke-width:1.5;" width="1234" x="10" y="974.5332"/><rect fill="none" height="302.9375" style="stroke:#000000;stroke-width:1.5;" width="1234" x="10" y="1101.1641"/><line style="stroke:#181818;stroke-width:0.5;stroke-dasharray:5.0,5.0;" x1="55" x2="55" y1="141.4326" y2="1421.1016"/><line style="stroke:#181818;stroke-width:0.5;stroke-dasharray:5.0,5.0;" x1="243" x2="243" y1="141.4326" y2="1421.1016"/><line style="stroke:#181818;stroke-width:0.5;stroke-dasharray:5.0,5.0;" x1="439" x2="439" y1="141.4326" y2="1421.1016"/><line style="stroke:#181818;stroke-width:0.5;stroke-dasharray:5.0,5.0;" x1="636.5" x2="636.5" y1="141.4326" y2="1421.1016"/><line style="stroke:#181818;stroke-width:0.5;stroke-dasharray:5.0,5.0;" x1="748" x2="748" y1="141.4326" y2="1421.1016"/><line style="stroke:#181818;stroke-width:0.5;stroke-dasharray:5.0,5.0;" x1="897.5" x2="897.5" y1="141.4326" y2="1421.1016"/><line style="stroke:#181818;stroke-width:0.5;stroke-dasharray:5.0,5.0;" x1="1081" x2="1081" y1="141.4326" y2="1421.1016"/><line style="stroke:#181818;stroke-width:0.5;stroke-dasharray:5.0,5.0;" x1="1192" x2="1192" y1="141.4326" y2="1421.1016"/><text fill="#000000" font-family="Microsoft YaHei" font-size="14" lengthAdjust="spacing" textLength="42" x="31" y="119.291">&#35843;&#29992;&#26041;</text><text fill="#000000" font-family="Microsoft YaHei" font-size="14" lengthAdjust="spacing" textLength="64" x="20" y="137.7686">(&#21069;&#31471;/CLI)</text><ellipse cx="55" cy="52.9775" fill="#E2E2F0" rx="8" ry="8" style="stroke:#181818;stroke-width:0.5;"/><path d="M55,60.9775 L55,87.9775 M42,68.9775 L68,68.9775 M55,87.9775 L42,102.9775 M55,87.9775 L68,102.9775 " fill="none" style="stroke:#181818;stroke-width:0.5;"/><text fill="#000000" font-family="Microsoft YaHei" font-size="14" lengthAdjust="spacing" textLength="42" x="31" y="1434.915">&#35843;&#29992;&#26041;</text><text fill="#000000" font-family="Microsoft YaHei" font-size="14" lengthAdjust="spacing" textLength="64" x="20" y="1453.3926">(&#21069;&#31471;/CLI)</text><ellipse cx="55" cy="1465.5566" fill="#E2E2F0" rx="8" ry="8" style="stroke:#181818;stroke-width:0.5;"/><path d="M55,1473.5566 L55,1500.5566 M42,1481.5566 L68,1481.5566 M55,1500.5566 L42,1515.5566 M55,1500.5566 L68,1515.5566 " fill="none" style="stroke:#181818;stroke-width:0.5;"/><rect fill="#E2E2F0" height="50.9551" rx="2.5" ry="2.5" style="stroke:#181818;stroke-width:0.5;" width="120" x="183" y="89.4775"/><text fill="#000000" font-family="Microsoft YaHei" font-size="14" lengthAdjust="spacing" textLength="99" x="193.5" y="111.291">Python Engine</text><text fill="#000000" font-family="Microsoft YaHei" font-size="14" lengthAdjust="spacing" textLength="106" x="190" y="129.7686">engine_main.py</text><rect fill="#E2E2F0" height="50.9551" rx="2.5" ry="2.5" style="stroke:#181818;stroke-width:0.5;" width="120" x="183" y="1420.1016"/><text fill="#000000" font-family="Microsoft YaHei" font-size="14" lengthAdjust="spacing" textLength="99" x="193.5" y="1441.915">Python Engine</text><text fill="#000000" font-family="Microsoft YaHei" font-size="14" lengthAdjust="spacing" textLength="106" x="190" y="1460.3926">engine_main.py</text><rect fill="#E2E2F0" height="50.9551" rx="2.5" ry="2.5" style="stroke:#181818;stroke-width:0.5;" width="252" x="313" y="89.4775"/><text fill="#000000" font-family="Microsoft YaHei" font-size="14" lengthAdjust="spacing" textLength="104" x="387" y="111.291">Go Task Service</text><text fill="#000000" font-family="Microsoft YaHei" font-size="14" lengthAdjust="spacing" textLength="238" x="320" y="129.7686">RunTask/CancelTask/GetTaskStatus</text><rect fill="#E2E2F0" height="50.9551" rx="2.5" ry="2.5" style="stroke:#181818;stroke-width:0.5;" width="252" x="313" y="1420.1016"/><text fill="#000000" font-family="Microsoft YaHei" font-size="14" lengthAdjust="spacing" textLength="104" x="387" y="1441.915">Go Task Service</text><text fill="#000000" font-family="Microsoft YaHei" font-size="14" lengthAdjust="spacing" textLength="238" x="320" y="1460.3926">RunTask/CancelTask/GetTaskStatus</text><rect fill="#E2E2F0" height="50.9551" rx="2.5" ry="2.5" style="stroke:#181818;stroke-width:0.5;" width="93" x="590.5" y="89.4775"/><text fill="#000000" font-family="Microsoft YaHei" font-size="14" lengthAdjust="spacing" textLength="79" x="597.5" y="111.291">Task Queue</text><text fill="#000000" font-family="Microsoft YaHei" font-size="14" lengthAdjust="spacing" textLength="79" x="597.5" y="129.7686">chan taskID</text><rect fill="#E2E2F0" height="50.9551" rx="2.5" ry="2.5" style="stroke:#181818;stroke-width:0.5;" width="93" x="590.5" y="1420.1016"/><text fill="#000000" font-family="Microsoft YaHei" font-size="14" lengthAdjust="spacing" textLength="79" x="597.5" y="1441.915">Task Queue</text><text fill="#000000" font-family="Microsoft YaHei" font-size="14" lengthAdjust="spacing" textLength="79" x="597.5" y="1460.3926">chan taskID</text><rect fill="#E2E2F0" height="50.9551" rx="2.5" ry="2.5" style="stroke:#181818;stroke-width:0.5;" width="98" x="699" y="89.4775"/><text fill="#000000" font-family="Microsoft YaHei" font-size="14" lengthAdjust="spacing" textLength="84" x="706" y="111.291">Worker Pool</text><text fill="#000000" font-family="Microsoft YaHei" font-size="14" lengthAdjust="spacing" textLength="74" x="711" y="129.7686">(&#40664;&#35748;3&#24182;&#21457;)</text><rect fill="#E2E2F0" height="50.9551" rx="2.5" ry="2.5" style="stroke:#181818;stroke-width:0.5;" width="98" x="699" y="1420.1016"/><text fill="#000000" font-family="Microsoft YaHei" font-size="14" lengthAdjust="spacing" textLength="84" x="706" y="1441.915">Worker Pool</text><text fill="#000000" font-family="Microsoft YaHei" font-size="14" lengthAdjust="spacing" textLength="74" x="711" y="1460.3926">(&#40664;&#35748;3&#24182;&#21457;)</text><rect fill="#E2E2F0" height="50.9551" rx="2.5" ry="2.5" style="stroke:#181818;stroke-width:0.5;" width="169" x="813.5" y="89.4775"/><text fill="#000000" font-family="Microsoft YaHei" font-size="14" lengthAdjust="spacing" textLength="72" x="862" y="111.291">Go Runner</text><text fill="#000000" font-family="Microsoft YaHei" font-size="14" lengthAdjust="spacing" textLength="155" x="820.5" y="129.7686">exec.CommandContext</text><rect fill="#E2E2F0" height="50.9551" rx="2.5" ry="2.5" style="stroke:#181818;stroke-width:0.5;" width="169" x="813.5" y="1420.1016"/><text fill="#000000" font-family="Microsoft YaHei" font-size="14" lengthAdjust="spacing" textLength="72" x="862" y="1441.915">Go Runner</text><text fill="#000000" font-family="Microsoft YaHei" font-size="14" lengthAdjust="spacing" textLength="155" x="820.5" y="1460.3926">exec.CommandContext</text><rect fill="#E2E2F0" height="50.9551" rx="2.5" ry="2.5" style="stroke:#181818;stroke-width:0.5;" width="120" x="1021" y="89.4775"/><text fill="#000000" font-family="Microsoft YaHei" font-size="14" lengthAdjust="spacing" textLength="99" x="1031.5" y="111.291">Python Engine</text><text fill="#000000" font-family="Microsoft YaHei" font-size="14" lengthAdjust="spacing" textLength="106" x="1028" y="129.7686">engine_main.py</text><rect fill="#E2E2F0" height="50.9551" rx="2.5" ry="2.5" style="stroke:#181818;stroke-width:0.5;" width="120" x="1021" y="1420.1016"/><text fill="#000000" font-family="Microsoft YaHei" font-size="14" lengthAdjust="spacing" textLength="99" x="1031.5" y="1441.915">Python Engine</text><text fill="#000000" font-family="Microsoft YaHei" font-size="14" lengthAdjust="spacing" textLength="106" x="1028" y="1460.3926">engine_main.py</text><rect fill="#E2E2F0" height="50.9551" rx="2.5" ry="2.5" style="stroke:#181818;stroke-width:0.5;" width="83" x="1151" y="89.4775"/><text fill="#000000" font-family="Microsoft YaHei" font-size="14" lengthAdjust="spacing" textLength="69" x="1158" y="111.291">Task Store</text><text fill="#000000" font-family="Microsoft YaHei" font-size="14" lengthAdjust="spacing" textLength="56" x="1164.5" y="129.7686">&#29366;&#24577;&#24555;&#29031;</text><rect fill="#E2E2F0" height="50.9551" rx="2.5" ry="2.5" style="stroke:#181818;stroke-width:0.5;" width="83" x="1151" y="1420.1016"/><text fill="#000000" font-family="Microsoft YaHei" font-size="14" lengthAdjust="spacing" textLength="69" x="1158" y="1441.915">Task Store</text><text fill="#000000" font-family="Microsoft YaHei" font-size="14" lengthAdjust="spacing" textLength="56" x="1164.5" y="1460.3926">&#29366;&#24577;&#24555;&#29031;</text><rect fill="#EEEEEE" height="3" style="stroke:#EEEEEE;stroke-width:1.0;" width="1254" x="0" y="173.0115"/><line style="stroke:#000000;stroke-width:1.0;" x1="0" x2="1254" y1="173.0115" y2="173.0115"/><line style="stroke:#000000;stroke-width:1.0;" x1="0" x2="1254" y1="176.0115" y2="176.0115"/><rect fill="#EEEEEE" height="25.1577" style="stroke:#000000;stroke-width:2.0;" width="196" x="529" y="161.4326"/><text fill="#000000" font-family="Microsoft YaHei" font-size="13" font-weight="bold" lengthAdjust="spacing" textLength="178" x="535" y="179.188">Before&#65288;&#38454;&#27573;1&#21518;&#12289;&#38454;&#27573;2&#21069;&#65289;</text><polygon fill="#4A4A4A" points="231,215.748,241,219.748,231,223.748,235,219.748" style="stroke:#4A4A4A;stroke-width:1.0;"/><line style="stroke:#4A4A4A;stroke-width:1.0;" x1="55" x2="237" y1="219.748" y2="219.748"/><text fill="#000000" font-family="Microsoft YaHei" font-size="13" font-weight="bold" lengthAdjust="spacing" textLength="8" x="62" y="214.3457">1</text><text fill="#000000" font-family="Microsoft YaHei" font-size="13" lengthAdjust="spacing" textLength="152" x="74" y="214.3457">&#30452;&#25509;&#21551;&#21160;&#36827;&#31243;&#24182;&#25552;&#20132;JSON</text><polygon fill="#4A4A4A" points="66,246.9058,56,250.9058,66,254.9058,62,250.9058" style="stroke:#4A4A4A;stroke-width:1.0;"/><line style="stroke:#4A4A4A;stroke-width:1.0;stroke-dasharray:2.0,2.0;" x1="60" x2="242" y1="250.9058" y2="250.9058"/><text fill="#000000" font-family="Microsoft YaHei" font-size="13" font-weight="bold" lengthAdjust="spacing" textLength="8" x="72" y="245.5034">2</text><text fill="#000000" font-family="Microsoft YaHei" font-size="13" lengthAdjust="spacing" textLength="110" x="84" y="245.5034">&#36820;&#22238;&#32467;&#26524;/&#38169;&#35823;&#25991;&#26412;</text><path d="M10,263.9058 L10,341.9058 L288,341.9058 L288,273.9058 L278,263.9058 L10,263.9058 " fill="#FEFFDD" style="stroke:#181818;stroke-width:0.5;"/><path d="M278,263.9058 L278,273.9058 L288,273.9058 L278,263.9058 " fill="#FEFFDD" style="stroke:#181818;stroke-width:0.5;"/><text fill="#000000" font-family="Microsoft YaHei" font-size="13" lengthAdjust="spacing" textLength="39" x="51.5" y="282.6611">&#38382;&#39064;&#65306;</text><text fill="#000000" font-family="Microsoft YaHei" font-size="13" lengthAdjust="spacing" textLength="172" x="51.5" y="299.8188">1) &#29983;&#21629;&#21608;&#26399;&#30001;&#35843;&#29992;&#26041;&#33258;&#34892;&#20828;&#24213;</text><text fill="#000000" font-family="Microsoft YaHei" font-size="13" lengthAdjust="spacing" textLength="186" x="51.5" y="316.9766">2) &#26080;&#32479;&#19968;&#20219;&#21153;ID&#19982;&#29366;&#24577;&#26597;&#35810;&#25509;&#21475;</text><text fill="#000000" font-family="Microsoft YaHei" font-size="13" lengthAdjust="spacing" textLength="172" x="51.5" y="334.1343">3) &#24182;&#21457;&#12289;&#21462;&#28040;&#12289;&#36229;&#26102;&#25511;&#21046;&#20998;&#25955;</text><rect fill="#EEEEEE" height="3" style="stroke:#EEEEEE;stroke-width:1.0;" width="1254" x="0" y="369.1155"/><line style="stroke:#000000;stroke-width:1.0;" x1="0" x2="1254" y1="369.1155" y2="369.1155"/><line style="stroke:#000000;stroke-width:1.0;" x1="0" x2="1254" y1="372.1155" y2="372.1155"/><rect fill="#EEEEEE" height="25.1577" style="stroke:#000000;stroke-width:2.0;" width="255" x="499.5" y="357.5366"/><text fill="#000000" font-family="Microsoft YaHei" font-size="13" font-weight="bold" lengthAdjust="spacing" textLength="237" x="505.5" y="375.292">After Stage 2&#65288;Go&#36127;&#36131;&#20219;&#21153;&#29983;&#21629;&#21608;&#26399;&#65289;</text><polygon fill="#4A4A4A" points="427,411.8521,437,415.8521,427,419.8521,431,415.8521" style="stroke:#4A4A4A;stroke-width:1.0;"/><line style="stroke:#4A4A4A;stroke-width:1.0;" x1="55" x2="433" y1="415.8521" y2="415.8521"/><text fill="#000000" font-family="Microsoft YaHei" font-size="13" font-weight="bold" lengthAdjust="spacing" textLength="8" x="62" y="410.4497">3</text><text fill="#000000" font-family="Microsoft YaHei" font-size="13" lengthAdjust="spacing" textLength="183" x="74" y="410.4497">RunTask request with timeout</text><polygon fill="#4A4A4A" points="1180.5,443.0098,1190.5,447.0098,1180.5,451.0098,1184.5,447.0098" style="stroke:#4A4A4A;stroke-width:1.0;"/><line style="stroke:#4A4A4A;stroke-width:1.0;" x1="439" x2="1186.5" y1="447.0098" y2="447.0098"/><text fill="#000000" font-family="Microsoft YaHei" font-size="13" font-weight="bold" lengthAdjust="spacing" textLength="8" x="446" y="441.6074">4</text><text fill="#000000" font-family="Microsoft YaHei" font-size="13" lengthAdjust="spacing" textLength="162" x="458" y="441.6074">create task status pending</text><polygon fill="#4A4A4A" points="625,474.1675,635,478.1675,625,482.1675,629,478.1675" style="stroke:#4A4A4A;stroke-width:1.0;"/><line style="stroke:#4A4A4A;stroke-width:1.0;" x1="439" x2="631" y1="478.1675" y2="478.1675"/><text fill="#000000" font-family="Microsoft YaHei" font-size="13" font-weight="bold" lengthAdjust="spacing" textLength="8" x="446" y="472.7651">5</text><text fill="#000000" font-family="Microsoft YaHei" font-size="13" lengthAdjust="spacing" textLength="96" x="458" y="472.7651">enqueue taskID</text><polygon fill="#4A4A4A" points="66,505.3252,56,509.3252,66,513.3252,62,509.3252" style="stroke:#4A4A4A;stroke-width:1.0;"/><line style="stroke:#4A4A4A;stroke-width:1.0;stroke-dasharray:2.0,2.0;" x1="60" x2="438" y1="509.3252" y2="509.3252"/><text fill="#000000" font-family="Microsoft YaHei" font-size="13" font-weight="bold" lengthAdjust="spacing" textLength="8" x="72" y="503.9229">6</text><text fill="#000000" font-family="Microsoft YaHei" font-size="13" lengthAdjust="spacing" textLength="81" x="84" y="503.9229">return taskID</text><rect fill="#EEEEEE" height="3" style="stroke:#EEEEEE;stroke-width:1.0;" width="1254" x="0" y="538.9041"/><line style="stroke:#000000;stroke-width:1.0;" x1="0" x2="1254" y1="538.9041" y2="538.9041"/><line style="stroke:#000000;stroke-width:1.0;" x1="0" x2="1254" y1="541.9041" y2="541.9041"/><rect fill="#EEEEEE" height="25.1577" style="stroke:#000000;stroke-width:2.0;" width="122" x="566" y="527.3252"/><text fill="#000000" font-family="Microsoft YaHei" font-size="13" font-weight="bold" lengthAdjust="spacing" textLength="104" x="572" y="545.0806">&#24182;&#21457;&#25191;&#34892;&#65288;&#36923;&#36753;&#65289;</text><polygon fill="#4A4A4A" points="736,581.6406,746,585.6406,736,589.6406,740,585.6406" style="stroke:#4A4A4A;stroke-width:1.0;"/><line style="stroke:#4A4A4A;stroke-width:1.0;" x1="637" x2="742" y1="585.6406" y2="585.6406"/><text fill="#000000" font-family="Microsoft YaHei" font-size="13" font-weight="bold" lengthAdjust="spacing" textLength="8" x="644" y="580.2383">7</text><text fill="#000000" font-family="Microsoft YaHei" font-size="13" lengthAdjust="spacing" textLength="67" x="656" y="580.2383">pop task-1</text><polygon fill="#4A4A4A" points="1180.5,612.7983,1190.5,616.7983,1180.5,620.7983,1184.5,616.7983" style="stroke:#4A4A4A;stroke-width:1.0;"/><line style="stroke:#4A4A4A;stroke-width:1.0;" x1="748" x2="1186.5" y1="616.7983" y2="616.7983"/><text fill="#000000" font-family="Microsoft YaHei" font-size="13" font-weight="bold" lengthAdjust="spacing" textLength="8" x="755" y="611.396">8</text><text fill="#000000" font-family="Microsoft YaHei" font-size="13" lengthAdjust="spacing" textLength="126" x="767" y="611.396">mark running task-1</text><polygon fill="#4A4A4A" points="886,643.9561,896,647.9561,886,651.9561,890,647.9561" style="stroke:#4A4A4A;stroke-width:1.0;"/><line style="stroke:#4A4A4A;stroke-width:1.0;" x1="748" x2="892" y1="647.9561" y2="647.9561"/><text fill="#000000" font-family="Microsoft YaHei" font-size="13" font-weight="bold" lengthAdjust="spacing" textLength="8" x="755" y="642.5537">9</text><text fill="#000000" font-family="Microsoft YaHei" font-size="13" lengthAdjust="spacing" textLength="53" x="767" y="642.5537">run req1</text><polygon fill="#4A4A4A" points="736,675.1138,746,679.1138,736,683.1138,740,679.1138" style="stroke:#4A4A4A;stroke-width:1.0;"/><line style="stroke:#4A4A4A;stroke-width:1.0;" x1="637" x2="742" y1="679.1138" y2="679.1138"/><text fill="#000000" font-family="Microsoft YaHei" font-size="13" font-weight="bold" lengthAdjust="spacing" textLength="16" x="644" y="673.7114">10</text><text fill="#000000" font-family="Microsoft YaHei" font-size="13" lengthAdjust="spacing" textLength="67" x="664" y="673.7114">pop task-2</text><polygon fill="#4A4A4A" points="1180.5,706.2715,1190.5,710.2715,1180.5,714.2715,1184.5,710.2715" style="stroke:#4A4A4A;stroke-width:1.0;"/><line style="stroke:#4A4A4A;stroke-width:1.0;" x1="748" x2="1186.5" y1="710.2715" y2="710.2715"/><text fill="#000000" font-family="Microsoft YaHei" font-size="13" font-weight="bold" lengthAdjust="spacing" textLength="16" x="755" y="704.8691">11</text><text fill="#000000" font-family="Microsoft YaHei" font-size="13" lengthAdjust="spacing" textLength="126" x="775" y="704.8691">mark running task-2</text><polygon fill="#4A4A4A" points="886,737.4292,896,741.4292,886,745.4292,890,741.4292" style="stroke:#4A4A4A;stroke-width:1.0;"/><line style="stroke:#4A4A4A;stroke-width:1.0;" x1="748" x2="892" y1="741.4292" y2="741.4292"/><text fill="#000000" font-family="Microsoft YaHei" font-size="13" font-weight="bold" lengthAdjust="spacing" textLength="16" x="755" y="736.0269">12</text><text fill="#000000" font-family="Microsoft YaHei" font-size="13" lengthAdjust="spacing" textLength="53" x="775" y="736.0269">run req2</text><polygon fill="#4A4A4A" points="736,768.5869,746,772.5869,736,776.5869,740,772.5869" style="stroke:#4A4A4A;stroke-width:1.0;"/><line style="stroke:#4A4A4A;stroke-width:1.0;" x1="637" x2="742" y1="772.5869" y2="772.5869"/><text fill="#000000" font-family="Microsoft YaHei" font-size="13" font-weight="bold" lengthAdjust="spacing" textLength="16" x="644" y="767.1846">13</text><text fill="#000000" font-family="Microsoft YaHei" font-size="13" lengthAdjust="spacing" textLength="67" x="664" y="767.1846">pop task-3</text><polygon fill="#4A4A4A" points="1180.5,799.7446,1190.5,803.7446,1180.5,807.7446,1184.5,803.7446" style="stroke:#4A4A4A;stroke-width:1.0;"/><line style="stroke:#4A4A4A;stroke-width:1.0;" x1="748" x2="1186.5" y1="803.7446" y2="803.7446"/><text fill="#000000" font-family="Microsoft YaHei" font-size="13" font-weight="bold" lengthAdjust="spacing" textLength="16" x="755" y="798.3423">14</text><text fill="#000000" font-family="Microsoft YaHei" font-size="13" lengthAdjust="spacing" textLength="126" x="775" y="798.3423">mark running task-3</text><polygon fill="#4A4A4A" points="886,830.9023,896,834.9023,886,838.9023,890,834.9023" style="stroke:#4A4A4A;stroke-width:1.0;"/><line style="stroke:#4A4A4A;stroke-width:1.0;" x1="748" x2="892" y1="834.9023" y2="834.9023"/><text fill="#000000" font-family="Microsoft YaHei" font-size="13" font-weight="bold" lengthAdjust="spacing" textLength="16" x="755" y="829.5">15</text><text fill="#000000" font-family="Microsoft YaHei" font-size="13" lengthAdjust="spacing" textLength="53" x="775" y="829.5">run req3</text><polygon fill="#4A4A4A" points="1069,862.0601,1079,866.0601,1069,870.0601,1073,866.0601" style="stroke:#4A4A4A;stroke-width:1.0;"/><line style="stroke:#4A4A4A;stroke-width:1.0;" x1="898" x2="1075" y1="866.0601" y2="866.0601"/><text fill="#000000" font-family="Microsoft YaHei" font-size="13" font-weight="bold" lengthAdjust="spacing" textLength="16" x="905" y="860.6577">16</text><text fill="#000000" font-family="Microsoft YaHei" font-size="13" lengthAdjust="spacing" textLength="139" x="925" y="860.6577">&#21551;&#21160;&#23376;&#36827;&#31243;&#24182;&#20889;&#20837;JSON</text><polygon fill="#4A4A4A" points="909,893.2178,899,897.2178,909,901.2178,905,897.2178" style="stroke:#4A4A4A;stroke-width:1.0;"/><line style="stroke:#4A4A4A;stroke-width:1.0;stroke-dasharray:2.0,2.0;" x1="903" x2="1080" y1="897.2178" y2="897.2178"/><text fill="#000000" font-family="Microsoft YaHei" font-size="13" font-weight="bold" lengthAdjust="spacing" textLength="16" x="915" y="891.8154">17</text><text fill="#000000" font-family="Microsoft YaHei" font-size="13" lengthAdjust="spacing" textLength="100" x="935" y="891.8154">&#36820;&#22238;JSON&#19982;&#26085;&#24535;</text><polygon fill="#4A4A4A" points="759,924.3755,749,928.3755,759,932.3755,755,928.3755" style="stroke:#4A4A4A;stroke-width:1.0;"/><line style="stroke:#4A4A4A;stroke-width:1.0;stroke-dasharray:2.0,2.0;" x1="753" x2="897" y1="928.3755" y2="928.3755"/><text fill="#000000" font-family="Microsoft YaHei" font-size="13" font-weight="bold" lengthAdjust="spacing" textLength="16" x="765" y="922.9731">18</text><text fill="#000000" font-family="Microsoft YaHei" font-size="13" lengthAdjust="spacing" textLength="106" x="785" y="922.9731">response or error</text><polygon fill="#4A4A4A" points="1180.5,955.5332,1190.5,959.5332,1180.5,963.5332,1184.5,959.5332" style="stroke:#4A4A4A;stroke-width:1.0;"/><line style="stroke:#4A4A4A;stroke-width:1.0;" x1="748" x2="1186.5" y1="959.5332" y2="959.5332"/><text fill="#000000" font-family="Microsoft YaHei" font-size="13" font-weight="bold" lengthAdjust="spacing" textLength="16" x="755" y="954.1309">19</text><text fill="#000000" font-family="Microsoft YaHei" font-size="13" lengthAdjust="spacing" textLength="282" x="775" y="954.1309">&#26356;&#26032;&#32456;&#24577; succeeded failed timed_out canceled</text><path d="M10,974.5332 L86,974.5332 L86,983.6909 L76,993.6909 L10,993.6909 L10,974.5332 " fill="#EEEEEE" style="stroke:#000000;stroke-width:1.5;"/><rect fill="none" height="112.6309" style="stroke:#000000;stroke-width:1.5;" width="1234" x="10" y="974.5332"/><text fill="#000000" font-family="Microsoft YaHei" font-size="13" font-weight="bold" lengthAdjust="spacing" textLength="31" x="25" y="989.2886">loop</text><text fill="#000000" font-family="Microsoft YaHei" font-size="11" font-weight="bold" lengthAdjust="spacing" textLength="52" x="101" y="988.1724">[&#36718;&#35810;&#36827;&#24230;]</text><polygon fill="#4A4A4A" points="427,1012.8486,437,1016.8486,427,1020.8486,431,1016.8486" style="stroke:#4A4A4A;stroke-width:1.0;"/><line style="stroke:#4A4A4A;stroke-width:1.0;" x1="55" x2="433" y1="1016.8486" y2="1016.8486"/><text fill="#000000" font-family="Microsoft YaHei" font-size="13" font-weight="bold" lengthAdjust="spacing" textLength="16" x="62" y="1011.4463">20</text><text fill="#000000" font-family="Microsoft YaHei" font-size="13" lengthAdjust="spacing" textLength="131" x="82" y="1011.4463">GetTaskStatus taskID</text><polygon fill="#4A4A4A" points="1180.5,1044.0063,1190.5,1048.0063,1180.5,1052.0063,1184.5,1048.0063" style="stroke:#4A4A4A;stroke-width:1.0;"/><line style="stroke:#4A4A4A;stroke-width:1.0;" x1="439" x2="1186.5" y1="1048.0063" y2="1048.0063"/><text fill="#000000" font-family="Microsoft YaHei" font-size="13" font-weight="bold" lengthAdjust="spacing" textLength="16" x="446" y="1042.604">21</text><text fill="#000000" font-family="Microsoft YaHei" font-size="13" lengthAdjust="spacing" textLength="87" x="466" y="1042.604">read snapshot</text><polygon fill="#4A4A4A" points="66,1075.1641,56,1079.1641,66,1083.1641,62,1079.1641" style="stroke:#4A4A4A;stroke-width:1.0;"/><line style="stroke:#4A4A4A;stroke-width:1.0;stroke-dasharray:2.0,2.0;" x1="60" x2="438" y1="1079.1641" y2="1079.1641"/><text fill="#000000" font-family="Microsoft YaHei" font-size="13" font-weight="bold" lengthAdjust="spacing" textLength="16" x="72" y="1073.7617">22</text><text fill="#000000" font-family="Microsoft YaHei" font-size="13" lengthAdjust="spacing" textLength="85" x="92" y="1073.7617">TaskSnapshot</text><path d="M10,1101.1641 L72,1101.1641 L72,1110.3218 L62,1120.3218 L10,1120.3218 L10,1101.1641 " fill="#EEEEEE" style="stroke:#000000;stroke-width:1.5;"/><rect fill="none" height="302.9375" style="stroke:#000000;stroke-width:1.5;" width="1234" x="10" y="1101.1641"/><text fill="#000000" font-family="Microsoft YaHei" font-size="13" font-weight="bold" lengthAdjust="spacing" textLength="17" x="25" y="1115.9194">alt</text><text fill="#000000" font-family="Microsoft YaHei" font-size="11" font-weight="bold" lengthAdjust="spacing" textLength="74" x="87" y="1114.8032">[&#29992;&#25143;&#20027;&#21160;&#21462;&#28040;]</text><polygon fill="#4A4A4A" points="427,1139.4795,437,1143.4795,427,1147.4795,431,1143.4795" style="stroke:#4A4A4A;stroke-width:1.0;"/><line style="stroke:#4A4A4A;stroke-width:1.0;" x1="55" x2="433" y1="1143.4795" y2="1143.4795"/><text fill="#000000" font-family="Microsoft YaHei" font-size="13" font-weight="bold" lengthAdjust="spacing" textLength="16" x="62" y="1138.0771">23</text><text fill="#000000" font-family="Microsoft YaHei" font-size="13" lengthAdjust="spacing" textLength="111" x="82" y="1138.0771">CancelTask taskID</text><line style="stroke:#4A4A4A;stroke-width:1.0;" x1="439" x2="481" y1="1174.6372" y2="1174.6372"/><line style="stroke:#4A4A4A;stroke-width:1.0;" x1="481" x2="481" y1="1174.6372" y2="1187.6372"/><line style="stroke:#4A4A4A;stroke-width:1.0;" x1="440" x2="481" y1="1187.6372" y2="1187.6372"/><polygon fill="#4A4A4A" points="450,1183.6372,440,1187.6372,450,1191.6372,446,1187.6372" style="stroke:#4A4A4A;stroke-width:1.0;"/><text fill="#000000" font-family="Microsoft YaHei" font-size="13" font-weight="bold" lengthAdjust="spacing" textLength="16" x="446" y="1169.2349">24</text><text fill="#000000" font-family="Microsoft YaHei" font-size="13" lengthAdjust="spacing" textLength="90" x="466" y="1169.2349">cancel context</text><polygon fill="#4A4A4A" points="66,1214.7949,56,1218.7949,66,1222.7949,62,1218.7949" style="stroke:#4A4A4A;stroke-width:1.0;"/><line style="stroke:#4A4A4A;stroke-width:1.0;stroke-dasharray:2.0,2.0;" x1="60" x2="438" y1="1218.7949" y2="1218.7949"/><text fill="#000000" font-family="Microsoft YaHei" font-size="13" font-weight="bold" lengthAdjust="spacing" textLength="16" x="72" y="1213.3926">25</text><text fill="#000000" font-family="Microsoft YaHei" font-size="13" lengthAdjust="spacing" textLength="25" x="92" y="1213.3926">true</text><polygon fill="#4A4A4A" points="1180.5,1245.9526,1190.5,1249.9526,1180.5,1253.9526,1184.5,1249.9526" style="stroke:#4A4A4A;stroke-width:1.0;"/><line style="stroke:#4A4A4A;stroke-width:1.0;" x1="748" x2="1186.5" y1="1249.9526" y2="1249.9526"/><text fill="#000000" font-family="Microsoft YaHei" font-size="13" font-weight="bold" lengthAdjust="spacing" textLength="16" x="755" y="1244.5503">26</text><text fill="#000000" font-family="Microsoft YaHei" font-size="13" lengthAdjust="spacing" textLength="148" x="775" y="1244.5503">mark canceled within 2s</text><line style="stroke:#000000;stroke-width:1.0;stroke-dasharray:2.0,2.0;" x1="10" x2="1244" y1="1258.9526" y2="1258.9526"/><text fill="#000000" font-family="Microsoft YaHei" font-size="11" font-weight="bold" lengthAdjust="spacing" textLength="52" x="15" y="1270.5918">[&#36229;&#26102;&#35302;&#21457;]</text><line style="stroke:#4A4A4A;stroke-width:1.0;" x1="439" x2="481" y1="1297.6284" y2="1297.6284"/><line style="stroke:#4A4A4A;stroke-width:1.0;" x1="481" x2="481" y1="1297.6284" y2="1310.6284"/><line style="stroke:#4A4A4A;stroke-width:1.0;" x1="440" x2="481" y1="1310.6284" y2="1310.6284"/><polygon fill="#4A4A4A" points="450,1306.6284,440,1310.6284,450,1314.6284,446,1310.6284" style="stroke:#4A4A4A;stroke-width:1.0;"/><text fill="#000000" font-family="Microsoft YaHei" font-size="13" font-weight="bold" lengthAdjust="spacing" textLength="16" x="446" y="1292.2261">27</text><text fill="#000000" font-family="Microsoft YaHei" font-size="13" lengthAdjust="spacing" textLength="164" x="466" y="1292.2261">context deadline exceeded</text><polygon fill="#4A4A4A" points="1180.5,1337.7861,1190.5,1341.7861,1180.5,1345.7861,1184.5,1341.7861" style="stroke:#4A4A4A;stroke-width:1.0;"/><line style="stroke:#4A4A4A;stroke-width:1.0;" x1="748" x2="1186.5" y1="1341.7861" y2="1341.7861"/><text fill="#000000" font-family="Microsoft YaHei" font-size="13" font-weight="bold" lengthAdjust="spacing" textLength="16" x="755" y="1336.3838">28</text><text fill="#000000" font-family="Microsoft YaHei" font-size="13" lengthAdjust="spacing" textLength="109" x="775" y="1336.3838">status=timed_out</text><path d="M828,1354.7861 L828,1398.7861 L1150,1398.7861 L1150,1364.7861 L1140,1354.7861 L828,1354.7861 " fill="#FEFFDD" style="stroke:#181818;stroke-width:0.5;"/><path d="M1140,1354.7861 L1140,1364.7861 L1150,1364.7861 L1140,1354.7861 " fill="#FEFFDD" style="stroke:#181818;stroke-width:0.5;"/><text fill="#000000" font-family="Microsoft YaHei" font-size="13" lengthAdjust="spacing" textLength="191" x="889.25" y="1373.5415">CommandContext&#32467;&#26463;&#23376;&#36827;&#31243;&#65292;</text><text fill="#000000" font-family="Microsoft YaHei" font-size="13" lengthAdjust="spacing" textLength="117" x="889.25" y="1390.6992">&#36991;&#20813;&#20725;&#23608;&#36827;&#31243;&#27531;&#30041;&#12290;</text><!--SRC=[bLLTJnj757sVNt55NueKWZ1zGY8IDIsbIjEqHAegHOgswm5Mh6UStTa0Rz28n924ZzPy5OfB204rhKqbuW8cyOy9Cxj-uY_qxevjriAWL7vOwywPE_UUU-QCi8HDeRfMKeMt2JdxGYxEo-AnAkRKQacUBCYDz-UdMOpxRuh-nc5GsRexAKOvWuvRCC3zqnKr_ukQNVCBs-UdiuIuOnRB68wH1dVKIF5nYut0i66xDBRIvpXyFCbjxi0dd_M5lzXYFnqsF5jyoPcuOwGfV6EP3dVvi80VZQ-eHGnFSEQbVw8E8OOfC4TRSF3Op-shbUFxx5DTQ6Vozc1x6nWk90tR3g6zlV0v7UOEnMPqhrtOw8UfwOl6iNxexILOXh1CAsCm0MsrNhzW8nQZzncDlW_IXiLkPYQZ0sxJ4SESr012z74XD_4uz01If-PtvM9Hpkq7bGr__vayBgc5nREJLryFVNk7DC4xS7yjKmy4bPpSsFBBlwgjpSvgRZqe5jNAKxNv5o6C2mhy4S8q-aPpDTNLGlNbsldfRwIh7VnSNYwzaqlxQZFlv_vfS1Oy_JFOVYvdDkN9CacqWrhzmo_dpuwcpifbERSzs7zsDE_FbTJKjChl1iMNOHSBEwIx7R01kR245Cg55LNAuf-WD8EYKVDxCbkIsITgUOTGbeAmp6W2VSC2QnqInWY510vYW0U7-U1mHnyLhx3LB0Out3FSCHYYpYFBn6byxx4mq9aqc4djwEy05U4NZn2U6ysdXcvE5UNvpgCUPZ573GO20uFzqOOet0p_WJjZMFXTpcsKMBMy5XHUTUlsjSequ5AvM22Z3ifcWfetapoTDbWgYSAc4oBQfjV_h-9gqxtSq13U1joYfoKhR_oPFKr168zhiyO9Ygj68JZqeKTT0UEM60LXfIdt1Ad3mXrX2iIR3ZLGSo5Tu4OaGmP7ZBSyZeueH3Hb3wD_cjqBH5pU3XMUKnz0f19Dh9hTGrs6jtMg7BnVgWb2PyRzjP7qG8PdeiqTNQGMYvMRDXpi3LaERUWIIjCVrk2na86kwz8dFYfzufhqYUlITtzK-kvhqdSJKWlXOiDtjEF8lnSRfYEVhCkPtSXqOdRJoARj9bp6YwzMTsLbjP4tNhb3tGndBlgF0nGDtMdHW4BJMpdmordK8xYUQLAQeYby3omRFw7CKWzGQ6165vYc2B4v4XAyAw3HOC7ov3K1QANRfdjU5mz02yMYO5FWCYFZZd8HXyH56EMgOr3F-BJO0aA3pFvxTbGE6OmyxefgBWoeTIaDe6uKJEq1LrKZ73GWW2i4KIShkgiMWuHBABwleCqts7kDb-VAy_N1a49Ix73qT4BFfELn-eBtDkQ4e8iNHslYHjsDa9WcVmlVgz_p3TsTdpv7I7Mw8cTUoCTlvS6HZgl2Ctzv_SFKpxZQU2h20Vm7]--></g></svg>