<?xml version="1.0" encoding="us-ascii" standalone="no"?><svg xmlns="http://www.w3.org/2000/svg" xmlns:xlink="http://www.w3.org/1999/xlink" contentStyleType="text/css" height="1860px" preserveAspectRatio="none" style="width:1535px;height:1860px;background:#FFFFFF;" version="1.1" viewBox="0 0 1535 1860" width="1535px" zoomAndPan="magnify"><defs/><g><text fill="#000000" font-family="Microsoft YaHei" font-size="14" font-weight="bold" lengthAdjust="spacing" textLength="363" x="582" y="29.8135">&#38454;&#27573;3&#21069;&#21518;&#23545;&#27604;&#26102;&#24207;&#22270;&#65288;CLI &#28436;&#31034; -&gt; Wails &#21487;&#35270;&#21270; MVP&#65289;</text><line style="stroke:#181818;stroke-width:0.5;stroke-dasharray:5.0,5.0;" x1="60" x2="60" y1="122.9551" y2="1777.314"/><line style="stroke:#181818;stroke-width:0.5;stroke-dasharray:5.0,5.0;" x1="199.5" x2="199.5" y1="122.9551" y2="1777.314"/><line style="stroke:#181818;stroke-width:0.5;stroke-dasharray:5.0,5.0;" x1="359.5" x2="359.5" y1="122.9551" y2="1777.314"/><line style="stroke:#181818;stroke-width:0.5;stroke-dasharray:5.0,5.0;" x1="587" x2="587" y1="122.9551" y2="1777.314"/><line style="stroke:#181818;stroke-width:0.5;stroke-dasharray:5.0,5.0;" x1="762" x2="762" y1="122.9551" y2="1777.314"/><line style="stroke:#181818;stroke-width:0.5;stroke-dasharray:5.0,5.0;" x1="937" x2="937" y1="122.9551" y2="1777.314"/><line style="stroke:#181818;stroke-width:0.5;stroke-dasharray:5.0,5.0;" x1="1093" x2="1093" y1="122.9551" y2="1777.314"/><line style="stroke:#181818;stroke-width:0.5;stroke-dasharray:5.0,5.0;" x1="1297" x2="1297" y1="122.9551" y2="1777.314"/><line style="stroke:#181818;stroke-width:0.5;stroke-dasharray:5.0,5.0;" x1="1482" x2="1482" y1="122.9551" y2="1777.314"/><text fill="#000000" font-family="Microsoft YaHei" font-size="14" lengthAdjust="spacing" textLength="28" x="43" y="119.291">&#29992;&#25143;</text><ellipse cx="60" cy="52.9775" fill="#E2E2F0" rx="8" ry="8" style="stroke:#181818;stroke-width:0.5;"/><path d="M60,60.9775 L60,87.9775 M47,68.9775 L73,68.9775 M60,87.9775 L47,102.9775 M60,87.9775 L73,102.9775 " fill="none" style="stroke:#181818;stroke-width:0.5;"/><text fill="#000000" font-family="Microsoft YaHei" font-size="14" lengthAdjust="spacing" textLength="28" x="43" y="1791.1274">&#29992;&#25143;</text><ellipse cx="60" cy="1803.2915" fill="#E2E2F0" rx="8" ry="8" style="stroke:#181818;stroke-width:0.5;"/><path d="M60,1811.2915 L60,1838.2915 M47,1819.2915 L73,1819.2915 M60,1838.2915 L47,1853.2915 M60,1838.2915 L73,1853.2915 " fill="none" style="stroke:#181818;stroke-width:0.5;"/><rect fill="#E2E2F0" height="50.9551" rx="2.5" ry="2.5" style="stroke:#181818;stroke-width:0.5;" width="149" x="125.5" y="71"/><text fill="#000000" font-family="Microsoft YaHei" font-size="14" lengthAdjust="spacing" textLength="65" x="167.5" y="92.8135">CLI Demo</text><text fill="#000000" font-family="Microsoft YaHei" font-size="14" lengthAdjust="spacing" textLength="135" x="132.5" y="111.291">cmd/demo/main.go</text><rect fill="#E2E2F0" height="50.9551" rx="2.5" ry="2.5" style="stroke:#181818;stroke-width:0.5;" width="149" x="125.5" y="1776.314"/><text fill="#000000" font-family="Microsoft YaHei" font-size="14" lengthAdjust="spacing" textLength="65" x="167.5" y="1798.1274">CLI Demo</text><text fill="#000000" font-family="Microsoft YaHei" font-size="14" lengthAdjust="spacing" textLength="135" x="132.5" y="1816.605">cmd/demo/main.go</text><rect fill="#E2E2F0" height="50.9551" rx="2.5" ry="2.5" style="stroke:#181818;stroke-width:0.5;" width="150" x="284.5" y="71"/><text fill="#000000" font-family="Microsoft YaHei" font-size="14" lengthAdjust="spacing" textLength="68" x="325.5" y="92.8135">Wails &#21069;&#31471;</text><text fill="#000000" font-family="Microsoft YaHei" font-size="14" lengthAdjust="spacing" textLength="136" x="291.5" y="111.291">index.html + main.js</text><rect fill="#E2E2F0" height="50.9551" rx="2.5" ry="2.5" style="stroke:#181818;stroke-width:0.5;" width="150" x="284.5" y="1776.314"/><text fill="#000000" font-family="Microsoft YaHei" font-size="14" lengthAdjust="spacing" textLength="68" x="325.5" y="1798.1274">Wails &#21069;&#31471;</text><text fill="#000000" font-family="Microsoft YaHei" font-size="14" lengthAdjust="spacing" textLength="136" x="291.5" y="1816.605">index.html + main.js</text><rect fill="#E2E2F0" height="50.9551" rx="2.5" ry="2.5" style="stroke:#181818;stroke-width:0.5;" width="165" x="505" y="71"/><text fill="#000000" font-family="Microsoft YaHei" font-size="14" lengthAdjust="spacing" textLength="68" x="553.5" y="92.8135">Wails &#32465;&#23450;</text><text fill="#000000" font-family="Microsoft YaHei" font-size="14" lengthAdjust="spacing" textLength="151" x="512" y="111.291">window.go.main.App.*</text><rect fill="#E2E2F0" height="50.9551" rx="2.5" ry="2.5" style="stroke:#181818;stroke-width:0.5;" width="165" x="505" y="1776.314"/><text fill="#000000" font-family="Microsoft YaHei" font-size="14" lengthAdjust="spacing" textLength="68" x="553.5" y="1798.1274">Wails &#32465;&#23450;</text><text fill="#000000" font-family="Microsoft YaHei" font-size="14" lengthAdjust="spacing" textLength="151" x="512" y="1816.605">window.go.main.App.*</text><rect fill="#E2E2F0" height="50.9551" rx="2.5" ry="2.5" style="stroke:#181818;stroke-width:0.5;" width="135" x="695" y="71"/><text fill="#000000" font-family="Microsoft YaHei" font-size="14" lengthAdjust="spacing" textLength="51" x="737" y="92.8135">Go App</text><text fill="#000000" font-family="Microsoft YaHei" font-size="14" lengthAdjust="spacing" textLength="121" x="702" y="111.291">cmd/wails/app.go</text><rect fill="#E2E2F0" height="50.9551" rx="2.5" ry="2.5" style="stroke:#181818;stroke-width:0.5;" width="135" x="695" y="1776.314"/><text fill="#000000" font-family="Microsoft YaHei" font-size="14" lengthAdjust="spacing" textLength="51" x="737" y="1798.1274">Go App</text><text fill="#000000" font-family="Microsoft YaHei" font-size="14" lengthAdjust="spacing" textLength="121" x="702" y="1816.605">cmd/wails/app.go</text><rect fill="#E2E2F0" height="50.9551" rx="2.5" ry="2.5" style="stroke:#181818;stroke-width:0.5;" width="171" x="852" y="71"/><text fill="#000000" font-family="Microsoft YaHei" font-size="14" lengthAdjust="spacing" textLength="81" x="897" y="92.8135">Task Service</text><text fill="#000000" font-family="Microsoft YaHei" font-size="14" lengthAdjust="spacing" textLength="157" x="859" y="111.291">internal/task/service.go</text><rect fill="#E2E2F0" height="50.9551" rx="2.5" ry="2.5" style="stroke:#181818;stroke-width:0.5;" width="171" x="852" y="1776.314"/><text fill="#000000" font-family="Microsoft YaHei" font-size="14" lengthAdjust="spacing" textLength="81" x="897" y="1798.1274">Task Service</text><text fill="#000000" font-family="Microsoft YaHei" font-size="14" lengthAdjust="spacing" textLength="157" x="859" y="1816.605">internal/task/service.go</text><rect fill="#E2E2F0" height="50.9551" rx="2.5" ry="2.5" style="stroke:#181818;stroke-width:0.5;" width="120" x="1033" y="71"/><text fill="#000000" font-family="Microsoft YaHei" font-size="14" lengthAdjust="spacing" textLength="99" x="1043.5" y="92.8135">Python Engine</text><text fill="#000000" font-family="Microsoft YaHei" font-size="14" lengthAdjust="spacing" textLength="106" x="1040" y="111.291">engine_main.py</text><rect fill="#E2E2F0" height="50.9551" rx="2.5" ry="2.5" style="stroke:#181818;stroke-width:0.5;" width="120" x="1033" y="1776.314"/><text fill="#000000" font-family="Microsoft YaHei" font-size="14" lengthAdjust="spacing" textLength="99" x="1043.5" y="1798.1274">Python Engine</text><text fill="#000000" font-family="Microsoft YaHei" font-size="14" lengthAdjust="spacing" textLength="106" x="1040" y="1816.605">engine_main.py</text><rect fill="#E2E2F0" height="50.9551" rx="2.5" ry="2.5" style="stroke:#181818;stroke-width:0.5;" width="268" x="1163" y="71"/><text fill="#000000" font-family="Microsoft YaHei" font-size="14" lengthAdjust="spacing" textLength="98" x="1248" y="92.8135">&#31995;&#32479;&#25991;&#20214;&#23545;&#35805;&#26694;</text><text fill="#000000" font-family="Microsoft YaHei" font-size="14" lengthAdjust="spacing" textLength="254" x="1170" y="111.291">OpenFileDialog/OpenDirectoryDialog</text><rect fill="#E2E2F0" height="50.9551" rx="2.5" ry="2.5" style="stroke:#181818;stroke-width:0.5;" width="268" x="1163" y="1776.314"/><text fill="#000000" font-family="Microsoft YaHei" font-size="14" lengthAdjust="spacing" textLength="98" x="1248" y="1798.1274">&#31995;&#32479;&#25991;&#20214;&#23545;&#35805;&#26694;</text><text fill="#000000" font-family="Microsoft YaHei" font-size="14" lengthAdjust="spacing" textLength="254" x="1170" y="1816.605">OpenFileDialog/OpenDirectoryDialog</text><rect fill="#E2E2F0" height="50.9551" rx="2.5" ry="2.5" style="stroke:#181818;stroke-width:0.5;" width="82" x="1441" y="71"/><text fill="#000000" font-family="Microsoft YaHei" font-size="14" lengthAdjust="spacing" textLength="56" x="1454" y="92.8135">&#26412;&#22320;&#23548;&#20986;</text><text fill="#000000" font-family="Microsoft YaHei" font-size="14" lengthAdjust="spacing" textLength="68" x="1448" y="111.291">JSON/CSV</text><rect fill="#E2E2F0" height="50.9551" rx="2.5" ry="2.5" style="stroke:#181818;stroke-width:0.5;" width="82" x="1441" y="1776.314"/><text fill="#000000" font-family="Microsoft YaHei" font-size="14" lengthAdjust="spacing" textLength="56" x="1454" y="1798.1274">&#26412;&#22320;&#23548;&#20986;</text><text fill="#000000" font-family="Microsoft YaHei" font-size="14" lengthAdjust="spacing" textLength="68" x="1448" y="1816.605">JSON/CSV</text><rect fill="#EEEEEE" height="3" style="stroke:#EEEEEE;stroke-width:1.0;" width="1528" x="0" y="154.5339"/><line style="stroke:#000000;stroke-width:1.0;" x1="0" x2="1528" y1="154.5339" y2="154.5339"/><line style="stroke:#000000;stroke-width:1.0;" x1="0" x2="1528" y1="157.5339" y2="157.5339"/><rect fill="#EEEEEE" height="25.1577" style="stroke:#000000;stroke-width:2.0;" width="175" x="676.5" y="142.9551"/><text fill="#000000" font-family="Microsoft YaHei" font-size="13" font-weight="bold" lengthAdjust="spacing" textLength="157" x="682.5" y="160.7104">Before&#65288;&#38454;&#27573;2&#20132;&#20114;&#24418;&#24577;&#65289;</text><polygon fill="#4A4A4A" points="188,197.2705,198,201.2705,188,205.2705,192,201.2705" style="stroke:#4A4A4A;stroke-width:1.0;"/><line style="stroke:#4A4A4A;stroke-width:1.0;" x1="60" x2="194" y1="201.2705" y2="201.2705"/><text fill="#000000" font-family="Microsoft YaHei" font-size="13" font-weight="bold" lengthAdjust="spacing" textLength="8" x="67" y="195.8682">1</text><text fill="#000000" font-family="Microsoft YaHei" font-size="13" lengthAdjust="spacing" textLength="104" x="79" y="195.8682">&#21629;&#20196;&#34892;&#20256;&#21442;&#24182;&#36816;&#34892;</text><polygon fill="#4A4A4A" points="925.5,228.4282,935.5,232.4282,925.5,236.4282,929.5,232.4282" style="stroke:#4A4A4A;stroke-width:1.0;"/><line style="stroke:#4A4A4A;stroke-width:1.0;" x1="200" x2="931.5" y1="232.4282" y2="232.4282"/><text fill="#000000" font-family="Microsoft YaHei" font-size="13" font-weight="bold" lengthAdjust="spacing" textLength="8" x="207" y="227.0259">2</text><text fill="#000000" font-family="Microsoft YaHei" font-size="13" lengthAdjust="spacing" textLength="101" x="219" y="227.0259">RunTask request</text><polygon fill="#4A4A4A" points="1081,259.5859,1091,263.5859,1081,267.5859,1085,263.5859" style="stroke:#4A4A4A;stroke-width:1.0;"/><line style="stroke:#4A4A4A;stroke-width:1.0;" x1="937.5" x2="1087" y1="263.5859" y2="263.5859"/><text fill="#000000" font-family="Microsoft YaHei" font-size="13" font-weight="bold" lengthAdjust="spacing" textLength="8" x="944.5" y="258.1836">3</text><text fill="#000000" font-family="Microsoft YaHei" font-size="13" lengthAdjust="spacing" textLength="52" x="956.5" y="258.1836">&#25191;&#34892;&#20219;&#21153;</text><polygon fill="#4A4A4A" points="211,290.7437,201,294.7437,211,298.7437,207,294.7437" style="stroke:#4A4A4A;stroke-width:1.0;"/><line style="stroke:#4A4A4A;stroke-width:1.0;" x1="205" x2="936.5" y1="294.7437" y2="294.7437"/><text fill="#000000" font-family="Microsoft YaHei" font-size="13" font-weight="bold" lengthAdjust="spacing" textLength="8" x="217" y="289.3413">4</text><text fill="#000000" font-family="Microsoft YaHei" font-size="13" lengthAdjust="spacing" textLength="78" x="229" y="289.3413">&#36820;&#22238;&#20219;&#21153;&#29366;&#24577;</text><polygon fill="#4A4A4A" points="71,321.9014,61,325.9014,71,329.9014,67,325.9014" style="stroke:#4A4A4A;stroke-width:1.0;"/><line style="stroke:#4A4A4A;stroke-width:1.0;" x1="65" x2="199" y1="325.9014" y2="325.9014"/><text fill="#000000" font-family="Microsoft YaHei" font-size="13" font-weight="bold" lengthAdjust="spacing" textLength="8" x="77" y="320.499">5</text><text fill="#000000" font-family="Microsoft YaHei" font-size="13" lengthAdjust="spacing" textLength="78" x="89" y="320.499">&#32456;&#31471;&#36755;&#20986;&#32467;&#26524;</text><path d="M5,338.9014 L5,399.9014 L255,399.9014 L255,348.9014 L245,338.9014 L5,338.9014 " fill="#FEFFDD" style="stroke:#181818;stroke-width:0.5;"/><path d="M245,338.9014 L245,348.9014 L255,348.9014 L245,338.9014 " fill="#FEFFDD" style="stroke:#181818;stroke-width:0.5;"/><text fill="#000000" font-family="Microsoft YaHei" font-size="13" lengthAdjust="spacing" textLength="229" x="11" y="357.6567">&#38454;&#27573;2&#33021;&#21147;&#24050;&#20855;&#22791;&#65292;&#20294;&#20132;&#20114;&#20173;&#20559;&#24037;&#31243;&#20391;&#65306;</text><text fill="#000000" font-family="Microsoft YaHei" font-size="13" lengthAdjust="spacing" textLength="127" x="11" y="374.8145">- &#21442;&#25968;&#36755;&#20837;&#20381;&#36182;&#21629;&#20196;&#34892;</text><text fill="#000000" font-family="Microsoft YaHei" font-size="13" lengthAdjust="spacing" textLength="140" x="11" y="391.9722">- &#32467;&#26524;&#26597;&#30475;&#19982;&#23548;&#20986;&#19981;&#30452;&#35266;</text><rect fill="#EEEEEE" height="3" style="stroke:#EEEEEE;stroke-width:1.0;" width="1528" x="0" y="426.9534"/><line style="stroke:#000000;stroke-width:1.0;" x1="0" x2="1528" y1="426.9534" y2="426.9534"/><line style="stroke:#000000;stroke-width:1.0;" x1="0" x2="1528" y1="429.9534" y2="429.9534"/><rect fill="#EEEEEE" height="25.1577" style="stroke:#000000;stroke-width:2.0;" width="203" x="662.5" y="415.3745"/><text fill="#000000" font-family="Microsoft YaHei" font-size="13" font-weight="bold" lengthAdjust="spacing" textLength="185" x="668.5" y="433.1299">After Stage 3&#65288;Wails MVP&#65289;</text><polygon fill="#4A4A4A" points="347.5,469.6899,357.5,473.6899,347.5,477.6899,351.5,473.6899" style="stroke:#4A4A4A;stroke-width:1.0;"/><line style="stroke:#4A4A4A;stroke-width:1.0;" x1="60" x2="353.5" y1="473.6899" y2="473.6899"/><text fill="#000000" font-family="Microsoft YaHei" font-size="13" font-weight="bold" lengthAdjust="spacing" textLength="8" x="67" y="468.2876">6</text><text fill="#000000" font-family="Microsoft YaHei" font-size="13" lengthAdjust="spacing" textLength="189" x="79" y="468.2876">&#37197;&#32622; csv target output timeout</text><polygon fill="#4A4A4A" points="347.5,500.8477,357.5,504.8477,347.5,508.8477,351.5,504.8477" style="stroke:#4A4A4A;stroke-width:1.0;"/><line style="stroke:#4A4A4A;stroke-width:1.0;" x1="60" x2="353.5" y1="504.8477" y2="504.8477"/><text fill="#000000" font-family="Microsoft YaHei" font-size="13" font-weight="bold" lengthAdjust="spacing" textLength="8" x="67" y="499.4453">7</text><text fill="#000000" font-family="Microsoft YaHei" font-size="13" lengthAdjust="spacing" textLength="82" x="79" y="499.4453">&#28857;&#20987;&#36873;&#25321; CSV</text><polygon fill="#4A4A4A" points="575.5,532.0054,585.5,536.0054,575.5,540.0054,579.5,536.0054" style="stroke:#4A4A4A;stroke-width:1.0;"/><line style="stroke:#4A4A4A;stroke-width:1.0;" x1="359.5" x2="581.5" y1="536.0054" y2="536.0054"/><text fill="#000000" font-family="Microsoft YaHei" font-size="13" font-weight="bold" lengthAdjust="spacing" textLength="8" x="366.5" y="530.603">8</text><text fill="#000000" font-family="Microsoft YaHei" font-size="13" lengthAdjust="spacing" textLength="63" x="378.5" y="530.603">SelectCSV</text><polygon fill="#4A4A4A" points="750.5,563.1631,760.5,567.1631,750.5,571.1631,754.5,567.1631" style="stroke:#4A4A4A;stroke-width:1.0;"/><line style="stroke:#4A4A4A;stroke-width:1.0;" x1="587.5" x2="756.5" y1="567.1631" y2="567.1631"/><text fill="#000000" font-family="Microsoft YaHei" font-size="13" font-weight="bold" lengthAdjust="spacing" textLength="8" x="594.5" y="561.7607">9</text><text fill="#000000" font-family="Microsoft YaHei" font-size="13" lengthAdjust="spacing" textLength="63" x="606.5" y="561.7607">SelectCSV</text><polygon fill="#4A4A4A" points="1285,594.3208,1295,598.3208,1285,602.3208,1289,598.3208" style="stroke:#4A4A4A;stroke-width:1.0;"/><line style="stroke:#4A4A4A;stroke-width:1.0;" x1="762.5" x2="1291" y1="598.3208" y2="598.3208"/><text fill="#000000" font-family="Microsoft YaHei" font-size="13" font-weight="bold" lengthAdjust="spacing" textLength="16" x="769.5" y="592.9185">10</text><text fill="#000000" font-family="Microsoft YaHei" font-size="13" lengthAdjust="spacing" textLength="93" x="789.5" y="592.9185">OpenFileDialog</text><polygon fill="#4A4A4A" points="773.5,625.4785,763.5,629.4785,773.5,633.4785,769.5,629.4785" style="stroke:#4A4A4A;stroke-width:1.0;"/><line style="stroke:#4A4A4A;stroke-width:1.0;" x1="767.5" x2="1296" y1="629.4785" y2="629.4785"/><text fill="#000000" font-family="Microsoft YaHei" font-size="13" font-weight="bold" lengthAdjust="spacing" textLength="16" x="779.5" y="624.0762">11</text><text fill="#000000" font-family="Microsoft YaHei" font-size="13" lengthAdjust="spacing" textLength="52" x="799.5" y="624.0762">csv path</text><polygon fill="#4A4A4A" points="598.5,656.6362,588.5,660.6362,598.5,664.6362,594.5,660.6362" style="stroke:#4A4A4A;stroke-width:1.0;"/><line style="stroke:#4A4A4A;stroke-width:1.0;" x1="592.5" x2="761.5" y1="660.6362" y2="660.6362"/><text fill="#000000" font-family="Microsoft YaHei" font-size="13" font-weight="bold" lengthAdjust="spacing" textLength="16" x="604.5" y="655.2339">12</text><text fill="#000000" font-family="Microsoft YaHei" font-size="13" lengthAdjust="spacing" textLength="52" x="624.5" y="655.2339">csv path</text><polygon fill="#4A4A4A" points="370.5,687.7939,360.5,691.7939,370.5,695.7939,366.5,691.7939" style="stroke:#4A4A4A;stroke-width:1.0;"/><line style="stroke:#4A4A4A;stroke-width:1.0;" x1="364.5" x2="586.5" y1="691.7939" y2="691.7939"/><text fill="#000000" font-family="Microsoft YaHei" font-size="13" font-weight="bold" lengthAdjust="spacing" textLength="16" x="376.5" y="686.3916">13</text><text fill="#000000" font-family="Microsoft YaHei" font-size="13" lengthAdjust="spacing" textLength="52" x="396.5" y="686.3916">csv path</text><polygon fill="#4A4A4A" points="347.5,718.9517,357.5,722.9517,347.5,726.9517,351.5,722.9517" style="stroke:#4A4A4A;stroke-width:1.0;"/><line style="stroke:#4A4A4A;stroke-width:1.0;" x1="60" x2="353.5" y1="722.9517" y2="722.9517"/><text fill="#000000" font-family="Microsoft YaHei" font-size="13" font-weight="bold" lengthAdjust="spacing" textLength="16" x="67" y="717.5493">14</text><text fill="#000000" font-family="Microsoft YaHei" font-size="13" lengthAdjust="spacing" textLength="104" x="87" y="717.5493">&#28857;&#20987;&#36873;&#25321;&#36755;&#20986;&#30446;&#24405;</text><polygon fill="#4A4A4A" points="575.5,750.1094,585.5,754.1094,575.5,758.1094,579.5,754.1094" style="stroke:#4A4A4A;stroke-width:1.0;"/><line style="stroke:#4A4A4A;stroke-width:1.0;" x1="359.5" x2="581.5" y1="754.1094" y2="754.1094"/><text fill="#000000" font-family="Microsoft YaHei" font-size="13" font-weight="bold" lengthAdjust="spacing" textLength="16" x="366.5" y="748.707">15</text><text fill="#000000" font-family="Microsoft YaHei" font-size="13" lengthAdjust="spacing" textLength="100" x="386.5" y="748.707">SelectOutputDir</text><polygon fill="#4A4A4A" points="750.5,781.2671,760.5,785.2671,750.5,789.2671,754.5,785.2671" style="stroke:#4A4A4A;stroke-width:1.0;"/><line style="stroke:#4A4A4A;stroke-width:1.0;" x1="587.5" x2="756.5" y1="785.2671" y2="785.2671"/><text fill="#000000" font-family="Microsoft YaHei" font-size="13" font-weight="bold" lengthAdjust="spacing" textLength="16" x="594.5" y="779.8647">16</text><text fill="#000000" font-family="Microsoft YaHei" font-size="13" lengthAdjust="spacing" textLength="100" x="614.5" y="779.8647">SelectOutputDir</text><polygon fill="#4A4A4A" points="1285,812.4248,1295,816.4248,1285,820.4248,1289,816.4248" style="stroke:#4A4A4A;stroke-width:1.0;"/><line style="stroke:#4A4A4A;stroke-width:1.0;" x1="762.5" x2="1291" y1="816.4248" y2="816.4248"/><text fill="#000000" font-family="Microsoft YaHei" font-size="13" font-weight="bold" lengthAdjust="spacing" textLength="16" x="769.5" y="811.0225">17</text><text fill="#000000" font-family="Microsoft YaHei" font-size="13" lengthAdjust="spacing" textLength="130" x="789.5" y="811.0225">OpenDirectoryDialog</text><polygon fill="#4A4A4A" points="773.5,843.5825,763.5,847.5825,773.5,851.5825,769.5,847.5825" style="stroke:#4A4A4A;stroke-width:1.0;"/><line style="stroke:#4A4A4A;stroke-width:1.0;" x1="767.5" x2="1296" y1="847.5825" y2="847.5825"/><text fill="#000000" font-family="Microsoft YaHei" font-size="13" font-weight="bold" lengthAdjust="spacing" textLength="16" x="779.5" y="842.1802">18</text><text fill="#000000" font-family="Microsoft YaHei" font-size="13" lengthAdjust="spacing" textLength="62" x="799.5" y="842.1802">output dir</text><polygon fill="#4A4A4A" points="598.5,874.7402,588.5,878.7402,598.5,882.7402,594.5,878.7402" style="stroke:#4A4A4A;stroke-width:1.0;"/><line style="stroke:#4A4A4A;stroke-width:1.0;" x1="592.5" x2="761.5" y1="878.7402" y2="878.7402"/><text fill="#000000" font-family="Microsoft YaHei" font-size="13" font-weight="bold" lengthAdjust="spacing" textLength="16" x="604.5" y="873.3379">19</text><text fill="#000000" font-family="Microsoft YaHei" font-size="13" lengthAdjust="spacing" textLength="62" x="624.5" y="873.3379">output dir</text><polygon fill="#4A4A4A" points="370.5,905.8979,360.5,909.8979,370.5,913.8979,366.5,909.8979" style="stroke:#4A4A4A;stroke-width:1.0;"/><line style="stroke:#4A4A4A;stroke-width:1.0;" x1="364.5" x2="586.5" y1="909.8979" y2="909.8979"/><text fill="#000000" font-family="Microsoft YaHei" font-size="13" font-weight="bold" lengthAdjust="spacing" textLength="16" x="376.5" y="904.4956">20</text><text fill="#000000" font-family="Microsoft YaHei" font-size="13" lengthAdjust="spacing" textLength="62" x="396.5" y="904.4956">output dir</text><polygon fill="#4A4A4A" points="347.5,937.0557,357.5,941.0557,347.5,945.0557,351.5,941.0557" style="stroke:#4A4A4A;stroke-width:1.0;"/><line style="stroke:#4A4A4A;stroke-width:1.0;" x1="60" x2="353.5" y1="941.0557" y2="941.0557"/><text fill="#000000" font-family="Microsoft YaHei" font-size="13" font-weight="bold" lengthAdjust="spacing" textLength="16" x="67" y="935.6533">21</text><text fill="#000000" font-family="Microsoft YaHei" font-size="13" lengthAdjust="spacing" textLength="78" x="87" y="935.6533">&#28857;&#20987;&#21551;&#21160;&#20219;&#21153;</text><polygon fill="#4A4A4A" points="575.5,968.2134,585.5,972.2134,575.5,976.2134,579.5,972.2134" style="stroke:#4A4A4A;stroke-width:1.0;"/><line style="stroke:#4A4A4A;stroke-width:1.0;" x1="359.5" x2="581.5" y1="972.2134" y2="972.2134"/><text fill="#000000" font-family="Microsoft YaHei" font-size="13" font-weight="bold" lengthAdjust="spacing" textLength="16" x="366.5" y="966.811">22</text><text fill="#000000" font-family="Microsoft YaHei" font-size="13" lengthAdjust="spacing" textLength="103" x="386.5" y="966.811">RunTask payload</text><polygon fill="#4A4A4A" points="750.5,999.3711,760.5,1003.3711,750.5,1007.3711,754.5,1003.3711" style="stroke:#4A4A4A;stroke-width:1.0;"/><line style="stroke:#4A4A4A;stroke-width:1.0;" x1="587.5" x2="756.5" y1="1003.3711" y2="1003.3711"/><text fill="#000000" font-family="Microsoft YaHei" font-size="13" font-weight="bold" lengthAdjust="spacing" textLength="16" x="594.5" y="997.9688">23</text><text fill="#000000" font-family="Microsoft YaHei" font-size="13" lengthAdjust="spacing" textLength="103" x="614.5" y="997.9688">RunTask payload</text><line style="stroke:#4A4A4A;stroke-width:1.0;" x1="762.5" x2="804.5" y1="1034.5288" y2="1034.5288"/><line style="stroke:#4A4A4A;stroke-width:1.0;" x1="804.5" x2="804.5" y1="1034.5288" y2="1047.5288"/><line style="stroke:#4A4A4A;stroke-width:1.0;" x1="763.5" x2="804.5" y1="1047.5288" y2="1047.5288"/><polygon fill="#4A4A4A" points="773.5,1043.5288,763.5,1047.5288,773.5,1051.5288,769.5,1047.5288" style="stroke:#4A4A4A;stroke-width:1.0;"/><text fill="#000000" font-family="Microsoft YaHei" font-size="13" font-weight="bold" lengthAdjust="spacing" textLength="16" x="769.5" y="1029.1265">24</text><text fill="#000000" font-family="Microsoft YaHei" font-size="13" lengthAdjust="spacing" textLength="108" x="789.5" y="1029.1265">normalizeRequest</text><polygon fill="#4A4A4A" points="925.5,1074.6865,935.5,1078.6865,925.5,1082.6865,929.5,1078.6865" style="stroke:#4A4A4A;stroke-width:1.0;"/><line style="stroke:#4A4A4A;stroke-width:1.0;" x1="762.5" x2="931.5" y1="1078.6865" y2="1078.6865"/><text fill="#000000" font-family="Microsoft YaHei" font-size="13" font-weight="bold" lengthAdjust="spacing" textLength="16" x="769.5" y="1073.2842">25</text><text fill="#000000" font-family="Microsoft YaHei" font-size="13" lengthAdjust="spacing" textLength="127" x="789.5" y="1073.2842">RunTask req timeout</text><polygon fill="#4A4A4A" points="1081,1105.8442,1091,1109.8442,1081,1113.8442,1085,1109.8442" style="stroke:#4A4A4A;stroke-width:1.0;"/><line style="stroke:#4A4A4A;stroke-width:1.0;" x1="937.5" x2="1087" y1="1109.8442" y2="1109.8442"/><text fill="#000000" font-family="Microsoft YaHei" font-size="13" font-weight="bold" lengthAdjust="spacing" textLength="16" x="944.5" y="1104.4419">26</text><text fill="#000000" font-family="Microsoft YaHei" font-size="13" lengthAdjust="spacing" textLength="58" x="964.5" y="1104.4419">&#25191;&#34892; train</text><polygon fill="#4A4A4A" points="773.5,1137.002,763.5,1141.002,773.5,1145.002,769.5,1141.002" style="stroke:#4A4A4A;stroke-width:1.0;"/><line style="stroke:#4A4A4A;stroke-width:1.0;" x1="767.5" x2="936.5" y1="1141.002" y2="1141.002"/><text fill="#000000" font-family="Microsoft YaHei" font-size="13" font-weight="bold" lengthAdjust="spacing" textLength="16" x="779.5" y="1135.5996">27</text><text fill="#000000" font-family="Microsoft YaHei" font-size="13" lengthAdjust="spacing" textLength="110" x="799.5" y="1135.5996">snapshot pending</text><polygon fill="#4A4A4A" points="598.5,1168.1597,588.5,1172.1597,598.5,1176.1597,594.5,1172.1597" style="stroke:#4A4A4A;stroke-width:1.0;"/><line style="stroke:#4A4A4A;stroke-width:1.0;" x1="592.5" x2="761.5" y1="1172.1597" y2="1172.1597"/><text fill="#000000" font-family="Microsoft YaHei" font-size="13" font-weight="bold" lengthAdjust="spacing" textLength="16" x="604.5" y="1166.7573">28</text><text fill="#000000" font-family="Microsoft YaHei" font-size="13" lengthAdjust="spacing" textLength="56" x="624.5" y="1166.7573">snapshot</text><polygon fill="#4A4A4A" points="370.5,1199.3174,360.5,1203.3174,370.5,1207.3174,366.5,1203.3174" style="stroke:#4A4A4A;stroke-width:1.0;"/><line style="stroke:#4A4A4A;stroke-width:1.0;" x1="364.5" x2="586.5" y1="1203.3174" y2="1203.3174"/><text fill="#000000" font-family="Microsoft YaHei" font-size="13" font-weight="bold" lengthAdjust="spacing" textLength="16" x="376.5" y="1197.915">29</text><text fill="#000000" font-family="Microsoft YaHei" font-size="13" lengthAdjust="spacing" textLength="107" x="396.5" y="1197.915">taskID + pending</text><polygon fill="#4A4A4A" points="575.5,1230.4751,585.5,1234.4751,575.5,1238.4751,579.5,1234.4751" style="stroke:#4A4A4A;stroke-width:1.0;"/><line style="stroke:#4A4A4A;stroke-width:1.0;" x1="359.5" x2="581.5" y1="1234.4751" y2="1234.4751"/><text fill="#000000" font-family="Microsoft YaHei" font-size="13" font-weight="bold" lengthAdjust="spacing" textLength="16" x="366.5" y="1229.0728">30</text><text fill="#000000" font-family="Microsoft YaHei" font-size="13" lengthAdjust="spacing" textLength="184" x="386.5" y="1229.0728">GetTaskStatus taskID (polling)</text><polygon fill="#4A4A4A" points="750.5,1261.6328,760.5,1265.6328,750.5,1269.6328,754.5,1265.6328" style="stroke:#4A4A4A;stroke-width:1.0;"/><line style="stroke:#4A4A4A;stroke-width:1.0;" x1="587.5" x2="756.5" y1="1265.6328" y2="1265.6328"/><text fill="#000000" font-family="Microsoft YaHei" font-size="13" font-weight="bold" lengthAdjust="spacing" textLength="16" x="594.5" y="1260.2305">31</text><text fill="#000000" font-family="Microsoft YaHei" font-size="13" lengthAdjust="spacing" textLength="131" x="614.5" y="1260.2305">GetTaskStatus taskID</text><polygon fill="#4A4A4A" points="925.5,1292.7905,935.5,1296.7905,925.5,1300.7905,929.5,1296.7905" style="stroke:#4A4A4A;stroke-width:1.0;"/><line style="stroke:#4A4A4A;stroke-width:1.0;" x1="762.5" x2="931.5" y1="1296.7905" y2="1296.7905"/><text fill="#000000" font-family="Microsoft YaHei" font-size="13" font-weight="bold" lengthAdjust="spacing" textLength="16" x="769.5" y="1291.3882">32</text><text fill="#000000" font-family="Microsoft YaHei" font-size="13" lengthAdjust="spacing" textLength="131" x="789.5" y="1291.3882">GetTaskStatus taskID</text><polygon fill="#4A4A4A" points="773.5,1323.9482,763.5,1327.9482,773.5,1331.9482,769.5,1327.9482" style="stroke:#4A4A4A;stroke-width:1.0;"/><line style="stroke:#4A4A4A;stroke-width:1.0;" x1="767.5" x2="936.5" y1="1327.9482" y2="1327.9482"/><text fill="#000000" font-family="Microsoft YaHei" font-size="13" font-weight="bold" lengthAdjust="spacing" textLength="16" x="779.5" y="1322.5459">33</text><text fill="#000000" font-family="Microsoft YaHei" font-size="13" lengthAdjust="spacing" textLength="56" x="799.5" y="1322.5459">snapshot</text><polygon fill="#4A4A4A" points="598.5,1355.106,588.5,1359.106,598.5,1363.106,594.5,1359.106" style="stroke:#4A4A4A;stroke-width:1.0;"/><line style="stroke:#4A4A4A;stroke-width:1.0;" x1="592.5" x2="761.5" y1="1359.106" y2="1359.106"/><text fill="#000000" font-family="Microsoft YaHei" font-size="13" font-weight="bold" lengthAdjust="spacing" textLength="16" x="604.5" y="1353.7036">34</text><text fill="#000000" font-family="Microsoft YaHei" font-size="13" lengthAdjust="spacing" textLength="56" x="624.5" y="1353.7036">snapshot</text><polygon fill="#4A4A4A" points="370.5,1386.2637,360.5,1390.2637,370.5,1394.2637,366.5,1390.2637" style="stroke:#4A4A4A;stroke-width:1.0;"/><line style="stroke:#4A4A4A;stroke-width:1.0;" x1="364.5" x2="586.5" y1="1390.2637" y2="1390.2637"/><text fill="#000000" font-family="Microsoft YaHei" font-size="13" font-weight="bold" lengthAdjust="spacing" textLength="16" x="376.5" y="1384.8613">35</text><text fill="#000000" font-family="Microsoft YaHei" font-size="13" lengthAdjust="spacing" textLength="91" x="396.5" y="1384.8613">&#26356;&#26032;&#36827;&#24230;&#19982;&#32467;&#26524;</text><polygon fill="#4A4A4A" points="347.5,1417.4214,357.5,1421.4214,347.5,1425.4214,351.5,1421.4214" style="stroke:#4A4A4A;stroke-width:1.0;"/><line style="stroke:#4A4A4A;stroke-width:1.0;" x1="60" x2="353.5" y1="1421.4214" y2="1421.4214"/><text fill="#000000" font-family="Microsoft YaHei" font-size="13" font-weight="bold" lengthAdjust="spacing" textLength="16" x="67" y="1416.019">36</text><text fill="#000000" font-family="Microsoft YaHei" font-size="13" lengthAdjust="spacing" textLength="78" x="87" y="1416.019">&#28857;&#20987;&#21462;&#28040;&#20219;&#21153;</text><polygon fill="#4A4A4A" points="575.5,1448.5791,585.5,1452.5791,575.5,1456.5791,579.5,1452.5791" style="stroke:#4A4A4A;stroke-width:1.0;"/><line style="stroke:#4A4A4A;stroke-width:1.0;" x1="359.5" x2="581.5" y1="1452.5791" y2="1452.5791"/><text fill="#000000" font-family="Microsoft YaHei" font-size="13" font-weight="bold" lengthAdjust="spacing" textLength="16" x="366.5" y="1447.1768">37</text><text fill="#000000" font-family="Microsoft YaHei" font-size="13" lengthAdjust="spacing" textLength="111" x="386.5" y="1447.1768">CancelTask taskID</text><polygon fill="#4A4A4A" points="750.5,1479.7368,760.5,1483.7368,750.5,1487.7368,754.5,1483.7368" style="stroke:#4A4A4A;stroke-width:1.0;"/><line style="stroke:#4A4A4A;stroke-width:1.0;" x1="587.5" x2="756.5" y1="1483.7368" y2="1483.7368"/><text fill="#000000" font-family="Microsoft YaHei" font-size="13" font-weight="bold" lengthAdjust="spacing" textLength="16" x="594.5" y="1478.3345">38</text><text fill="#000000" font-family="Microsoft YaHei" font-size="13" lengthAdjust="spacing" textLength="111" x="614.5" y="1478.3345">CancelTask taskID</text><polygon fill="#4A4A4A" points="925.5,1510.8945,935.5,1514.8945,925.5,1518.8945,929.5,1514.8945" style="stroke:#4A4A4A;stroke-width:1.0;"/><line style="stroke:#4A4A4A;stroke-width:1.0;" x1="762.5" x2="931.5" y1="1514.8945" y2="1514.8945"/><text fill="#000000" font-family="Microsoft YaHei" font-size="13" font-weight="bold" lengthAdjust="spacing" textLength="16" x="769.5" y="1509.4922">39</text><text fill="#000000" font-family="Microsoft YaHei" font-size="13" lengthAdjust="spacing" textLength="111" x="789.5" y="1509.4922">CancelTask taskID</text><polygon fill="#4A4A4A" points="773.5,1542.0522,763.5,1546.0522,773.5,1550.0522,769.5,1546.0522" style="stroke:#4A4A4A;stroke-width:1.0;"/><line style="stroke:#4A4A4A;stroke-width:1.0;" x1="767.5" x2="936.5" y1="1546.0522" y2="1546.0522"/><text fill="#000000" font-family="Microsoft YaHei" font-size="13" font-weight="bold" lengthAdjust="spacing" textLength="16" x="779.5" y="1540.6499">40</text><text fill="#000000" font-family="Microsoft YaHei" font-size="13" lengthAdjust="spacing" textLength="79" x="799.5" y="1540.6499">canceled ack</text><polygon fill="#4A4A4A" points="598.5,1573.21,588.5,1577.21,598.5,1581.21,594.5,1577.21" style="stroke:#4A4A4A;stroke-width:1.0;"/><line style="stroke:#4A4A4A;stroke-width:1.0;" x1="592.5" x2="761.5" y1="1577.21" y2="1577.21"/><text fill="#000000" font-family="Microsoft YaHei" font-size="13" font-weight="bold" lengthAdjust="spacing" textLength="16" x="604.5" y="1571.8076">41</text><text fill="#000000" font-family="Microsoft YaHei" font-size="13" lengthAdjust="spacing" textLength="79" x="624.5" y="1571.8076">canceled ack</text><polygon fill="#4A4A4A" points="370.5,1604.3677,360.5,1608.3677,370.5,1612.3677,366.5,1608.3677" style="stroke:#4A4A4A;stroke-width:1.0;"/><line style="stroke:#4A4A4A;stroke-width:1.0;" x1="364.5" x2="586.5" y1="1608.3677" y2="1608.3677"/><text fill="#000000" font-family="Microsoft YaHei" font-size="13" font-weight="bold" lengthAdjust="spacing" textLength="16" x="376.5" y="1602.9653">42</text><text fill="#000000" font-family="Microsoft YaHei" font-size="13" lengthAdjust="spacing" textLength="136" x="396.5" y="1602.9653">&#19979;&#27425;&#36718;&#35810;&#26174;&#31034; canceled</text><polygon fill="#4A4A4A" points="347.5,1635.5254,357.5,1639.5254,347.5,1643.5254,351.5,1639.5254" style="stroke:#4A4A4A;stroke-width:1.0;"/><line style="stroke:#4A4A4A;stroke-width:1.0;" x1="60" x2="353.5" y1="1639.5254" y2="1639.5254"/><text fill="#000000" font-family="Microsoft YaHei" font-size="13" font-weight="bold" lengthAdjust="spacing" textLength="16" x="67" y="1634.123">43</text><text fill="#000000" font-family="Microsoft YaHei" font-size="13" lengthAdjust="spacing" textLength="52" x="87" y="1634.123">&#23548;&#20986;&#32467;&#26524;</text><polygon fill="#4A4A4A" points="1470,1666.6831,1480,1670.6831,1470,1674.6831,1474,1670.6831" style="stroke:#4A4A4A;stroke-width:1.0;"/><line style="stroke:#4A4A4A;stroke-width:1.0;" x1="359.5" x2="1476" y1="1670.6831" y2="1670.6831"/><text fill="#000000" font-family="Microsoft YaHei" font-size="13" font-weight="bold" lengthAdjust="spacing" textLength="16" x="366.5" y="1665.2808">44</text><text fill="#000000" font-family="Microsoft YaHei" font-size="13" lengthAdjust="spacing" textLength="138" x="386.5" y="1665.2808">&#23548;&#20986; JSON &#19982;&#25351;&#26631; CSV</text><path d="M234,1683.6831 L234,1761.6831 L484,1761.6831 L484,1693.6831 L474,1683.6831 L234,1683.6831 " fill="#FEFFDD" style="stroke:#181818;stroke-width:0.5;"/><path d="M474,1683.6831 L474,1693.6831 L484,1693.6831 L474,1683.6831 " fill="#FEFFDD" style="stroke:#181818;stroke-width:0.5;"/><text fill="#000000" font-family="Microsoft YaHei" font-size="13" lengthAdjust="spacing" textLength="99" x="240" y="1702.4385">&#38454;&#27573;3&#39564;&#25910;&#36798;&#25104;&#65306;</text><text fill="#000000" font-family="Microsoft YaHei" font-size="13" lengthAdjust="spacing" textLength="229" x="240" y="1719.5962">1) UI &#20869;&#23436;&#25104; &#19978;&#20256;-&gt;&#36816;&#34892;-&gt;&#26597;&#30475;-&gt;&#23548;&#20986;</text><text fill="#000000" font-family="Microsoft YaHei" font-size="13" lengthAdjust="spacing" textLength="211" x="240" y="1736.7539">2) &#24322;&#27493;&#36718;&#35810;&#26356;&#26032;&#29366;&#24577;&#65292;&#36816;&#34892;&#20013;&#19981;&#20923;&#32467;</text><text fill="#000000" font-family="Microsoft YaHei" font-size="13" lengthAdjust="spacing" textLength="211" x="240" y="1753.9116">3) &#38169;&#35823;&#38754;&#26495;&#21487;&#35835;&#65292;&#25903;&#25345;&#37325;&#35797;&#19978;&#27425;&#21442;&#25968;</text><!--SRC=[ZLPRJnj757xVNp6YBwKjM0rvYWGIWIQbQa8KcbILaAgfFPWjwrrtTmoXJu4ApCK6KWnDOqW2WaBRn8lQn11yuS_ipAwV-0izixCsNjj8bH-yUxvp-ywSSsQfIZM2Qi-BlF2-ZordsSOQipzmEyT_AxBpTPQlNfQNXhuUGRoSSm_EKSy0-XQhceNOkkqTBRBCDhht-C5bULbHh2bLJs8J9v0rYMF6ZAh7qGJMBDA439gcCJDaQ8Q9FhevA7vDu32Pm2cDtZ5qUXyd2BgdHat3CYOe-Wv_ILG5fwYXfn8_45DHS9I2ZoutTyoNJhiGjj0Z2-JWYAfHDObrYhf4siCaOOphqKGi4eEdI0AhUc_Sy0q453O8c2rdtR_jSLtLO-H9xoHDQEXJv1l-QCb88vtCtD8pLdWnhWDl80z1UdsRmMIoznFVx3O0OSEx1W9OfZSZd4GmQ0Vf0HBM_WPRKsYCcDDgb8ZiA35rh4KeY2EM5DTj0wsm_ODPEcdew0izhkhWWFZ_t_j99cTzCmc5hTn_Isxf5TzEEwKYT8Pdx_AznN5zD4dqEwf6XbMi6V68U1rMJI9EPLRAP8tznx17llE6xPmmkypIv-FwLsEZzoD3Ouzb0a-IXaaLfRyVtIOJXacW-MHltd3E3vppNrbbdp-TWtP3_VsAE77HaE8WqIt4dbMSqe6tbt7AhzdwFFjGz2usu5NnST0BgWAg3rEwNqsJ_9GY5bNg22Z96e0ENpuIlaebjhBNh114yovoBFzImkvA4R9gnF7pkWKDiGHzv5KtWQTRskGlTnH5DoX1nZJWGkapsOC1G- -N2bl9izD_sC8fEqXVbZDEPL7ITafPDhVEJW_TurMdUdHPVg7qm0JEywqJuN_XqAdkUk-t6nK0L4RahmxTdLNdR4sMspdBklbttj6yGlGO4idujHwSW5v2OnJ72Ug3aik6bdFTNEX78q2hjf1rAmKKjQOHnMQSK6IaQ3954LKJ11x3skxy1vOkrPukyzK_4Hop0bB0n2m0EaOqQ1aXzWK0GDU7vE9T5Dtl8q32VQS4yeQXo2g9wMJTBeZJ4DV3-BarfDUd79nUli0gMvrI7_MfG-Tt9725TgBHCYzjN8AongxCWz1DG8XFaxmJ8xPXivNZeA53NEhZaCIpce5ZBLnQqI0P2Ug6cS2Q-ZDv68nIW7QSjKQBN3zlY9gma9eLP1nBnqbhqg082XU3cwMb97KuN12n6aU6ONlNZSAqxn8gCeE-fochhlnnqj0qqErkgK8dvNQo7RMk9VE_IF3yExvzubtasVaVCCZrJTBfWDUtUN6fqm4FOJrADFyOWfp2vDhnDcRjAcsqehuAYI4SdMeTm6OeHCyvM-LlzhnAmRFt-VEg-CQeAxUGb2iiu2_foVkYWI5ncO37DPv9yzTfVzyqhzoHODNsrVxAy5pHgrRvqePOffztYn1iSO4LCY025ojmYVGCo0kaPq2kqPu16KQvqOrOUPw_FGpIzaz8NWAmjQMHS_OMjYrRXDjpK-dhHhNSxvvjrtRt-Uw5-7QoIw3ASpRFpDNIMS_UWfXG2BdKhzRpVm00]--></g></svg>