<?xml version="1.0" encoding="us-ascii" standalone="no"?><svg xmlns="http://www.w3.org/2000/svg" xmlns:xlink="http://www.w3.org/1999/xlink" contentStyleType="text/css" height="746px" preserveAspectRatio="none" style="width:1597px;height:746px;background:#FFFFFF;" version="1.1" viewBox="0 0 1597 746" width="1597px" zoomAndPan="magnify"><defs/><g><text fill="#000000" font-family="Microsoft YaHei" font-size="14" font-weight="bold" lengthAdjust="spacing" textLength="309" x="637" y="24.8135">&#38454;&#27573;2&#24635;&#32467;&#65306;Go&#21518;&#31471;&#32534;&#25490;&#23618;&#65288;&#20219;&#21153;&#29983;&#21629;&#21608;&#26399;&#19979;&#27785;&#65289;</text><!--cluster Go Backend Orchestration--><g id="cluster_Go Backend Orchestration"><rect fill="#EEF6FF" height="572" rx="2.5" ry="2.5" style="stroke:#181818;stroke-width:1.0;" width="1319" x="45.5" y="46.4775"/><text fill="#000000" font-family="Microsoft YaHei" font-size="14" font-weight="bold" lengthAdjust="spacing" textLength="183" x="613.5" y="63.291">Go Backend Orchestration</text></g><!--cluster ?????--><g id="cluster_&#20219;&#21153;&#32534;&#25490;&#23618;"><rect fill="#F8FBFF" height="324" rx="2.5" ry="2.5" style="stroke:#181818;stroke-width:1.0;" width="832" x="508.5" y="270.4775"/><text fill="#000000" font-family="Microsoft YaHei" font-size="14" font-weight="bold" lengthAdjust="spacing" textLength="70" x="889.5" y="287.291">&#20219;&#21153;&#32534;&#25490;&#23618;</text></g><!--cluster ?????--><g id="cluster_&#25191;&#34892;&#36866;&#37197;&#23618;"><rect fill="#F5FFF8" height="128" rx="2.5" ry="2.5" style="stroke:#181818;stroke-width:1.0;" width="415" x="69.5" y="466.4775"/><text fill="#000000" font-family="Microsoft YaHei" font-size="14" font-weight="bold" lengthAdjust="spacing" textLength="70" x="242" y="483.291">&#25191;&#34892;&#36866;&#37197;&#23618;</text></g><!--cluster ????--><g id="cluster_&#36136;&#37327;&#20445;&#38556;"><rect fill="#FFF9F2" height="110" rx="2.5" ry="2.5" style="stroke:#181818;stroke-width:1.0;" width="363" x="436.5" y="91.4775"/><text fill="#000000" font-family="Microsoft YaHei" font-size="14" font-weight="bold" lengthAdjust="spacing" textLength="56" x="590" y="108.291">&#36136;&#37327;&#20445;&#38556;</text></g><!--entity Service--><g id="elem_Service"><rect fill="#F1F1F1" height="93.9102" rx="2.5" ry="2.5" style="stroke:#181818;stroke-width:0.5;" width="119" x="1060" y="307.4775"/><text fill="#000000" font-family="Microsoft YaHei" font-size="14" lengthAdjust="spacing" textLength="99" x="1070" y="332.291">task/service.go</text><text fill="#000000" font-family="Microsoft YaHei" font-size="14" lengthAdjust="spacing" textLength="57" x="1070" y="350.7686">RunTask</text><text fill="#000000" font-family="Microsoft YaHei" font-size="14" lengthAdjust="spacing" textLength="75" x="1070" y="369.2461">CancelTask</text><text fill="#000000" font-family="Microsoft YaHei" font-size="14" lengthAdjust="spacing" textLength="94" x="1070" y="387.7236">GetTaskStatus</text></g><!--entity Store--><g id="elem_Store"><rect fill="#F1F1F1" height="75.4326" rx="2.5" ry="2.5" style="stroke:#181818;stroke-width:0.5;" width="132" x="613.5" y="503.4775"/><text fill="#000000" font-family="Microsoft YaHei" font-size="14" lengthAdjust="spacing" textLength="69" x="623.5" y="528.291">Task Store</text><text fill="#000000" font-family="Microsoft YaHei" font-size="14" lengthAdjust="spacing" textLength="112" x="623.5" y="546.7686">map[taskID]Task</text><text fill="#000000" font-family="Microsoft YaHei" font-size="14" lengthAdjust="spacing" textLength="110" x="623.5" y="565.2461">&#29366;&#24577;/&#26102;&#38388;&#25139;/&#38169;&#35823;</text></g><!--entity Runtime--><g id="elem_Runtime"><rect fill="#F1F1F1" height="56.9551" rx="2.5" ry="2.5" style="stroke:#181818;stroke-width:0.5;" width="205" x="1069" y="512.4775"/><text fill="#000000" font-family="Microsoft YaHei" font-size="14" lengthAdjust="spacing" textLength="96" x="1079" y="537.291">Runtime Store</text><text fill="#000000" font-family="Microsoft YaHei" font-size="14" lengthAdjust="spacing" textLength="185" x="1079" y="555.7686">map[taskID]context+cancel</text></g><!--entity Queue--><g id="elem_Queue"><rect fill="#F1F1F1" height="75.4326" rx="2.5" ry="2.5" style="stroke:#181818;stroke-width:0.5;" width="164" x="792.5" y="503.4775"/><text fill="#000000" font-family="Microsoft YaHei" font-size="14" lengthAdjust="spacing" textLength="79" x="802.5" y="528.291">Task Queue</text><text fill="#000000" font-family="Microsoft YaHei" font-size="14" lengthAdjust="spacing" textLength="79" x="802.5" y="546.7686">chan taskID</text><text fill="#000000" font-family="Microsoft YaHei" font-size="14" lengthAdjust="spacing" textLength="144" x="802.5" y="565.2461">QueueSize=128(&#40664;&#35748;)</text></g><!--entity WorkerPool--><g id="elem_WorkerPool"><rect fill="#F1F1F1" height="56.9551" rx="2.5" ry="2.5" style="stroke:#181818;stroke-width:0.5;" width="189" x="525" y="325.9775"/><text fill="#000000" font-family="Microsoft YaHei" font-size="14" lengthAdjust="spacing" textLength="84" x="535" y="350.791">Worker Pool</text><text fill="#000000" font-family="Microsoft YaHei" font-size="14" lengthAdjust="spacing" textLength="169" x="535" y="369.2686">MaxConcurrency=3(&#40664;&#35748;)</text></g><!--entity Protocol--><g id="elem_Protocol"><rect fill="#F1F1F1" height="56.9551" rx="2.5" ry="2.5" style="stroke:#181818;stroke-width:0.5;" width="172" x="296.5" y="512.4775"/><text fill="#000000" font-family="Microsoft YaHei" font-size="14" lengthAdjust="spacing" textLength="131" x="306.5" y="537.291">engine/protocol.go</text><text fill="#000000" font-family="Microsoft YaHei" font-size="14" lengthAdjust="spacing" textLength="152" x="306.5" y="555.7686">Request/Response&#27169;&#22411;</text></g><!--entity Runner--><g id="elem_Runner"><rect fill="#F1F1F1" height="75.4326" rx="2.5" ry="2.5" style="stroke:#181818;stroke-width:0.5;" width="175" x="86" y="503.4775"/><text fill="#000000" font-family="Microsoft YaHei" font-size="14" lengthAdjust="spacing" textLength="119" x="96" y="528.291">engine/runner.go</text><text fill="#000000" font-family="Microsoft YaHei" font-size="14" lengthAdjust="spacing" textLength="155" x="96" y="546.7686">exec.CommandContext</text><text fill="#000000" font-family="Microsoft YaHei" font-size="14" lengthAdjust="spacing" textLength="122" x="96" y="565.2461">stdin/stdout JSON</text></g><!--entity ServiceTests--><g id="elem_ServiceTests"><rect fill="#F1F1F1" height="56.9551" rx="2.5" ry="2.5" style="stroke:#181818;stroke-width:0.5;" width="144" x="639.5" y="128.4775"/><text fill="#000000" font-family="Microsoft YaHei" font-size="14" lengthAdjust="spacing" textLength="96" x="649.5" y="153.291">service_test.go</text><text fill="#000000" font-family="Microsoft YaHei" font-size="14" lengthAdjust="spacing" textLength="124" x="649.5" y="171.7686">&#24182;&#21457;/&#21462;&#28040;/&#29366;&#24577;&#27969;&#36716;</text></g><!--entity RunnerTests--><g id="elem_RunnerTests"><rect fill="#F1F1F1" height="56.9551" rx="2.5" ry="2.5" style="stroke:#181818;stroke-width:0.5;" width="152" x="452.5" y="128.4775"/><text fill="#000000" font-family="Microsoft YaHei" font-size="14" lengthAdjust="spacing" textLength="96" x="462.5" y="153.291">runner_test.go</text><text fill="#000000" font-family="Microsoft YaHei" font-size="14" lengthAdjust="spacing" textLength="132" x="462.5" y="171.7686">&#36229;&#26102;&#22238;&#25910;/&#26080;&#20725;&#23608;&#36827;&#31243;</text></g><!--entity Caller--><g id="elem_Caller"><ellipse cx="1453.5" cy="116.9775" fill="#F1F1F1" rx="8" ry="8" style="stroke:#181818;stroke-width:0.5;"/><path d="M1453.5,124.9775 L1453.5,151.9775 M1440.5,132.9775 L1466.5,132.9775 M1453.5,151.9775 L1440.5,166.9775 M1453.5,151.9775 L1466.5,166.9775 " fill="none" style="stroke:#181818;stroke-width:0.5;"/><text fill="#000000" font-family="Microsoft YaHei" font-size="14" lengthAdjust="spacing" textLength="42" x="1381" y="183.291">&#35843;&#29992;&#26041;</text><text fill="#000000" font-family="Microsoft YaHei" font-size="14" lengthAdjust="spacing" textLength="145" x="1381" y="201.7686">(Wails&#21069;&#31471;/CLI Demo)</text></g><!--entity PyEngine--><g id="elem_PyEngine"><rect fill="#F1F1F1" height="56.9551" rx="2.5" ry="2.5" style="stroke:#181818;stroke-width:0.5;" width="331" x="7" y="683.4775"/><text fill="#000000" font-family="Microsoft YaHei" font-size="14" lengthAdjust="spacing" textLength="99" x="17" y="708.291">Python Engine</text><text fill="#000000" font-family="Microsoft YaHei" font-size="14" lengthAdjust="spacing" textLength="311" x="17" y="726.7686">appshell/core/python_engine/engine_main.py</text></g><g id="elem_GMN32"><path d="M1381,314.9775 L1381,350.4775 L1179.28,354.4775 L1381,358.4775 L1381,393.6084 A0,0 0 0 0 1381,393.6084 L1574,393.6084 A0,0 0 0 0 1574,393.6084 L1574,324.9775 L1564,314.9775 L1381,314.9775 A0,0 0 0 0 1381,314.9775 " fill="#FEFFDD" style="stroke:#181818;stroke-width:0.5;"/><path d="M1564,314.9775 L1564,324.9775 L1574,324.9775 L1564,314.9775 " fill="#FEFFDD" style="stroke:#181818;stroke-width:0.5;"/><text fill="#000000" font-family="Microsoft YaHei" font-size="13" lengthAdjust="spacing" textLength="73" x="1387" y="333.7329">&#38454;&#27573;2&#33021;&#21147;&#65306;</text><text fill="#000000" font-family="Microsoft YaHei" font-size="13" lengthAdjust="spacing" textLength="151" x="1387" y="350.8906">1) &#20219;&#21153;&#29983;&#21629;&#21608;&#26399;&#30001;Go&#25176;&#31649;</text><text fill="#000000" font-family="Microsoft YaHei" font-size="13" lengthAdjust="spacing" textLength="172" x="1387" y="368.0483">2) &#25903;&#25345;&#24182;&#21457;&#38431;&#21015;&#12289;&#36229;&#26102;&#12289;&#21462;&#28040;</text><text fill="#000000" font-family="Microsoft YaHei" font-size="13" lengthAdjust="spacing" textLength="146" x="1387" y="385.2061">3) &#23545;&#22806;&#26292;&#38706;&#32479;&#19968;&#20219;&#21153;&#25509;&#21475;</text></g><g id="elem_GMN35"><path d="M1381,501.4775 L1381,580.1084 L1590,580.1084 L1590,511.4775 L1580,501.4775 L1381,501.4775 " fill="#FEFFDD" style="stroke:#181818;stroke-width:0.5;"/><path d="M1580,501.4775 L1580,511.4775 L1590,511.4775 L1580,501.4775 " fill="#FEFFDD" style="stroke:#181818;stroke-width:1.0;"/><text fill="#000000" font-family="Microsoft YaHei" font-size="13" lengthAdjust="spacing" textLength="99" x="1387" y="520.2329">&#38454;&#27573;2&#39564;&#25910;&#37325;&#28857;&#65306;</text><text fill="#000000" font-family="Microsoft YaHei" font-size="13" lengthAdjust="spacing" textLength="122" x="1387" y="537.3906">- &#33267;&#23569;3&#20219;&#21153;&#24182;&#21457;&#36816;&#34892;</text><text fill="#000000" font-family="Microsoft YaHei" font-size="13" lengthAdjust="spacing" textLength="163" x="1387" y="554.5483">- &#21462;&#28040;&#21518;2&#31186;&#20869;&#36827;&#20837;canceled</text><text fill="#000000" font-family="Microsoft YaHei" font-size="13" lengthAdjust="spacing" textLength="188" x="1387" y="571.7061">- timeout&#21518;&#21487;&#22238;&#25910;&#19988;&#26080;&#20725;&#23608;&#36827;&#31243;</text></g><!--link Caller to Service--><g id="link_Caller_Service"><path d="M1444.71,205.5275 C1439.03,223.4475 1429.71,242.3975 1414.5,254.4775 C1396.53,268.7475 1385.69,256.6575 1363.5,262.4775 C1298.99,279.3775 1233.3553,304.7024 1184.6053,325.0924 " fill="none" id="Caller-to-Service" style="stroke:#4A4A4A;stroke-width:1.0;"/><polygon fill="#4A4A4A" points="1179.07,327.4075,1188.9165,327.625,1183.6828,325.4782,1185.8295,320.2445,1179.07,327.4075" style="stroke:#4A4A4A;stroke-width:1.0;"/><text fill="#000000" font-family="Microsoft YaHei" font-size="13" lengthAdjust="spacing" textLength="134" x="1431.5" y="250.2329">RunTask(req, timeout)</text></g><!--link Caller to Service--><g id="link_Caller_Service"><path d="M1380.78,164.2775 C1291.79,173.6775 1148.89,194.7875 1116.5,235.4775 C1100.74,255.2775 1099.7982,277.5359 1104.1682,301.3759 " fill="none" id="Caller-to-Service-1" style="stroke:#4A4A4A;stroke-width:1.0;"/><polygon fill="#4A4A4A" points="1105.25,307.2775,1107.5617,297.7038,1104.3485,302.3595,1099.6928,299.1462,1105.25,307.2775" style="stroke:#4A4A4A;stroke-width:1.0;"/><text fill="#000000" font-family="Microsoft YaHei" font-size="13" lengthAdjust="spacing" textLength="115" x="1117.5" y="250.2329">CancelTask(taskID)</text></g><!--link Caller to Service--><g id="link_Caller_Service"><path d="M1380.57,183.4975 C1345.87,196.9275 1304.44,214.8875 1269.5,235.4775 C1234.68,256.0075 1203.5691,279.9023 1175.7391,303.3423 " fill="none" id="Caller-to-Service-2" style="stroke:#4A4A4A;stroke-width:1.0;"/><polygon fill="#4A4A4A" points="1171.15,307.2075,1180.6105,304.4691,1174.9743,303.9865,1175.4569,298.3503,1171.15,307.2075" style="stroke:#4A4A4A;stroke-width:1.0;"/><text fill="#000000" font-family="Microsoft YaHei" font-size="13" lengthAdjust="spacing" textLength="135" x="1270.5" y="250.2329">GetTaskStatus(taskID)</text></g><!--link Service to Protocol--><g id="link_Service_Protocol"><path d="M1059.71,362.8875 C983.54,372.2475 847.81,388.6875 731.5,401.4775 C665.78,408.7075 489.74,393.6775 435.5,431.4775 C408.5,450.2975 396.1969,481.0324 389.5469,506.4824 " fill="none" id="Service-to-Protocol" style="stroke:#4A4A4A;stroke-width:1.0;"/><polygon fill="#4A4A4A" points="388.03,512.2875,394.1753,504.5911,389.294,507.45,386.4352,502.5687,388.03,512.2875" style="stroke:#4A4A4A;stroke-width:1.0;"/><text fill="#000000" font-family="Microsoft YaHei" font-size="13" lengthAdjust="spacing" textLength="107" x="436.5" y="446.2329">&#26500;&#36896;/&#36879;&#20256;Request</text></g><!--link Service to Store--><g id="link_Service_Store"><path d="M1059.99,373.9875 C1014.93,388.4475 951.75,409.6875 897.5,431.4775 C878.86,438.9575 875.88,445.1975 856.5,450.4775 C821.6,459.9975 808.8,444.3475 775.5,458.4775 C751.75,468.5475 733.8052,482.4783 716.7152,499.0683 " fill="none" id="Service-to-Store" style="stroke:#4A4A4A;stroke-width:1.0;"/><polygon fill="#4A4A4A" points="712.41,503.2475,721.6539,499.8488,715.9976,499.7649,716.0816,494.1086,712.41,503.2475" style="stroke:#4A4A4A;stroke-width:1.0;"/><text fill="#000000" font-family="Microsoft YaHei" font-size="13" lengthAdjust="spacing" textLength="118" x="898.5" y="446.2329">&#26032;&#24314;&#19982;&#26356;&#26032;Task&#24555;&#29031;</text></g><!--link Service to Runtime--><g id="link_Service_Runtime"><path d="M1132.49,401.5575 C1142.29,436.3575 1153.8023,477.1826 1162.0523,506.4526 " fill="none" id="Service-to-Runtime" style="stroke:#4A4A4A;stroke-width:1.0;"/><polygon fill="#4A4A4A" points="1163.68,512.2275,1165.0884,502.4799,1162.3236,507.415,1157.3884,504.6502,1163.68,512.2275" style="stroke:#4A4A4A;stroke-width:1.0;"/><text fill="#000000" font-family="Microsoft YaHei" font-size="13" lengthAdjust="spacing" textLength="151" x="1146.5" y="446.2329">&#31649;&#29702;context&#19982;cancel&#21477;&#26564;</text></g><!--link Service to Queue--><g id="link_Service_Queue"><path d="M1078.16,401.9275 C1062.5,418.2275 1043.97,436.0575 1025.5,450.4775 C1000.52,469.9775 976.1235,485.4377 949.7735,500.4477 " fill="none" id="Service-to-Queue" style="stroke:#4A4A4A;stroke-width:1.0;"/><polygon fill="#4A4A4A" points="944.56,503.4175,954.3601,502.4385,948.9046,500.9427,950.4003,495.4872,944.56,503.4175" style="stroke:#4A4A4A;stroke-width:1.0;"/><text fill="#000000" font-family="Microsoft YaHei" font-size="13" lengthAdjust="spacing" textLength="65" x="1048.5" y="446.2329">&#20837;&#38431;taskID</text></g><!--link WorkerPool to Queue--><g id="link_WorkerPool_Queue"><path d="M677.59,383.0775 C703.28,396.3175 733.32,413.2675 758.5,431.4775 C787.99,452.8075 813.6894,476.723 835.7594,499.023 " fill="none" id="WorkerPool-to-Queue" style="stroke:#4A4A4A;stroke-width:1.0;"/><polygon fill="#4A4A4A" points="839.98,503.2875,836.4922,494.0769,836.4628,499.7337,830.8061,499.7044,839.98,503.2875" style="stroke:#4A4A4A;stroke-width:1.0;"/><text fill="#000000" font-family="Microsoft YaHei" font-size="13" lengthAdjust="spacing" textLength="65" x="782.5" y="446.2329">&#28040;&#36153;taskID</text></g><!--link WorkerPool to Store--><g id="link_WorkerPool_Store"><path d="M582.46,383.1275 C562.56,401.5475 544.38,426.6675 556.5,450.4775 C568.84,474.7175 586.1126,490.6935 608.3926,505.0135 " fill="none" id="WorkerPool-to-Store" style="stroke:#4A4A4A;stroke-width:1.0;"/><polygon fill="#4A4A4A" points="613.44,508.2575,608.0317,500.0265,609.2339,505.5541,603.7062,506.7563,613.44,508.2575" style="stroke:#4A4A4A;stroke-width:1.0;"/><text fill="#000000" font-family="Microsoft YaHei" font-size="13" lengthAdjust="spacing" textLength="196" x="557.5" y="446.2329">pending -&gt; running -&gt; terminal</text></g><!--link WorkerPool to Runner--><g id="link_WorkerPool_Runner"><path d="M525,363.5875 C455.86,372.6475 361.6,391.6775 287.5,431.4775 C254.28,449.3175 227.7115,474.9513 206.6215,498.9413 " fill="none" id="WorkerPool-to-Runner" style="stroke:#4A4A4A;stroke-width:1.0;"/><polygon fill="#4A4A4A" points="202.66,503.4475,211.6065,499.3292,205.9613,499.6923,205.5981,494.0471,202.66,503.4475" style="stroke:#4A4A4A;stroke-width:1.0;"/><text fill="#000000" font-family="Microsoft YaHei" font-size="13" lengthAdjust="spacing" textLength="78" x="288.5" y="446.2329">Run(ctx, req)</text></g><!--link Runner to WorkerPool--><g id="link_Runner_WorkerPool"><path d="M139.77,503.4675 C122.99,480.8275 109.72,452.2175 127.5,431.4775 C177.64,372.9975 390.4917,359.2497 518.7917,356.2097 " fill="none" id="Runner-to-WorkerPool" style="stroke:#4A4A4A;stroke-width:1.0;"/><polygon fill="#4A4A4A" points="524.79,356.0675,515.6978,352.2819,519.7914,356.186,515.8873,360.2796,524.79,356.0675" style="stroke:#4A4A4A;stroke-width:1.0;"/><text fill="#000000" font-family="Microsoft YaHei" font-size="13" lengthAdjust="spacing" textLength="122" x="128.5" y="446.2329">&#25104;&#21151;/&#22833;&#36133;/&#36229;&#26102;/&#21462;&#28040;</text></g><!--link Runner to PyEngine--><g id="link_Runner_PyEngine"><path d="M193,578.5575 C202.16,600.2875 209.83,628.4075 203.5,653.4775 C200.89,663.8175 198.9499,669.0715 193.8299,678.2215 " fill="none" id="Runner-to-PyEngine" style="stroke:#4A4A4A;stroke-width:1.0;"/><polygon fill="#4A4A4A" points="190.9,683.4575,198.7855,677.5568,193.3416,679.0942,191.8041,673.6503,190.9,683.4575" style="stroke:#4A4A4A;stroke-width:1.0;"/><text fill="#000000" font-family="Microsoft YaHei" font-size="13" lengthAdjust="spacing" textLength="109" x="207.5" y="649.2329">&#21551;&#21160;Python&#23376;&#36827;&#31243;</text></g><!--link PyEngine to Runner--><g id="link_PyEngine_Runner"><path d="M119.23,683.2575 C102.31,670.3875 89.56,653.6675 96.5,634.4775 C104.03,613.6475 114.4645,598.6203 128.8645,582.9903 " fill="none" id="PyEngine-to-Runner" style="stroke:#4A4A4A;stroke-width:1.0;"/><polygon fill="#4A4A4A" points="132.93,578.5775,123.89,582.4863,129.5421,582.2548,129.7736,587.9069,132.93,578.5775" style="stroke:#4A4A4A;stroke-width:1.0;"/><text fill="#000000" font-family="Microsoft YaHei" font-size="13" lengthAdjust="spacing" textLength="97" x="97.5" y="649.2329">Response JSON</text></g><!--link ServiceTests to Service--><g id="link_ServiceTests_Service"><path d="M769.09,185.5775 C846.08,222.4675 976.469,284.9451 1054.469,322.3151 " fill="none" id="ServiceTests-to-Service" style="stroke:#4A4A4A;stroke-width:1.0;"/><polygon fill="#4A4A4A" points="1059.88,324.9075,1053.4917,317.4115,1055.3708,322.7472,1050.0352,324.6262,1059.88,324.9075" style="stroke:#4A4A4A;stroke-width:1.0;"/></g><!--link RunnerTests to Runner--><g id="link_RunnerTests_Runner"><path d="M452.15,182.4375 C352.89,218.8575 183.7,297.7775 111.5,431.4775 C98.51,455.5275 109.3643,477.6849 127.7543,498.5649 " fill="none" id="RunnerTests-to-Runner" style="stroke:#4A4A4A;stroke-width:1.0;"/><polygon fill="#4A4A4A" points="131.72,503.0675,128.7732,493.6698,128.4153,499.3154,122.7698,498.9574,131.72,503.0675" style="stroke:#4A4A4A;stroke-width:1.0;"/></g><!--link WorkerPool to GMN35--><g id="link_WorkerPool_GMN35"><path d="M714.09,365.8075 C901.65,386.3175 1303.02,430.2975 1306.5,431.4775 C1353.29,447.3775 1400.89,477.0075 1435.23,501.2875 " fill="none" id="WorkerPool-GMN35" style="stroke:#4A4A4A;stroke-width:1.0;stroke-dasharray:7.0,7.0;"/></g><!--SRC=[TLLhJnj75Fs-ls94lc0ri0gq5OsKIed3qbHDGkD8KLLNQBeCzehrZDaTDz0gae4GtjYa5b2WF5GGLjDYI8m5COWVKyy-Fl4NEhkpXhK9GZAZdNFFd7llkJDKepe2xah5sZ_giB9Lk_hxnUbg3s7v1VjToJvTiXRUiiEnYzEfMhNAPhRjmYPRF6EBHMjzitOyQxsVlZYTbYHpKCDfQC0KC9EmdxpKS08CGDr4ePtxXa5UHebE373hy_lUNsXJ9QaqmGZJ61tXWWoaKeWJUZW-3TL1c40t0nwY0PZHgK8mVG9J23pML8EOP8227-0tI9Cag59-U8jpC6uNYjRIIHotle2QRhBfUPwi7Ftk4UT8aKWBW2Q8Gbr7XYG5nuAM7W8Uy3N2_U2feIQHIGr8DO9RmAtkRkLBHG6_IG1SmeDwrIl8KKgNyY10WQk4GGk5vg1i8kCNJKNj2HB7ppBuEVyMnr68LQIBTG-YtY968SsOliAO26ccyr0WnZD5SPo2wHyz-aSFVn8izap5oexArdB5NIvRKnzaj_27Koe9FY-ccOrheHelvdL2bTSP3TFFL5-apn20Fwde-mpAS08r2J4G377iVujflw9xTpgwMjtgYhE_8whlxpJpl2368390Bo5w73-6mr62rOnX8AoEtEji21T83yWvNadXlbZJUyxsd9iTSoVcWxvyeIXAr_M-89pGC9BJ1g549Rfe3HhAyCxBpv39OIQoYjjiOzO_ipV0tK1ZP316Xa-2Xf7Q7YMf5CJzKL75E3PfluPb_aio57mRU_gaNb4UTIq9frnq9tEryp_TrNKl0qNvIkcuda5WgZxA9VidivCAootABBTaLQPaOGRhQDGv-oVigESSRZPp2VrNL4vbWhk8hMrOXGhtqnORFs87nyxvcbsS3KclSxsIU0OXkjuHcYGOTFl5YMEOJfj9fEkoocqcf_tDlg1oubzV2cguFJqYQZqY0YL9Z2beQ_kwhXxS1S40jHfew3Rm7Cbh6laqz6h4MeKhRy0rZDybLAe3F73T01njRRnsirkocytLJhS2ppHW_N7oW4i7hFgnThnWhPNvsZk2dR-p9_OQqFKXl0li_Mqx_oOOFHucXe_bTgtDrmqX_W3n03Qnwwvi2hsIT3KN3I1k1gTy4e2QC7MbQNxnUTSw_-HP8LXIPAGq3FNcAD5yqOfMbGxVvZVsK4GAFllL2bheQSoNs4nHE8BzcnSUaYu1ZNp1uFaZ4kOB2U09JUNPpARCTWwTyguih1gu_h9dlZF3NPP2ZWqTAacOKFxYQ8aa1MJW4Xqycixu6PjPuu-cT2S2hZ-ITk6mXrZJAxnnKaS4M8MIDJSgnf3tXKqj_vST5Vhu8b3O6G6iTC9sbgpLihl-tgxofpOhgAs5NPRxI_8U8KzLeErdGYb9UU925r-Wp_rxZa-eEpblZvruAjk0C_c17Ins2a8XnJdFyqkHxma5_FNliFVUiZSJl1VSGS9bg9y3WcdY29OhYUcl7HUQvlzAt_y0]--></g></svg>