<?xml version="1.0" encoding="us-ascii" standalone="no"?><svg xmlns="http://www.w3.org/2000/svg" xmlns:xlink="http://www.w3.org/1999/xlink" contentStyleType="text/css" height="1298px" preserveAspectRatio="none" style="width:1464px;height:1298px;background:#FFFFFF;" version="1.1" viewBox="0 0 1464 1298" width="1464px" zoomAndPan="magnify"><defs/><g><text fill="#000000" font-family="Microsoft YaHei" font-size="14" font-weight="bold" lengthAdjust="spacing" textLength="298" x="576" y="24.8135">&#38454;&#27573;3&#24635;&#32467;&#65306;Wails &#21069;&#31471; MVP&#65288;&#26368;&#23567;&#21487;&#29992;&#27969;&#31243;&#65289;</text><!--cluster Wails Desktop App (Phase 3)--><g id="cluster_Wails Desktop App (Phase 3)"><rect fill="#EEF6FF" height="1105" rx="2.5" ry="2.5" style="stroke:#181818;stroke-width:1.0;" width="1212" x="7" y="187.9775"/><text fill="#000000" font-family="Microsoft YaHei" font-size="14" font-weight="bold" lengthAdjust="spacing" textLength="201" x="512.5" y="204.791">Wails Desktop App (Phase 3)</text></g><!--cluster ???--><g id="cluster_&#21069;&#31471;&#23618;"><rect fill="#F8FBFF" height="453" rx="2.5" ry="2.5" style="stroke:#181818;stroke-width:1.0;" width="276" x="605" y="232.9775"/><text fill="#000000" font-family="Microsoft YaHei" font-size="14" font-weight="bold" lengthAdjust="spacing" textLength="42" x="722" y="249.791">&#21069;&#31471;&#23618;</text></g><!--cluster Wails ???--><g id="cluster_Wails &#32465;&#23450;&#23618;"><rect fill="#F5FFF8" height="128" rx="2.5" ry="2.5" style="stroke:#181818;stroke-width:1.0;" width="290" x="905" y="566.9775"/><text fill="#000000" font-family="Microsoft YaHei" font-size="14" font-weight="bold" lengthAdjust="spacing" textLength="84" x="1008" y="583.791">Wails &#32465;&#23450;&#23618;</text></g><!--cluster Go ???--><g id="cluster_Go &#24212;&#29992;&#23618;"><rect fill="#F8FBFF" height="438" rx="2.5" ry="2.5" style="stroke:#181818;stroke-width:1.0;" width="306" x="275" y="575.9775"/><text fill="#000000" font-family="Microsoft YaHei" font-size="14" font-weight="bold" lengthAdjust="spacing" textLength="66" x="395" y="592.791">Go &#24212;&#29992;&#23618;</text></g><!--cluster ???????????2?--><g id="cluster_&#32534;&#25490;&#19982;&#25191;&#34892;&#23618;&#65288;&#22797;&#29992;&#38454;&#27573;2&#65289;"><rect fill="#F5FFF8" height="365" rx="2.5" ry="2.5" style="stroke:#181818;stroke-width:1.0;" width="266" x="605" y="903.9775"/><text fill="#000000" font-family="Microsoft YaHei" font-size="14" font-weight="bold" lengthAdjust="spacing" textLength="177" x="649.5" y="920.791">&#32534;&#25490;&#19982;&#25191;&#34892;&#23618;&#65288;&#22797;&#29992;&#38454;&#27573;2&#65289;</text></g><!--cluster ????--><g id="cluster_&#36136;&#37327;&#20445;&#38556;"><rect fill="#FFF9F2" height="110" rx="2.5" ry="2.5" style="stroke:#181818;stroke-width:1.0;" width="220" x="31" y="575.9775"/><text fill="#000000" font-family="Microsoft YaHei" font-size="14" font-weight="bold" lengthAdjust="spacing" textLength="56" x="113" y="592.791">&#36136;&#37327;&#20445;&#38556;</text></g><!--entity Index--><g id="elem_Index"><rect fill="#F1F1F1" height="56.9551" rx="2.5" ry="2.5" style="stroke:#181818;stroke-width:0.5;" width="206" x="640" y="269.9775"/><text fill="#000000" font-family="Microsoft YaHei" font-size="14" lengthAdjust="spacing" textLength="71" x="650" y="294.791">index.html</text><text fill="#000000" font-family="Microsoft YaHei" font-size="14" lengthAdjust="spacing" textLength="186" x="650" y="313.2686">&#21442;&#25968;&#37197;&#32622;/&#36827;&#24230;/&#32467;&#26524;/&#38169;&#35823;&#38754;&#26495;</text></g><!--entity MainJS--><g id="elem_MainJS"><rect fill="#F1F1F1" height="56.9551" rx="2.5" ry="2.5" style="stroke:#181818;stroke-width:0.5;" width="244" x="621" y="425.4775"/><text fill="#000000" font-family="Microsoft YaHei" font-size="14" lengthAdjust="spacing" textLength="71" x="631" y="450.291">src/main.js</text><text fill="#000000" font-family="Microsoft YaHei" font-size="14" lengthAdjust="spacing" textLength="224" x="631" y="468.7686">&#20219;&#21153;&#21551;&#21160;&#12289;&#36718;&#35810;&#12289;&#21462;&#28040;&#12289;&#37325;&#35797;&#12289;&#23548;&#20986;</text></g><!--entity Style--><g id="elem_Style"><rect fill="#F1F1F1" height="56.9551" rx="2.5" ry="2.5" style="stroke:#181818;stroke-width:0.5;" width="160" x="663" y="612.9775"/><text fill="#000000" font-family="Microsoft YaHei" font-size="14" lengthAdjust="spacing" textLength="76" x="673" y="637.791">src/style.css</text><text fill="#000000" font-family="Microsoft YaHei" font-size="14" lengthAdjust="spacing" textLength="140" x="673" y="656.2686">&#29366;&#24577;&#26679;&#24335;&#19982;&#36827;&#24230;&#21487;&#35270;&#21270;</text></g><!--entity Binding--><g id="elem_Binding"><rect fill="#F1F1F1" height="75.4326" rx="2.5" ry="2.5" style="stroke:#181818;stroke-width:0.5;" width="258" x="921" y="603.9775"/><text fill="#000000" font-family="Microsoft YaHei" font-size="14" lengthAdjust="spacing" textLength="151" x="931" y="628.791">window.go.main.App.*</text><text fill="#000000" font-family="Microsoft YaHei" font-size="14" lengthAdjust="spacing" textLength="238" x="931" y="647.2686">RunTask/GetTaskStatus/CancelTask</text><text fill="#000000" font-family="Microsoft YaHei" font-size="14" lengthAdjust="spacing" textLength="180" x="931" y="665.7461">SelectCSV/SelectOutputDir</text></g><!--entity WMain--><g id="elem_WMain"><rect fill="#F1F1F1" height="56.9551" rx="2.5" ry="2.5" style="stroke:#181818;stroke-width:0.5;" width="175" x="370.5" y="612.9775"/><text fill="#000000" font-family="Microsoft YaHei" font-size="14" lengthAdjust="spacing" textLength="129" x="380.5" y="637.791">cmd/wails/main.go</text><text fill="#000000" font-family="Microsoft YaHei" font-size="14" lengthAdjust="spacing" textLength="155" x="380.5" y="656.2686">Wails &#21551;&#21160;&#19982; Bind(App)</text></g><!--entity WApp--><g id="elem_WApp"><rect fill="#F1F1F1" height="56.9551" rx="2.5" ry="2.5" style="stroke:#181818;stroke-width:0.5;" width="194" x="361" y="770.9775"/><text fill="#000000" font-family="Microsoft YaHei" font-size="14" lengthAdjust="spacing" textLength="121" x="371" y="795.791">cmd/wails/app.go</text><text fill="#000000" font-family="Microsoft YaHei" font-size="14" lengthAdjust="spacing" textLength="174" x="371" y="814.2686">payload &#24402;&#19968;&#21270; + &#26041;&#27861;&#26292;&#38706;</text></g><!--entity Dialog--><g id="elem_Dialog"><rect fill="#F1F1F1" height="56.9551" rx="2.5" ry="2.5" style="stroke:#181818;stroke-width:0.5;" width="274" x="291" y="940.9775"/><text fill="#000000" font-family="Microsoft YaHei" font-size="14" lengthAdjust="spacing" textLength="100" x="301" y="965.791">runtime dialog</text><text fill="#000000" font-family="Microsoft YaHei" font-size="14" lengthAdjust="spacing" textLength="254" x="301" y="984.2686">OpenFileDialog/OpenDirectoryDialog</text></g><!--entity TaskService--><g id="elem_TaskService"><rect fill="#F1F1F1" height="56.9551" rx="2.5" ry="2.5" style="stroke:#181818;stroke-width:0.5;" width="177" x="626.5" y="940.9775"/><text fill="#000000" font-family="Microsoft YaHei" font-size="14" lengthAdjust="spacing" textLength="157" x="636.5" y="965.791">internal/task/service.go</text><text fill="#000000" font-family="Microsoft YaHei" font-size="14" lengthAdjust="spacing" textLength="112" x="636.5" y="984.2686">&#20219;&#21153;&#29983;&#21629;&#21608;&#26399;&#31649;&#29702;</text></g><!--entity Runner--><g id="elem_Runner"><rect fill="#F1F1F1" height="56.9551" rx="2.5" ry="2.5" style="stroke:#181818;stroke-width:0.5;" width="197" x="630.5" y="1078.9775"/><text fill="#000000" font-family="Microsoft YaHei" font-size="14" lengthAdjust="spacing" textLength="177" x="640.5" y="1103.791">internal/engine/runner.go</text><text fill="#000000" font-family="Microsoft YaHei" font-size="14" lengthAdjust="spacing" textLength="155" x="640.5" y="1122.2686">exec.CommandContext</text></g><!--entity PyEngine--><g id="elem_PyEngine"><rect fill="#F1F1F1" height="38.4775" rx="2.5" ry="2.5" style="stroke:#181818;stroke-width:0.5;" width="233" x="621.5" y="1214.9775"/><text fill="#000000" font-family="Microsoft YaHei" font-size="14" lengthAdjust="spacing" textLength="213" x="631.5" y="1239.791">python_engine/engine_main.py</text></g><!--entity WailsTests--><g id="elem_WailsTests"><rect fill="#F1F1F1" height="56.9551" rx="2.5" ry="2.5" style="stroke:#181818;stroke-width:0.5;" width="188" x="47" y="612.9775"/><text fill="#000000" font-family="Microsoft YaHei" font-size="14" lengthAdjust="spacing" textLength="151" x="57" y="637.791">cmd/wails/app_test.go</text><text fill="#000000" font-family="Microsoft YaHei" font-size="14" lengthAdjust="spacing" textLength="168" x="57" y="656.2686">&#35831;&#27714;&#24402;&#19968;&#21270;&#19982;&#36229;&#26102;&#35299;&#26512;&#27979;&#35797;</text></g><!--entity User--><g id="elem_User"><ellipse cx="743" cy="53.4775" fill="#F1F1F1" rx="8" ry="8" style="stroke:#181818;stroke-width:0.5;"/><path d="M743,61.4775 L743,88.4775 M730,69.4775 L756,69.4775 M743,88.4775 L730,103.4775 M743,88.4775 L756,103.4775 " fill="none" style="stroke:#181818;stroke-width:0.5;"/><text fill="#000000" font-family="Microsoft YaHei" font-size="14" lengthAdjust="spacing" textLength="28" x="729" y="119.791">&#29992;&#25143;</text></g><g id="elem_GMN31"><path d="M1235,405.9775 L1235,449.9775 L865.11,453.9775 L1235,457.9775 L1235,501.7661 A0,0 0 0 0 1235,501.7661 L1439,501.7661 A0,0 0 0 0 1439,501.7661 L1439,415.9775 L1429,405.9775 L1235,405.9775 A0,0 0 0 0 1235,405.9775 " fill="#FEFFDD" style="stroke:#181818;stroke-width:0.5;"/><path d="M1429,405.9775 L1429,415.9775 L1439,415.9775 L1429,405.9775 " fill="#FEFFDD" style="stroke:#181818;stroke-width:0.5;"/><text fill="#000000" font-family="Microsoft YaHei" font-size="13" lengthAdjust="spacing" textLength="137" x="1241" y="424.7329">&#38454;&#27573;3 MVP &#20851;&#38190;&#33021;&#21147;&#65306;</text><text fill="#000000" font-family="Microsoft YaHei" font-size="13" lengthAdjust="spacing" textLength="138" x="1241" y="441.8906">1) &#21442;&#25968;&#37197;&#32622; + &#25991;&#20214;&#36873;&#25321;</text><text fill="#000000" font-family="Microsoft YaHei" font-size="13" lengthAdjust="spacing" textLength="138" x="1241" y="459.0483">2) &#21551;&#21160;&#20219;&#21153; + &#36718;&#35810;&#36827;&#24230;</text><text fill="#000000" font-family="Microsoft YaHei" font-size="13" lengthAdjust="spacing" textLength="183" x="1241" y="476.2061">3) &#32467;&#26524;&#23637;&#31034; + JSON/CSV &#23548;&#20986;</text><text fill="#000000" font-family="Microsoft YaHei" font-size="13" lengthAdjust="spacing" textLength="138" x="1241" y="493.3638">4) &#38169;&#35823;&#21487;&#35835; + &#19968;&#38190;&#37325;&#35797;</text></g><g id="elem_GMN34"><path d="M1235,759.9775 L1235,838.6084 A0,0 0 0 0 1235,838.6084 L1457,838.6084 A0,0 0 0 0 1457,838.6084 L1457,769.9775 L1447,759.9775 L1276.91,759.9775 L1119.4,679.0575 L1268.91,759.9775 L1235,759.9775 A0,0 0 0 0 1235,759.9775 " fill="#FEFFDD" style="stroke:#181818;stroke-width:0.5;"/><path d="M1447,759.9775 L1447,769.9775 L1457,769.9775 L1447,759.9775 " fill="#FEFFDD" style="stroke:#181818;stroke-width:0.5;"/><text fill="#000000" font-family="Microsoft YaHei" font-size="13" lengthAdjust="spacing" textLength="99" x="1241" y="778.7329">&#38454;&#27573;3&#39564;&#25910;&#30446;&#26631;&#65306;</text><text fill="#000000" font-family="Microsoft YaHei" font-size="13" lengthAdjust="spacing" textLength="193" x="1241" y="795.8906">- UI &#20869;&#23436;&#25104; &#19978;&#20256;/&#36816;&#34892;/&#26597;&#30475;/&#23548;&#20986;</text><text fill="#000000" font-family="Microsoft YaHei" font-size="13" lengthAdjust="spacing" textLength="201" x="1241" y="813.0483">- &#36816;&#34892;&#26399;&#38388; UI &#19981;&#20923;&#32467;&#65288;&#24322;&#27493;&#36718;&#35810;&#65289;</text><text fill="#000000" font-family="Microsoft YaHei" font-size="13" lengthAdjust="spacing" textLength="140" x="1241" y="830.2061">- &#20851;&#38190;&#38169;&#35823;&#21487;&#35835;&#19988;&#21487;&#37325;&#35797;</text></g><!--link User to Index--><g id="link_User_Index"><path d="M743,123.4575 C743,165.6775 743,226.3975 743,263.7675 " fill="none" id="User-to-Index" style="stroke:#4A4A4A;stroke-width:1.0;"/><polygon fill="#4A4A4A" points="743,269.7675,747,260.7675,743,264.7675,739,260.7675,743,269.7675" style="stroke:#4A4A4A;stroke-width:1.0;"/><text fill="#000000" font-family="Microsoft YaHei" font-size="13" lengthAdjust="spacing" textLength="117" x="744" y="167.7329">&#37197;&#32622;&#21442;&#25968;&#19982;&#35302;&#21457;&#25805;&#20316;</text></g><!--link Index to MainJS--><g id="link_Index_MainJS"><path d="M743,327.2775 C743,355.0975 743,391.6375 743,419.3875 " fill="none" id="Index-to-MainJS" style="stroke:#4A4A4A;stroke-width:1.0;"/><polygon fill="#4A4A4A" points="743,425.3875,747,416.3875,743,420.3875,739,416.3875,743,425.3875" style="stroke:#4A4A4A;stroke-width:1.0;"/><text fill="#000000" font-family="Microsoft YaHei" font-size="13" lengthAdjust="spacing" textLength="52" x="744" y="371.7329">&#39029;&#38754;&#20132;&#20114;</text></g><!--link MainJS to Style--><g id="link_MainJS_Style"><path d="M743,482.7475 C743,517.8175 743,571.7975 743,606.8175 " fill="none" id="MainJS-to-Style" style="stroke:#4A4A4A;stroke-width:1.0;"/><polygon fill="#4A4A4A" points="743,612.8175,747,603.8175,743,607.8175,739,603.8175,743,612.8175" style="stroke:#4A4A4A;stroke-width:1.0;"/><text fill="#000000" font-family="Microsoft YaHei" font-size="13" lengthAdjust="spacing" textLength="78" x="744" y="546.7329">&#29366;&#24577;&#35270;&#35273;&#26356;&#26032;</text></g><!--link MainJS to Binding--><g id="link_MainJS_Binding"><path d="M788.63,482.5475 C842,514.7975 925.4047,565.1945 984.4347,600.8645 " fill="none" id="MainJS-to-Binding" style="stroke:#4A4A4A;stroke-width:1.0;"/><polygon fill="#4A4A4A" points="989.57,603.9675,983.9358,595.8894,985.2906,601.3816,979.7984,602.7364,989.57,603.9675" style="stroke:#4A4A4A;stroke-width:1.0;"/><text fill="#000000" font-family="Microsoft YaHei" font-size="13" lengthAdjust="spacing" textLength="104" x="897" y="546.7329">&#35843;&#29992; Go &#32465;&#23450;&#26041;&#27861;</text></g><!--link Binding to WApp--><g id="link_Binding_WApp"><path d="M954.14,679.0775 C930.42,687.4975 904.94,696.0175 881,702.9775 C770.57,735.0775 647.2144,761.7054 560.9144,778.8954 " fill="none" id="Binding-to-WApp" style="stroke:#4A4A4A;stroke-width:1.0;"/><polygon fill="#4A4A4A" points="555.03,780.0675,564.638,782.2323,559.9337,779.0908,563.0752,774.3864,555.03,780.0675" style="stroke:#4A4A4A;stroke-width:1.0;"/><text fill="#000000" font-family="Microsoft YaHei" font-size="13" lengthAdjust="spacing" textLength="52" x="848" y="725.7329">&#26041;&#27861;&#35843;&#29992;</text></g><!--link WMain to WApp--><g id="link_WMain_WApp"><path d="M458,670.0075 C458,698.4375 458,736.5375 458,764.9575 " fill="none" id="WMain-to-WApp" style="stroke:#4A4A4A;stroke-width:1.0;"/><polygon fill="#4A4A4A" points="458,770.9575,462,761.9575,458,765.9575,454,761.9575,458,770.9575" style="stroke:#4A4A4A;stroke-width:1.0;"/><text fill="#000000" font-family="Microsoft YaHei" font-size="13" lengthAdjust="spacing" textLength="60" x="459" y="725.7329">Bind(App)</text></g><!--link WApp to Dialog--><g id="link_WApp_Dialog"><path d="M453.05,828.2175 C447.47,859.4375 439.5249,903.941 433.9649,935.071 " fill="none" id="WApp-to-Dialog" style="stroke:#4A4A4A;stroke-width:1.0;"/><polygon fill="#4A4A4A" points="432.91,940.9775,438.4301,932.821,433.7891,936.0554,430.5547,931.4144,432.91,940.9775" style="stroke:#4A4A4A;stroke-width:1.0;"/><text fill="#000000" font-family="Microsoft YaHei" font-size="13" lengthAdjust="spacing" textLength="114" x="447" y="883.7329">&#36873;&#25321; CSV/&#36755;&#20986;&#30446;&#24405;</text></g><!--link WApp to TaskService--><g id="link_WApp_TaskService"><path d="M504.39,828.0975 C524.68,840.3775 548.67,855.1575 570,868.9775 C606.38,892.5575 642.0949,917.1563 671.0749,937.4463 " fill="none" id="WApp-to-TaskService" style="stroke:#4A4A4A;stroke-width:1.0;"/><polygon fill="#4A4A4A" points="675.99,940.8875,670.9115,932.449,671.8941,938.0198,666.3232,939.0024,675.99,940.8875" style="stroke:#4A4A4A;stroke-width:1.0;"/><text fill="#000000" font-family="Microsoft YaHei" font-size="13" lengthAdjust="spacing" textLength="219" x="600" y="883.7329">RunTask/GetTaskStatus/CancelTask</text></g><!--link TaskService to Runner--><g id="link_TaskService_Runner"><path d="M717.83,997.9975 C720.25,1021.4375 723.0869,1048.9989 725.5069,1072.5589 " fill="none" id="TaskService-to-Runner" style="stroke:#4A4A4A;stroke-width:1.0;"/><polygon fill="#4A4A4A" points="726.12,1078.5275,729.1795,1069.1659,725.6091,1073.5537,721.2213,1069.9834,726.12,1078.5275" style="stroke:#4A4A4A;stroke-width:1.0;"/><text fill="#000000" font-family="Microsoft YaHei" font-size="13" lengthAdjust="spacing" textLength="52" x="724" y="1044.7329">&#25191;&#34892;&#20219;&#21153;</text></g><!--link Runner to PyEngine--><g id="link_Runner_PyEngine"><path d="M731,1136.1075 C732.73,1160.0375 734.7464,1187.9832 736.2464,1208.6832 " fill="none" id="Runner-to-PyEngine" style="stroke:#4A4A4A;stroke-width:1.0;"/><polygon fill="#4A4A4A" points="736.68,1214.6675,740.0191,1205.402,736.3186,1209.6806,732.04,1205.9802,736.68,1214.6675" style="stroke:#4A4A4A;stroke-width:1.0;"/><text fill="#000000" font-family="Microsoft YaHei" font-size="13" lengthAdjust="spacing" textLength="104" x="735" y="1180.7329">&#35843;&#29992; Python &#24341;&#25806;</text></g><!--link WailsTests to WApp--><g id="link_WailsTests_WApp"><path d="M196.94,670.0075 C254.71,698.4375 338.9466,739.8882 396.6966,768.3082 " fill="none" id="WailsTests-to-WApp" style="stroke:#4A4A4A;stroke-width:1.0;"/><polygon fill="#4A4A4A" points="402.08,770.9575,395.7711,763.3946,397.5938,768.7498,392.2387,770.5725,402.08,770.9575" style="stroke:#4A4A4A;stroke-width:1.0;"/><text fill="#000000" font-family="Microsoft YaHei" font-size="13" lengthAdjust="spacing" textLength="91" x="320" y="725.7329">&#35206;&#30422;&#24402;&#19968;&#21270;&#36923;&#36753;</text></g><!--SRC=[XLPTJnj757tVNp4YBt4hl2gaLPg7IWJOD948AEH3bP3GrXxCblMivHq2gAfaYFZ6V0H3MZ01KX9egzhGWA7O3Z-cdjdr4t-XTsOMiA1G-S7hcJjdppttdZkc5hKnglvSuBc3HfugUiN5qzBA2zEoNSGcqzuVUTJslEEqDC6pAROxn-RoNcQ77mnxEzEdfKbDS_iiaZ2JPXovlMRK6R183FMOjejhTfgIIMUWsR6T9BfrfqbyQZOZJZpX44ne9nq29aaSeIQ9sRNd4sQapupXwmDQS8_PRrF38VIn6SUepOea7TVfeUWxyrjiQPePeV3oEa5zuh0EcIvwvkAafWN8g4ubt8BTFkeaK5CYWMvtz9ekHesXEdIhjTNuoZ3GZnf2voUKE6nl1FQDkyRzO1zT98JgB1B5W-5U6hUx29iRuKkxrT6qLyxf_iagE_wWWzZyRLQlPdxny_dgsZk-TYB9FHJdBeEvoOWUDoqI_i7j8fLYaKrjilayczhv9pNibtD-_XqyiBbbNfY0X-fusiylYPLyYOqVIzWsEFseyxzmNI5jEE82iZTLuAbXld78IdELerd55ChkRu-ncMM98mi1C3zfjO8e2RtY0ikj1B9yQHZ6tQkoG9D0fuHZJbZc0sg7F-iYJ_h9KzFjqnzWAhuxgKdxNRtP915iYuKkqebjA7vpvtDTFRNtqqG_RR6IajLzG8NkkyBhWOFOSGPAVtEj8l6eFY1IK2B7d2uIk42A35B8Dzm6jY7vlXT2pkjHJCXAW2JC8TineuYLNrUEKY0X-XpnvR_vnoM-ib_D_gMm0FKoLBAVK0kQEMgPjXFh8kq9J0pBnYtojov-GkfOTFQGMfDGwl6A2bvfcSy2Wra-kUrlpe0Mu6csbGPTbFaRmCutrCmY52U9QUjKr0ZCyzAAO9cWQaKliyuMocnXXsVNlTocDpycsSXAgk1h4J69MGJha2_1IGc91t4atEp4uoQ9DeEfyI2LQ4zao6MWn13jTKXt0AE-kcKH4qFoMCTGgroy8eg_lrCTdwkSh5LNiY9tm_ZQQBYfDQ2etHIxLBBqyuTyR-Iyhi8iXL7-fk1l_yhVplE3QJ2Wgguu-nIEkP81S13J1zNNVwESZkuXDHVKZ110ss2v1RwOhfIpceeHqSh08dpp0CP5vNYhSlnQ2rP5W1gHzv0oCLZMtvxag_jyURSsAd0AnFcxhw0145X4-LOrfdOM8895QqAasb7nccpzsjrpPsXoGUoeFXHSKvDy-ZSaREj_MeHPvAtcM7df8hAcHo3y_yQ0LXikZgkc41HbPwjsr89L4N1M_ejyEsJ785PQuekpsaLvQbFoFunvgyldrQscYlwd1KqZ3eKxo8hrKkJqd4tKuFeKDoLYen-hcPp_giocLk4crRu8eThHBzq_NYaMb2nQG-Xim4ZUiArckPgxMcC8gKk2xIrvMyUm_QYp_R4EOY8rsBKx8QJk3p6ZyqM80CB0G5q06YPH93W7pBztA7NYWlhPk0ouLt-VuPa2b8PlZ0lQzUZPGyJ6HbbkXa_C0-PKfRG1zzOyIAppzVTUTbeF6DGZjGpEhxxP5-SgHsasflvAJB3I2F_plKfA_6Ee3nIg9Lqvoi33PSR_0W00]--></g></svg>