<?xml version="1.0" encoding="us-ascii" standalone="no"?><svg xmlns="http://www.w3.org/2000/svg" xmlns:xlink="http://www.w3.org/1999/xlink" contentStyleType="text/css" height="1168px" preserveAspectRatio="none" style="width:1151px;height:1168px;background:#FFFFFF;" version="1.1" viewBox="0 0 1151 1168" width="1151px" zoomAndPan="magnify"><defs/><g><text fill="#000000" font-family="Microsoft YaHei" font-size="14" font-weight="bold" lengthAdjust="spacing" textLength="283" x="427" y="24.8135">&#38454;&#27573;1&#24635;&#32467;&#65306;Python&#20869;&#26680;&#20174;&#33050;&#26412;&#21040;&#21487;&#35843;&#29992;&#24341;&#25806;</text><!--cluster ??1?????Engine??--><g id="cluster_&#38454;&#27573;1&#20135;&#29289;&#24635;&#35272;&#65288;Engine&#21270;&#65289;"><rect fill="#EEF6FF" height="1116" rx="2.5" ry="2.5" style="stroke:#181818;stroke-width:1.0;" width="849" x="7" y="46.4775"/><text fill="#000000" font-family="Microsoft YaHei" font-size="14" font-weight="bold" lengthAdjust="spacing" textLength="182" x="340.5" y="63.291">&#38454;&#27573;1&#20135;&#29289;&#24635;&#35272;&#65288;Engine&#21270;&#65289;</text></g><!--cluster ??????--><g id="cluster_&#20837;&#21475;&#19982;&#21327;&#35758;&#23618;"><rect fill="#F8FBFF" height="316" rx="2.5" ry="2.5" style="stroke:#181818;stroke-width:1.0;" width="385" x="209" y="408.4775"/><text fill="#000000" font-family="Microsoft YaHei" font-size="14" font-weight="bold" lengthAdjust="spacing" textLength="84" x="359.5" y="425.291">&#20837;&#21475;&#19982;&#21327;&#35758;&#23618;</text></g><!--cluster ??????--><g id="cluster_&#26381;&#21153;&#19982;&#31639;&#27861;&#23618;"><rect fill="#F5FFF8" height="533" rx="2.5" ry="2.5" style="stroke:#181818;stroke-width:1.0;" width="214" x="618" y="605.4775"/><text fill="#000000" font-family="Microsoft YaHei" font-size="14" font-weight="bold" lengthAdjust="spacing" textLength="84" x="683" y="622.291">&#26381;&#21153;&#19982;&#31639;&#27861;&#23618;</text></g><!--cluster ????--><g id="cluster_&#36136;&#37327;&#20445;&#38556;"><rect fill="#FFF9F2" height="248" rx="2.5" ry="2.5" style="stroke:#181818;stroke-width:1.0;" width="206" x="208" y="91.4775"/><text fill="#000000" font-family="Microsoft YaHei" font-size="14" font-weight="bold" lengthAdjust="spacing" textLength="56" x="283" y="108.291">&#36136;&#37327;&#20445;&#38556;</text></g><!--entity Main--><g id="elem_Main"><rect fill="#F1F1F1" height="93.9102" rx="2.5" ry="2.5" style="stroke:#181818;stroke-width:0.5;" width="178" x="400" y="445.4775"/><text fill="#000000" font-family="Microsoft YaHei" font-size="14" lengthAdjust="spacing" textLength="106" x="410" y="470.291">engine_main.py</text><text fill="#000000" font-family="Microsoft YaHei" font-size="14" lengthAdjust="spacing" textLength="76" x="410" y="488.7686">&#32479;&#19968;CLI&#20837;&#21475;</text><text fill="#000000" font-family="Microsoft YaHei" font-size="14" lengthAdjust="spacing" textLength="138" x="410" y="507.2461">&#35835;&#21462; input.json/stdin</text><text fill="#000000" font-family="Microsoft YaHei" font-size="14" lengthAdjust="spacing" textLength="158" x="410" y="525.7236">&#36755;&#20986; output.json/stdout</text></g><!--entity Protocol--><g id="elem_Protocol"><rect fill="#F1F1F1" height="75.4326" rx="2.5" ry="2.5" style="stroke:#181818;stroke-width:0.5;" width="172" x="225" y="633.4775"/><text fill="#000000" font-family="Microsoft YaHei" font-size="14" lengthAdjust="spacing" textLength="129" x="235" y="658.291">engine_protocol.py</text><text fill="#000000" font-family="Microsoft YaHei" font-size="14" lengthAdjust="spacing" textLength="152" x="235" y="676.7686">Request/Response&#27169;&#22411;</text><text fill="#000000" font-family="Microsoft YaHei" font-size="14" lengthAdjust="spacing" textLength="70" x="235" y="695.2461">&#32479;&#19968;&#38169;&#35823;&#30721;</text></g><!--entity Logging--><g id="elem_Logging"><rect fill="#F1F1F1" height="75.4326" rx="2.5" ry="2.5" style="stroke:#181818;stroke-width:0.5;" width="145" x="432.5" y="633.4775"/><text fill="#000000" font-family="Microsoft YaHei" font-size="14" lengthAdjust="spacing" textLength="125" x="442.5" y="658.291">engine_logging.py</text><text fill="#000000" font-family="Microsoft YaHei" font-size="14" lengthAdjust="spacing" textLength="116" x="442.5" y="676.7686">&#32467;&#26500;&#21270;&#26085;&#24535;(JSON)</text><text fill="#000000" font-family="Microsoft YaHei" font-size="14" lengthAdjust="spacing" textLength="123" x="442.5" y="695.2461">stderr&#19982;stdout&#20998;&#31163;</text></g><!--entity Service--><g id="elem_Service"><rect fill="#F1F1F1" height="56.9551" rx="2.5" ry="2.5" style="stroke:#181818;stroke-width:0.5;" width="137" x="634.5" y="642.4775"/><text fill="#000000" font-family="Microsoft YaHei" font-size="14" lengthAdjust="spacing" textLength="117" x="644.5" y="667.291">engine_service.py</text><text fill="#000000" font-family="Microsoft YaHei" font-size="14" lengthAdjust="spacing" textLength="112" x="644.5" y="685.7686">action&#36335;&#30001;&#19982;&#35843;&#24230;</text></g><!--entity EngineCore--><g id="elem_EngineCore"><rect fill="#F1F1F1" height="56.9551" rx="2.5" ry="2.5" style="stroke:#181818;stroke-width:0.5;" width="138" x="637" y="791.4775"/><text fill="#000000" font-family="Microsoft YaHei" font-size="14" lengthAdjust="spacing" textLength="101" x="647" y="816.291">engine_core.py</text><text fill="#000000" font-family="Microsoft YaHei" font-size="14" lengthAdjust="spacing" textLength="118" x="647" y="834.7686">&#35757;&#32451;/&#26816;&#27979;&#21160;&#20316;&#23553;&#35013;</text></g><!--entity TrainingCore--><g id="elem_TrainingCore"><rect fill="#F1F1F1" height="56.9551" rx="2.5" ry="2.5" style="stroke:#181818;stroke-width:0.5;" width="151" x="634.5" y="929.4775"/><text fill="#000000" font-family="Microsoft YaHei" font-size="14" lengthAdjust="spacing" textLength="131" x="644.5" y="954.291">src/training_core.py</text><text fill="#000000" font-family="Microsoft YaHei" font-size="14" lengthAdjust="spacing" textLength="84" x="644.5" y="972.7686">&#26680;&#24515;&#31639;&#27861;&#36923;&#36753;</text></g><!--entity Utils--><g id="elem_Utils"><rect fill="#F1F1F1" height="56.9551" rx="2.5" ry="2.5" style="stroke:#181818;stroke-width:0.5;" width="173" x="634.5" y="1065.4775"/><text fill="#000000" font-family="Microsoft YaHei" font-size="14" lengthAdjust="spacing" textLength="71" x="644.5" y="1090.291">src/utils.py</text><text fill="#000000" font-family="Microsoft YaHei" font-size="14" lengthAdjust="spacing" textLength="153" x="644.5" y="1108.7686">&#20860;&#23481;&#23548;&#20986;(&#19981;&#30772;&#22351;app.py)</text></g><!--entity Tests--><g id="elem_Tests"><rect fill="#F1F1F1" height="56.9551" rx="2.5" ry="2.5" style="stroke:#181818;stroke-width:0.5;" width="174" x="224" y="266.4775"/><text fill="#000000" font-family="Microsoft YaHei" font-size="14" lengthAdjust="spacing" textLength="143" x="234" y="291.291">tests/python_engine/</text><text fill="#000000" font-family="Microsoft YaHei" font-size="14" lengthAdjust="spacing" textLength="154" x="234" y="309.7686">&#21327;&#35758;&#12289;&#24322;&#24120;&#12289;&#30830;&#23450;&#24615;&#27979;&#35797;</text></g><!--entity Coverage--><g id="elem_Coverage"><rect fill="#F1F1F1" height="56.9551" rx="2.5" ry="2.5" style="stroke:#181818;stroke-width:0.5;" width="174" x="224" y="128.4775"/><text fill="#000000" font-family="Microsoft YaHei" font-size="14" lengthAdjust="spacing" textLength="119" x="234" y="153.291">pytest + coverage</text><text fill="#000000" font-family="Microsoft YaHei" font-size="14" lengthAdjust="spacing" textLength="154" x="234" y="171.7686">&#26680;&#24515;&#31639;&#27861;&#35206;&#30422;&#29575; &gt;= 80%</text></g><!--entity Caller--><g id="elem_Caller"><ellipse cx="930" cy="254.9775" fill="#F1F1F1" rx="8" ry="8" style="stroke:#181818;stroke-width:0.5;"/><path d="M930,262.9775 L930,289.9775 M917,270.9775 L943,270.9775 M930,289.9775 L917,304.9775 M930,289.9775 L943,304.9775 " fill="none" style="stroke:#181818;stroke-width:0.5;"/><text fill="#000000" font-family="Microsoft YaHei" font-size="14" lengthAdjust="spacing" textLength="42" x="872" y="321.291">&#35843;&#29992;&#26041;</text><text fill="#000000" font-family="Microsoft YaHei" font-size="14" lengthAdjust="spacing" textLength="116" x="872" y="339.7686">(Go/Wails/CLI/CI)</text></g><g id="elem_GMN26"><path d="M872,444.4775 L872,488.4775 L578.2,492.4775 L872,496.4775 L872,540.2661 A0,0 0 0 0 872,540.2661 L1144,540.2661 A0,0 0 0 0 1144,540.2661 L1144,454.4775 L1134,444.4775 L872,444.4775 A0,0 0 0 0 872,444.4775 " fill="#FEFFDD" style="stroke:#181818;stroke-width:0.5;"/><path d="M1134,444.4775 L1134,454.4775 L1144,454.4775 L1134,444.4775 " fill="#FEFFDD" style="stroke:#181818;stroke-width:0.5;"/><text fill="#000000" font-family="Microsoft YaHei" font-size="13" lengthAdjust="spacing" textLength="138" x="878" y="463.2329">&#38454;&#27573;1&#20851;&#38190;&#30446;&#26631;&#24050;&#33853;&#22320;&#65306;</text><text fill="#000000" font-family="Microsoft YaHei" font-size="13" lengthAdjust="spacing" textLength="200" x="878" y="480.3906">1) &#33050;&#26412;&#36923;&#36753;&#20998;&#23618;&#65306;&#31639;&#27861;&#23618; vs CLI&#23618;</text><text fill="#000000" font-family="Microsoft YaHei" font-size="13" lengthAdjust="spacing" textLength="251" x="878" y="497.5483">2) &#36755;&#20837;&#36755;&#20986;&#21327;&#35758;&#65306;input.json / output.json</text><text fill="#000000" font-family="Microsoft YaHei" font-size="13" lengthAdjust="spacing" textLength="198" x="878" y="514.7061">3) &#38169;&#35823;&#30721;&#32479;&#19968;&#65306;&#24322;&#24120;&#21487;&#35835;&#12289;&#21487;&#23450;&#20301;</text><text fill="#000000" font-family="Microsoft YaHei" font-size="13" lengthAdjust="spacing" textLength="224" x="878" y="531.8638">4) &#32467;&#26524;&#21487;&#22797;&#29616;&#65306;&#21516;&#19968;&#36755;&#20837;&#22810;&#27425;&#36755;&#20986;&#19968;&#33268;</text></g><g id="elem_GMN29"><path d="M872.5,789.4775 L872.5,850.9507 L1085.5,850.9507 L1085.5,799.4775 L1075.5,789.4775 L872.5,789.4775 " fill="#FEFFDD" style="stroke:#181818;stroke-width:0.5;"/><path d="M1075.5,789.4775 L1075.5,799.4775 L1085.5,799.4775 L1075.5,789.4775 " fill="#FEFFDD" style="stroke:#181818;stroke-width:1.0;"/><text fill="#000000" font-family="Microsoft YaHei" font-size="13" lengthAdjust="spacing" textLength="99" x="878.5" y="808.2329">&#23545;&#38454;&#27573;2&#30340;&#20215;&#20540;&#65306;</text><text fill="#000000" font-family="Microsoft YaHei" font-size="13" lengthAdjust="spacing" textLength="192" x="878.5" y="825.3906">Go&#21518;&#31471;&#21487;&#31283;&#23450;&#35843;&#29992;Python&#24341;&#25806;&#65292;</text><text fill="#000000" font-family="Microsoft YaHei" font-size="13" lengthAdjust="spacing" textLength="143" x="878.5" y="842.5483">&#21069;&#31471;&#19981;&#20877;&#30452;&#36830;&#31639;&#27861;&#33050;&#26412;&#12290;</text></g><!--link Caller to Main--><g id="link_Caller_Main"><path d="M871.89,321.7375 C796.93,354.9675 671.2652,410.6761 583.6452,449.5161 " fill="none" id="Caller-to-Main" style="stroke:#4A4A4A;stroke-width:1.0;"/><polygon fill="#4A4A4A" points="578.16,451.9475,588.0089,451.9571,582.731,449.9213,584.7669,444.6435,578.16,451.9475" style="stroke:#4A4A4A;stroke-width:1.0;"/><text fill="#000000" font-family="Microsoft YaHei" font-size="13" lengthAdjust="spacing" textLength="170" x="749" y="388.2329">&#25552;&#20132; task_id/action/payload</text></g><!--link Main to Protocol--><g id="link_Main_Protocol"><path d="M412.49,539.4875 C399.6,548.9175 386.89,559.3775 376,570.4775 C357.8,589.0375 344.7806,608.2475 333.1906,628.2275 " fill="none" id="Main-to-Protocol" style="stroke:#4A4A4A;stroke-width:1.0;"/><polygon fill="#4A4A4A" points="330.18,633.4175,338.1559,627.6396,332.6888,629.0925,331.2359,623.6254,330.18,633.4175" style="stroke:#4A4A4A;stroke-width:1.0;"/><text fill="#000000" font-family="Microsoft YaHei" font-size="13" lengthAdjust="spacing" textLength="110" x="377" y="585.2329">&#26657;&#39564;&#35831;&#27714;/&#26500;&#36896;&#21709;&#24212;</text></g><!--link Main to Service--><g id="link_Main_Service"><path d="M547.06,539.6675 C559.62,549.7675 572.79,560.4375 585,570.4775 C614.18,594.4775 642.4395,618.3404 666.0495,638.4204 " fill="none" id="Main-to-Service" style="stroke:#4A4A4A;stroke-width:1.0;"/><polygon fill="#4A4A4A" points="670.62,642.3075,666.3556,633.4297,666.8112,639.0682,661.1727,639.5238,670.62,642.3075" style="stroke:#4A4A4A;stroke-width:1.0;"/><text fill="#000000" font-family="Microsoft YaHei" font-size="13" lengthAdjust="spacing" textLength="68" x="608" y="585.2329">&#20998;&#21457; action</text></g><!--link Service to EngineCore--><g id="link_Service_EngineCore"><path d="M703.56,699.6275 C704.1,725.9075 704.7766,759.2088 705.3166,785.4488 " fill="none" id="Service-to-EngineCore" style="stroke:#4A4A4A;stroke-width:1.0;"/><polygon fill="#4A4A4A" points="705.44,791.4475,709.254,782.3671,705.3371,786.4486,701.2557,782.5317,705.44,791.4475" style="stroke:#4A4A4A;stroke-width:1.0;"/><text fill="#000000" font-family="Microsoft YaHei" font-size="13" lengthAdjust="spacing" textLength="145" x="705" y="755.2329">&#25191;&#34892; train/health &#31561;&#21160;&#20316;</text></g><!--link EngineCore to TrainingCore--><g id="link_EngineCore_TrainingCore"><path d="M706.81,848.4975 C707.5,871.9375 708.3144,899.4701 709.0044,923.0301 " fill="none" id="EngineCore-to-TrainingCore" style="stroke:#4A4A4A;stroke-width:1.0;"/><polygon fill="#4A4A4A" points="709.18,929.0275,712.9148,919.9143,709.0336,924.0297,704.9182,920.1485,709.18,929.0275" style="stroke:#4A4A4A;stroke-width:1.0;"/><text fill="#000000" font-family="Microsoft YaHei" font-size="13" lengthAdjust="spacing" textLength="78" x="709" y="895.2329">&#35843;&#29992;&#26680;&#24515;&#31639;&#27861;</text></g><!--link TrainingCore to Utils--><g id="link_TrainingCore_Utils"><path d="M712.28,986.7375 C714.17,1009.7375 716.351,1036.2775 718.231,1059.2675 " fill="none" id="TrainingCore-to-Utils" style="stroke:#4A4A4A;stroke-width:1.0;"/><polygon fill="#4A4A4A" points="718.72,1065.2475,721.9732,1055.9515,718.3125,1060.2642,713.9998,1056.6035,718.72,1065.2475" style="stroke:#4A4A4A;stroke-width:1.0;"/><text fill="#000000" font-family="Microsoft YaHei" font-size="13" lengthAdjust="spacing" textLength="78" x="717" y="1031.2329">&#22797;&#29992;&#20860;&#23481;&#33021;&#21147;</text></g><!--link Main to Logging--><g id="link_Main_Logging"><path d="M493.2,539.8475 C495.85,569.0575 498.6784,600.262 501.1384,627.402 " fill="none" id="Main-to-Logging" style="stroke:#4A4A4A;stroke-width:1.0;"/><polygon fill="#4A4A4A" points="501.68,633.3775,504.8512,624.0532,501.2286,628.398,496.8839,624.7754,501.68,633.3775" style="stroke:#4A4A4A;stroke-width:1.0;"/><text fill="#000000" font-family="Microsoft YaHei" font-size="13" lengthAdjust="spacing" textLength="78" x="498" y="585.2329">&#20889;&#32467;&#26500;&#21270;&#26085;&#24535;</text></g><!--link Tests to Main--><g id="link_Tests_Main"><path d="M336.13,323.5775 C364.88,355.1475 408.3808,402.9308 442.8208,440.7608 " fill="none" id="Tests-to-Main" style="stroke:#4A4A4A;stroke-width:1.0;"/><polygon fill="#4A4A4A" points="446.86,445.1975,443.7591,435.8496,443.494,441.5002,437.8434,441.2352,446.86,445.1975" style="stroke:#4A4A4A;stroke-width:1.0;"/><text fill="#000000" font-family="Microsoft YaHei" font-size="13" lengthAdjust="spacing" textLength="137" x="395" y="388.2329">&#35206;&#30422;CLI&#19982;&#21327;&#35758;&#38169;&#35823;&#36335;&#24452;</text></g><!--link Tests to TrainingCore--><g id="link_Tests_TrainingCore"><path d="M223.93,323.0775 C150.75,351.9175 58,405.4375 58,491.4775 C58,491.4775 58,491.4775 58,820.9775 C58,937.5475 456.4404,954.7842 628.2504,956.8842 " fill="none" id="Tests-to-TrainingCore" style="stroke:#4A4A4A;stroke-width:1.0;"/><polygon fill="#4A4A4A" points="634.25,956.9575,625.2996,952.8478,629.2504,956.8964,625.2018,960.8472,634.25,956.9575" style="stroke:#4A4A4A;stroke-width:1.0;"/><text fill="#000000" font-family="Microsoft YaHei" font-size="13" lengthAdjust="spacing" textLength="130" x="59" y="676.2329">&#35206;&#30422;&#31639;&#27861;&#31283;&#23450;&#24615;&#19982;&#36793;&#30028;</text></g><!--link Coverage to Tests--><g id="link_Coverage_Tests"><path d="M311,185.4975 C311,208.9375 311,236.4675 311,260.0275 " fill="none" id="Coverage-to-Tests" style="stroke:#4A4A4A;stroke-width:1.0;"/><polygon fill="#4A4A4A" points="311,266.0275,315,257.0275,311,261.0275,307,257.0275,311,266.0275" style="stroke:#4A4A4A;stroke-width:1.0;"/></g><!--link Service to GMN29--><g id="link_Service_GMN29"><path d="M771.74,699.2575 C799.35,710.9575 831.17,725.3975 859,740.4775 C886.03,755.1275 914.91,773.9075 937.56,789.4275 " fill="none" id="Service-GMN29" style="stroke:#4A4A4A;stroke-width:1.0;stroke-dasharray:7.0,7.0;"/></g><!--SRC=[TLLRJnj757wVNp4YgWIgacreMj5AZPHIDasKf55eLLL2Gbkpc2tBZhix4A6gaZ6OMtmXujOOXzhYsZRnGaEAmGP-J3oxwoV-Gi_CBDWXilnWU-OxtpddEvUX1ZLrNF_ZFw_qzgONh_YLnVDgxl4u7I8McqvwXNAjaWccSbx-5PlTOrats9lqbtPPTTbRp23a31jMJBEr4UmCQGFagM55yQ1cEdhJpHtR9a-xYKbiVEtM7VvfkeoGaHYnT8lsqd48nDOZLBEYPhDzJ8iCQr6zDU0RVL0RDQbABFf86z7nGoDY4uSCKloJzgrk8AH5A3Xlaw5xAqTzLljTeloe6QQZT3-uftJVwsZ3ceExDTFKROH2ZxWjrALslEFF_GNg13kpvzNP7YjgM3fBhPnNvzhmjPuUzNDLnRyXZ2yDMNABPJTgvGnBPuDIYUqd0AXsgL-7GDn87BVfWgz_H3Ei6x7nFikl_5ahno4moT9d1Mw5PLSmv3jAR_pY44jnw81XmSNf8fivncIKDj_0Nv7EGo1iuIjc4qeYn1J-dkY_ZkeELPxe3i0StTijilLd5t7Kbru4hkiN9WJduz2m1Qz9el0T3TDOzDQdG2PlTOkThRRVx_tkKKUV1G7gjWtIo4ZPxBI_NH7S3wGnKF-EciNqycasNmGBlxJglLaEnVnCLTMkbc8wkZrcH7GH29JV85PmwFfB-y02RS2EjuN7NebgmH4XjYG8Ig_zogJYRSIzjy_O_6xj9C_s9eADf22HxT0DuAiyZXrHg0rLWAmQR31Jx6nIvbA7dZfzBcY-3u6jY4OfjAiWOCagAnqnjmgrRw-LqtxXWBtCQh4OtCf6_e5ZFz0nEDYjpsHhPo_hkJnNK5M_K3i_L912BpXAJAo0VYc50av58x-BJx1gWfNByCClbbWfvyLtG9J0NPP9SDkhX405n_XZE1lJRGZbVGs2xMb_RSNFpE3RN-6kJpwIenX2HHAGXXnDVFtwRT7M-4liPHTgnvkOQivmlp6Wo28hCMtS9De04Y2ElcXORb4erlzE1UwXjvzGe3NhyG9RJBFZfGOwR0W0Gr-ox7CiQT75ESSqwiqvvtQ2OWgBAYj3kcRI8Uo_dfDDWfgWtBAvn60RxgCcAT1x26uYAid3sKppjIig7qoUiFcrHj3Xt73Kz8ihKuUGA4cpS59lM2-NwqcEE0m8EvrgmbyDLzP91Ehllf6rv_DqUkGlfz15nQIfw0Da4GehsuWEKKm6vJuALofBlgalbVorabUOOOV_1WidBBy7Bm-wsO7bSoD7WvTXFm4NbxEFnw0xO3Vk9r0dO6439hVa7fJ90BQnAB7Il1pHfntuSft9xGPesT3yQNChlB-pBgHMEqcZMnrOg9ddHw1_XWV85b9W9jsopPptgYYTyyEP0wHR0vXd7UR-Cw6KZF3aBrODSu-a19r-RgfMEMJnAa_xBc4B6VyV5rn9RMLpX0-nU6tFgod4vj80Wfbdqsb_xI0uMmzdI4ZsBfve1F0_]--></g></svg>