<?xml version="1.0" encoding="us-ascii" standalone="no"?><svg xmlns="http://www.w3.org/2000/svg" xmlns:xlink="http://www.w3.org/1999/xlink" contentStyleType="text/css" height="932px" preserveAspectRatio="none" style="width:385px;height:932px;background:#FFFFFF;" version="1.1" viewBox="0 0 385 932" width="385px" zoomAndPan="magnify"><defs/><g><text fill="#000000" font-family="Microsoft YaHei" font-size="14" font-weight="bold" lengthAdjust="spacing" textLength="150" x="110.5" y="24.8135">&#39033;&#30446;&#29992;&#20363;&#22270;&#65288;&#38454;&#27573;1-3&#65289;</text><!--cluster Anomaly AppShell Desktop--><g id="cluster_Anomaly AppShell Desktop"><rect fill="none" height="880" rx="2.5" ry="2.5" style="stroke:#181818;stroke-width:1.0;" width="207" x="172" y="46.4775"/><text fill="#000000" font-family="Microsoft YaHei" font-size="14" font-weight="bold" lengthAdjust="spacing" textLength="191" x="180" y="63.291">Anomaly AppShell Desktop</text></g><g id="elem_UC_Config"><ellipse cx="275.4688" cy="169.6713" fill="#F1F1F1" rx="71.4688" ry="16.6938" style="stroke:#181818;stroke-width:0.5;"/><text fill="#000000" font-family="Microsoft YaHei" font-size="14" lengthAdjust="spacing" textLength="84" x="230.4688" y="174.328">&#37197;&#32622;&#35757;&#32451;&#21442;&#25968;</text></g><g id="elem_UC_SelectCsv"><ellipse cx="275.4768" cy="238.5729" fill="#F1F1F1" rx="73.4768" ry="17.0954" style="stroke:#181818;stroke-width:0.5;"/><text fill="#000000" font-family="Microsoft YaHei" font-size="14" lengthAdjust="spacing" textLength="90" x="227.4768" y="243.2296">&#36873;&#25321; CSV &#25991;&#20214;</text></g><g id="elem_UC_SelectOut"><ellipse cx="275.4688" cy="307.6713" fill="#F1F1F1" rx="71.4688" ry="16.6938" style="stroke:#181818;stroke-width:0.5;"/><text fill="#000000" font-family="Microsoft YaHei" font-size="14" lengthAdjust="spacing" textLength="84" x="230.4688" y="312.328">&#36873;&#25321;&#36755;&#20986;&#30446;&#24405;</text></g><g id="elem_UC_Run"><ellipse cx="275.5269" cy="893.2995" fill="#F1F1F1" rx="52.0269" ry="16.322" style="stroke:#181818;stroke-width:0.5;"/><text fill="#000000" font-family="Microsoft YaHei" font-size="14" lengthAdjust="spacing" textLength="56" x="244.5269" y="897.9563">&#21551;&#21160;&#20219;&#21153;</text></g><g id="elem_UC_Validate"><ellipse cx="275.4688" cy="806.6713" fill="#F1F1F1" rx="71.4688" ry="16.6938" style="stroke:#181818;stroke-width:0.5;"/><text fill="#000000" font-family="Microsoft YaHei" font-size="14" lengthAdjust="spacing" textLength="84" x="230.4688" y="811.328">&#26657;&#39564;&#36755;&#20837;&#21442;&#25968;</text></g><g id="elem_UC_Poll"><ellipse cx="275.4688" cy="738.6713" fill="#F1F1F1" rx="71.4688" ry="16.6938" style="stroke:#181818;stroke-width:0.5;"/><text fill="#000000" font-family="Microsoft YaHei" font-size="14" lengthAdjust="spacing" textLength="84" x="230.4688" y="743.328">&#36718;&#35810;&#20219;&#21153;&#29366;&#24577;</text></g><g id="elem_UC_Cancel"><ellipse cx="275.5269" cy="375.2995" fill="#F1F1F1" rx="52.0269" ry="16.322" style="stroke:#181818;stroke-width:0.5;"/><text fill="#000000" font-family="Microsoft YaHei" font-size="14" lengthAdjust="spacing" textLength="56" x="244.5269" y="379.9563">&#21462;&#28040;&#20219;&#21153;</text></g><g id="elem_UC_ViewResult"><ellipse cx="275.2596" cy="512.6295" fill="#F1F1F1" rx="76.2596" ry="17.6519" style="stroke:#181818;stroke-width:0.5;"/><text fill="#000000" font-family="Microsoft YaHei" font-size="14" lengthAdjust="spacing" textLength="98" x="223.2596" y="517.2862">&#26597;&#30475;&#32467;&#26524;&#19982;&#25351;&#26631;</text></g><g id="elem_UC_ViewError"><ellipse cx="275.2596" cy="669.6295" fill="#F1F1F1" rx="76.2596" ry="17.6519" style="stroke:#181818;stroke-width:0.5;"/><text fill="#000000" font-family="Microsoft YaHei" font-size="14" lengthAdjust="spacing" textLength="98" x="223.2596" y="674.2862">&#26597;&#30475;&#38169;&#35823;&#19982;&#25552;&#31034;</text></g><g id="elem_UC_Retry"><ellipse cx="275.4688" cy="443.6713" fill="#F1F1F1" rx="71.4688" ry="16.6938" style="stroke:#181818;stroke-width:0.5;"/><text fill="#000000" font-family="Microsoft YaHei" font-size="14" lengthAdjust="spacing" textLength="84" x="230.4688" y="448.328">&#37325;&#35797;&#19978;&#27425;&#21442;&#25968;</text></g><g id="elem_UC_ExportJson"><ellipse cx="275.5149" cy="600.3772" fill="#F1F1F1" rx="61.0149" ry="16.3997" style="stroke:#181818;stroke-width:0.5;"/><text fill="#000000" font-family="Microsoft YaHei" font-size="14" lengthAdjust="spacing" textLength="68" x="238.5149" y="605.0339">&#23548;&#20986; JSON</text></g><g id="elem_UC_ExportCsv"><ellipse cx="275.6301" cy="100.3036" fill="#F1F1F1" rx="72.1301" ry="16.826" style="stroke:#181818;stroke-width:0.5;"/><text fill="#000000" font-family="Microsoft YaHei" font-size="14" lengthAdjust="spacing" textLength="86" x="229.6301" y="104.9603">&#23548;&#20986;&#25351;&#26631; CSV</text></g><!--entity User--><g id="elem_User"><ellipse cx="37" cy="410.9775" fill="#F1F1F1" rx="8" ry="8" style="stroke:#181818;stroke-width:0.5;"/><path d="M37,418.9775 L37,445.9775 M24,426.9775 L50,426.9775 M37,445.9775 L24,460.9775 M37,445.9775 L50,460.9775 " fill="none" style="stroke:#181818;stroke-width:0.5;"/><text fill="#000000" font-family="Microsoft YaHei" font-size="14" lengthAdjust="spacing" textLength="56" x="9" y="477.291">&#19994;&#21153;&#29992;&#25143;</text></g><!--entity Dev--><g id="elem_Dev"><ellipse cx="37" cy="722.9775" fill="#F1F1F1" rx="8" ry="8" style="stroke:#181818;stroke-width:0.5;"/><path d="M37,730.9775 L37,757.9775 M24,738.9775 L50,738.9775 M37,757.9775 L24,772.9775 M37,757.9775 L50,772.9775 " fill="none" style="stroke:#181818;stroke-width:0.5;"/><text fill="#000000" font-family="Microsoft YaHei" font-size="14" lengthAdjust="spacing" textLength="62" x="6" y="789.291">&#24320;&#21457;/&#36816;&#32500;</text></g><!--link User to UC_Config--><g id="link_User_UC_Config"><path d="M44.1,402.3475 C51.69,363.0075 67.54,301.9775 98,257.4775 C126.81,215.3775 176.1138,194.1261 217.1038,182.3361 " fill="none" id="User-to-UC_Config" style="stroke:#4A4A4A;stroke-width:1.0;"/><polygon fill="#4A4A4A" points="222.87,180.6775,213.115,179.3212,218.0648,182.0597,215.3264,187.0095,222.87,180.6775" style="stroke:#4A4A4A;stroke-width:1.0;"/></g><!--link User to UC_SelectCsv--><g id="link_User_UC_SelectCsv"><path d="M45.97,402.4475 C54.19,371.2175 69.87,328.2175 98,300.4775 C128.41,270.4875 168.2841,256.2088 205.5841,248.1888 " fill="none" id="User-to-UC_SelectCsv" style="stroke:#4A4A4A;stroke-width:1.0;"/><polygon fill="#4A4A4A" points="211.45,246.9275,201.8103,244.9088,206.5617,247.9786,203.4919,252.73,211.45,246.9275" style="stroke:#4A4A4A;stroke-width:1.0;"/></g><!--link User to UC_SelectOut--><g id="link_User_UC_SelectOut"><path d="M51.26,402.3575 C60.8,380.1775 75.93,353.8575 98,338.4775 C128.63,317.1375 163.3473,309.4424 197.9373,306.8124 " fill="none" id="User-to-UC_SelectOut" style="stroke:#4A4A4A;stroke-width:1.0;"/><polygon fill="#4A4A4A" points="203.92,306.3575,194.6426,303.0514,198.9344,306.7366,195.2492,311.0284,203.92,306.3575" style="stroke:#4A4A4A;stroke-width:1.0;"/></g><!--link User to UC_Run--><g id="link_User_UC_Run"><path d="M43.81,480.5075 C52.05,530.4575 69.39,619.0675 98,690.4775 C117.11,738.1675 138.76,742.0775 156,790.4775 C163.55,811.6775 150.54,822.4375 164,840.4775 C180.67,862.8175 203.5002,874.324 227.4102,882.044 " fill="none" id="User-to-UC_Run" style="stroke:#4A4A4A;stroke-width:1.0;"/><polygon fill="#4A4A4A" points="233.12,883.8875,225.7844,877.3157,228.3619,882.3512,223.3263,884.9287,233.12,883.8875" style="stroke:#4A4A4A;stroke-width:1.0;"/></g><!--link User to UC_Poll--><g id="link_User_UC_Poll"><path d="M48.51,480.6475 C58.65,515.3975 75.73,566.9375 98,608.4775 C118.41,646.5475 134.21,649.1775 156,686.4775 C160.42,694.0375 157.45,698.6675 164,704.4775 C178.04,716.9275 190.7828,723.1978 208.6528,728.2078 " fill="none" id="User-to-UC_Poll" style="stroke:#4A4A4A;stroke-width:1.0;"/><polygon fill="#4A4A4A" points="214.43,729.8275,206.8439,723.5465,209.6156,728.4778,204.6843,731.2495,214.43,729.8275" style="stroke:#4A4A4A;stroke-width:1.0;"/></g><!--link User to UC_Cancel--><g id="link_User_UC_Cancel"><path d="M65.12,429.0475 C75.29,424.6875 87.04,420.0075 98,416.4775 C142.17,402.2575 188.1445,391.9739 224.1745,384.8339 " fill="none" id="User-to-UC_Cancel" style="stroke:#4A4A4A;stroke-width:1.0;"/><polygon fill="#4A4A4A" points="230.06,383.6675,220.4541,381.4933,225.1554,384.6395,222.0092,389.3407,230.06,383.6675" style="stroke:#4A4A4A;stroke-width:1.0;"/></g><!--link User to UC_ViewResult--><g id="link_User_UC_ViewResult"><path d="M65.13,449.6175 C104.93,461.5675 173.9133,482.2825 222.4833,496.8625 " fill="none" id="User-to-UC_ViewResult" style="stroke:#4A4A4A;stroke-width:1.0;"/><polygon fill="#4A4A4A" points="228.23,498.5875,220.76,492.1688,223.4411,497.15,218.46,499.8311,228.23,498.5875" style="stroke:#4A4A4A;stroke-width:1.0;"/></g><!--link User to UC_ViewError--><g id="link_User_UC_ViewError"><path d="M56.75,480.7575 C67.26,500.4975 81.56,524.0675 98,542.4775 C119.55,566.6075 139.27,558.7875 156,586.4775 C167.18,604.9875 149.83,618.1375 164,634.4775 C175.41,647.6275 185.9914,654.1034 202.5914,659.2734 " fill="none" id="User-to-UC_ViewError" style="stroke:#4A4A4A;stroke-width:1.0;"/><polygon fill="#4A4A4A" points="208.32,661.0575,200.9165,654.5623,203.5462,659.5707,198.5377,662.2004,208.32,661.0575" style="stroke:#4A4A4A;stroke-width:1.0;"/></g><!--link User to UC_Retry--><g id="link_User_UC_Retry"><path d="M65.13,441.7075 C98.74,441.9875 151.2602,442.4374 197.9102,442.8274 " fill="none" id="User-to-UC_Retry" style="stroke:#4A4A4A;stroke-width:1.0;"/><polygon fill="#4A4A4A" points="203.91,442.8775,194.9438,438.8024,198.9102,442.8357,194.8769,446.8022,203.91,442.8775" style="stroke:#4A4A4A;stroke-width:1.0;"/></g><!--link User to UC_ExportJson--><g id="link_User_UC_ExportJson"><path d="M65.42,468.0775 C89.92,490.9575 127.5,523.9075 164,547.4775 C188.31,563.1775 212.4678,574.7778 234.9378,584.4378 " fill="none" id="User-to-UC_ExportJson" style="stroke:#4A4A4A;stroke-width:1.0;"/><polygon fill="#4A4A4A" points="240.45,586.8075,233.7615,579.5781,235.8565,584.8328,230.6019,586.9277,240.45,586.8075" style="stroke:#4A4A4A;stroke-width:1.0;"/></g><!--link User to UC_ExportCsv--><g id="link_User_UC_ExportCsv"><path d="M42.15,402.0675 C48.54,353.7575 63.84,270.5375 98,207.4775 C118.68,169.3075 127.4,158.8175 164,135.4775 C181.05,124.5975 195.9704,118.5142 214.8204,113.1342 " fill="none" id="User-to-UC_ExportCsv" style="stroke:#4A4A4A;stroke-width:1.0;"/><polygon fill="#4A4A4A" points="220.59,111.4875,210.8378,110.1112,215.782,112.8598,213.0334,117.804,220.59,111.4875" style="stroke:#4A4A4A;stroke-width:1.0;"/></g><!--link Dev to UC_Run--><g id="link_Dev_UC_Run"><path d="M68.19,776.3275 C93.18,794.7375 129.97,820.7275 164,840.4775 C190.13,855.6375 215.7887,867.8471 238.3387,877.8871 " fill="none" id="Dev-to-UC_Run" style="stroke:#4A4A4A;stroke-width:1.0;"/><polygon fill="#4A4A4A" points="243.82,880.3275,237.2251,873.0127,239.2523,878.2938,233.9711,880.3211,243.82,880.3275" style="stroke:#4A4A4A;stroke-width:1.0;"/></g><!--link Dev to UC_Poll--><g id="link_Dev_UC_Poll"><path d="M68.43,751.5475 C103.12,749.3475 154.902,746.0674 200.462,743.1774 " fill="none" id="Dev-to-UC_Poll" style="stroke:#4A4A4A;stroke-width:1.0;"/><polygon fill="#4A4A4A" points="206.45,742.7975,197.2148,739.3753,201.46,743.1141,197.7213,747.3593,206.45,742.7975" style="stroke:#4A4A4A;stroke-width:1.0;"/></g><!--link Dev to UC_ViewError--><g id="link_Dev_UC_ViewError"><path d="M68.01,736.5875 C77.44,731.6675 88,726.5175 98,722.4775 C139.08,705.8675 181.5716,693.2598 217.2516,683.7698 " fill="none" id="Dev-to-UC_ViewError" style="stroke:#4A4A4A;stroke-width:1.0;"/><polygon fill="#4A4A4A" points="223.05,682.2275,213.3242,680.6753,218.218,683.5127,215.3805,688.4065,223.05,682.2275" style="stroke:#4A4A4A;stroke-width:1.0;"/></g><!--link UC_Run to UC_Validate--><g id="link_UC_Run_UC_Validate"><path d="M275.5,876.7075 C275.5,861.2975 275.5,844.5875 275.5,829.1975 " fill="none" id="UC_Run-to-UC_Validate" style="stroke:#4A4A4A;stroke-width:1.0;stroke-dasharray:7.0,7.0;"/><polygon fill="#4A4A4A" points="275.5,823.1975,271.5,832.1975,275.5,828.1975,279.5,832.1975,275.5,823.1975" style="stroke:#4A4A4A;stroke-width:1.0;"/><text fill="#000000" font-family="Microsoft YaHei" font-size="13" lengthAdjust="spacing" textLength="58" x="234" y="855.2329">&#171;include&#187;</text></g><!--link UC_Retry to UC_Run--><g id="link_UC_Retry_UC_Run"><path d="M213.6,451.8075 C195.83,456.7975 177.6,464.7575 164,477.4775 C119.8,518.7975 116.62,546.7075 122,606.9775 C131.37,712.0075 99.98,756.6975 164,840.4775 C180.92,862.6175 203.7017,874.0896 227.6417,881.8396 " fill="none" id="UC_Retry-to-UC_Run" style="stroke:#4A4A4A;stroke-width:1.0;stroke-dasharray:7.0,7.0;"/><polygon fill="#4A4A4A" points="233.35,883.6875,226.0195,877.1101,228.5931,882.1476,223.5555,884.7212,233.35,883.6875" style="stroke:#4A4A4A;stroke-width:1.0;"/><text fill="#000000" font-family="Microsoft YaHei" font-size="13" lengthAdjust="spacing" textLength="56" x="99" y="602.7329">&#171;extend&#187;</text></g><!--link UC_ViewResult to UC_ExportJson--><g id="link_UC_ViewResult_UC_ExportJson"><path d="M275.5,530.1675 C275.5,545.8475 275.5,562.5875 275.5,577.9275 " fill="none" id="UC_ViewResult-to-UC_ExportJson" style="stroke:#4A4A4A;stroke-width:1.0;stroke-dasharray:7.0,7.0;"/><polygon fill="#4A4A4A" points="275.5,583.9275,279.5,574.9275,275.5,578.9275,271.5,574.9275,275.5,583.9275" style="stroke:#4A4A4A;stroke-width:1.0;"/><text fill="#000000" font-family="Microsoft YaHei" font-size="13" lengthAdjust="spacing" textLength="56" x="235" y="562.2329">&#171;extend&#187;</text></g><!--link UC_ViewResult to UC_ExportCsv--><g id="link_UC_ViewResult_UC_ExportCsv"><path d="M211.23,502.8875 C194.2,497.7075 176.97,489.7475 164,477.4775 C125.52,441.0975 131.49,418.0775 122,365.9775 C114.34,323.8875 105.85,200.2775 164,135.4775 C176.26,121.8075 188.0304,115.1188 205.5704,109.9988 " fill="none" id="UC_ViewResult-to-UC_ExportCsv" style="stroke:#4A4A4A;stroke-width:1.0;stroke-dasharray:7.0,7.0;"/><polygon fill="#4A4A4A" points="211.33,108.3175,201.5697,106.9997,206.5303,109.7186,203.8114,114.6792,211.33,108.3175" style="stroke:#4A4A4A;stroke-width:1.0;"/><text fill="#000000" font-family="Microsoft YaHei" font-size="13" lengthAdjust="spacing" textLength="56" x="99" y="361.7329">&#171;extend&#187;</text></g><!--SRC=[ZPD1QnD15CVlyoc6U8uYUf8I2DkA56mbmO8d6JQJPEba9-nEcXOHebAI9gs9j2bgYpPYeOec7ZJ6RXg_pEviSkfNS3RRDJFc8dkQztvltl_ztomp6C5mqldb7tNzWpDtrF2EHfV3skHrdtT_t8pVkXpk041mba56eMNayWnc30lhpA0ciDSDiuWiL81s7cLesJ1pC8k8ZQLCqh9eMQE4Ml3QxMJmISb5d4KbmkvIawsW0eRt3TsYDXNT7g5xs000wKmKnjp1Mw_U4G9vxMSC8Xi-jB4L9RrXnMk-kZ7-tVATxzFi8ju08129p9mOBvOqQG6HBPWi5jDvJ8W0x7L6Yp7u141Oih6ER85DjlVyY-wu-zLtNdZDvxpzBUobFTQecJLo2blPuOrFK4klGNvOTPr-XAOn4OqrUsEU7e_slUgvSDgxQAluQed9kDVgUVKprt74q16OAfaomayway-xmOtRfwhMDKIC369OfiTYhDw7y4A_tkULPn7zW1AYj6uUydvDRQqXKySAnT-V-iSDtzddxuxTmKk-M-KdrRy235nEOLliTRvaSl1ctEi59SsM__5SBbaI3yLIJAlkZNjjTr3dNphgY2dCh2r5TMyed8NBwTMLY5dQB5ABBTlKd0T3lS7oL3hOsbC0WiS5u_64j7avDDlmV3HOf1mDjYQVftOhzuVUoY79lt_3eKTAWwaLSaGQV3uSg0RYzv3rISUfFEaywmb265vFo6yCte4B2uQfar869n8WqdD51Nm0u4s6pKoOdmrt1Sta_YyhPb3HFm00]--></g></svg>