<?xml version="1.0" encoding="us-ascii" standalone="no"?><svg xmlns="http://www.w3.org/2000/svg" xmlns:xlink="http://www.w3.org/1999/xlink" contentStyleType="text/css" height="1180px" preserveAspectRatio="none" style="width:1016px;height:1180px;background:#FFFFFF;" version="1.1" viewBox="0 0 1016 1180" width="1016px" zoomAndPan="magnify"><defs/><g><text fill="#000000" font-family="Microsoft YaHei" font-size="14" font-weight="bold" lengthAdjust="spacing" textLength="342" x="330.345" y="24.8135">&#26700;&#38754;&#24212;&#29992;&#26550;&#26500;&#65288;Wails UI + Go &#32534;&#25490; + Python &#24341;&#25806;&#65289;</text><!--cluster Desktop App (Wails)--><g id="cluster_Desktop App (Wails)"><path d="M23.19,45.6416 L167.19,45.6416 A3.75,3.75 0 0 1 169.69,48.1416 L176.69,70.1191 L708.19,70.1191 A2.5,2.5 0 0 1 710.69,72.6191 L710.69,772.1416 A2.5,2.5 0 0 1 708.19,774.6416 L23.19,774.6416 A2.5,2.5 0 0 1 20.69,772.1416 L20.69,48.1416 A2.5,2.5 0 0 1 23.19,45.6416 " fill="none" style="stroke:#000000;stroke-width:1.5;"/><line style="stroke:#000000;stroke-width:1.5;" x1="20.69" x2="176.69" y1="70.1191" y2="70.1191"/><text fill="#000000" font-family="Microsoft YaHei" font-size="14" font-weight="bold" lengthAdjust="spacing" textLength="143" x="24.69" y="62.4551">Desktop App (Wails)</text></g><!--cluster Python Engine (CLI)--><g id="cluster_Python Engine (CLI)"><path d="M737.19,510.6416 L875.19,510.6416 A3.75,3.75 0 0 1 877.69,513.1416 L884.69,535.1191 L1006.19,535.1191 A2.5,2.5 0 0 1 1008.69,537.6191 L1008.69,892.1416 A2.5,2.5 0 0 1 1006.19,894.6416 L737.19,894.6416 A2.5,2.5 0 0 1 734.69,892.1416 L734.69,513.1416 A2.5,2.5 0 0 1 737.19,510.6416 " fill="none" style="stroke:#000000;stroke-width:1.5;"/><line style="stroke:#000000;stroke-width:1.5;" x1="734.69" x2="884.69" y1="535.1191" y2="535.1191"/><text fill="#000000" font-family="Microsoft YaHei" font-size="14" font-weight="bold" lengthAdjust="spacing" textLength="137" x="738.69" y="527.4551">Python Engine (CLI)</text></g><!--cluster Filesystem--><g id="cluster_Filesystem"><path d="M453.19,945.6416 L528.19,945.6416 A3.75,3.75 0 0 1 530.69,948.1416 L537.69,970.1191 L1007.19,970.1191 A2.5,2.5 0 0 1 1009.69,972.6191 L1009.69,1171.1416 A2.5,2.5 0 0 1 1007.19,1173.6416 L453.19,1173.6416 A2.5,2.5 0 0 1 450.69,1171.1416 L450.69,948.1416 A2.5,2.5 0 0 1 453.19,945.6416 " fill="none" style="stroke:#000000;stroke-width:1.5;"/><line style="stroke:#000000;stroke-width:1.5;" x1="450.69" x2="537.69" y1="970.1191" y2="970.1191"/><text fill="#000000" font-family="Microsoft YaHei" font-size="14" font-weight="bold" lengthAdjust="spacing" textLength="74" x="454.69" y="962.4551">Filesystem</text></g><!--entity UI--><g id="elem_UI"><rect fill="#F1F1F1" height="56.9551" rx="2.5" ry="2.5" style="stroke:#181818;stroke-width:0.5;" width="91" x="287.19" y="82.6416"/><text fill="#000000" font-family="Microsoft YaHei" font-size="14" lengthAdjust="spacing" textLength="54" x="297.19" y="107.4551">Wails UI</text><text fill="#000000" font-family="Microsoft YaHei" font-size="14" lengthAdjust="spacing" textLength="71" x="297.19" y="125.9326">(Frontend)</text></g><!--entity API--><g id="elem_API"><rect fill="#F1F1F1" height="56.9551" rx="2.5" ry="2.5" style="stroke:#181818;stroke-width:0.5;" width="129" x="401.19" y="235.6416"/><text fill="#000000" font-family="Microsoft YaHei" font-size="14" lengthAdjust="spacing" textLength="81" x="411.19" y="260.4551">Go Backend</text><text fill="#000000" font-family="Microsoft YaHei" font-size="14" lengthAdjust="spacing" textLength="109" x="411.19" y="278.9326">(Wails bindings)</text></g><!--entity TS--><g id="elem_TS"><rect fill="#F1F1F1" height="56.9551" rx="2.5" ry="2.5" style="stroke:#181818;stroke-width:0.5;" width="226" x="232.69" y="388.6416"/><text fill="#000000" font-family="Microsoft YaHei" font-size="14" lengthAdjust="spacing" textLength="81" x="242.69" y="413.4551">Task Service</text><text fill="#000000" font-family="Microsoft YaHei" font-size="14" lengthAdjust="spacing" textLength="206" x="242.69" y="431.9326">Queue + Worker Pool + Status</text></g><!--entity RUN--><g id="elem_RUN"><rect fill="#F1F1F1" height="75.4326" rx="2.5" ry="2.5" style="stroke:#181818;stroke-width:0.5;" width="177" x="335.19" y="683.6416"/><text fill="#000000" font-family="Microsoft YaHei" font-size="14" lengthAdjust="spacing" textLength="100" x="345.19" y="708.4551">Engine Runner</text><text fill="#000000" font-family="Microsoft YaHei" font-size="14" lengthAdjust="spacing" textLength="157" x="345.19" y="726.9326">spawn/monitor process</text><text fill="#000000" font-family="Microsoft YaHei" font-size="14" lengthAdjust="spacing" textLength="135" x="345.19" y="745.4102">collect stdout/stderr</text></g><!--entity REG--><g id="elem_REG"><rect fill="#F1F1F1" height="56.9551" rx="2.5" ry="2.5" style="stroke:#181818;stroke-width:0.5;" width="140" x="536.69" y="547.6416"/><text fill="#000000" font-family="Microsoft YaHei" font-size="14" lengthAdjust="spacing" textLength="87" x="546.69" y="572.4551">Task Registry</text><text fill="#000000" font-family="Microsoft YaHei" font-size="14" lengthAdjust="spacing" textLength="120" x="546.69" y="590.9326">(in-memory state)</text></g><!--entity Q--><g id="elem_Q"><rect fill="#F1F1F1" height="38.4775" rx="2.5" ry="2.5" style="stroke:#181818;stroke-width:0.5;" width="99" x="37.19" y="557.1416"/><text fill="#000000" font-family="Microsoft YaHei" font-size="14" lengthAdjust="spacing" textLength="79" x="47.19" y="581.9551">Task Queue</text></g><!--entity PM--><g id="elem_PM"><rect fill="#F1F1F1" height="56.9551" rx="2.5" ry="2.5" style="stroke:#181818;stroke-width:0.5;" width="126" x="750.69" y="547.6416"/><text fill="#000000" font-family="Microsoft YaHei" font-size="14" lengthAdjust="spacing" textLength="106" x="760.69" y="572.4551">engine_main.py</text><text fill="#000000" font-family="Microsoft YaHei" font-size="14" lengthAdjust="spacing" textLength="45" x="760.69" y="590.9326">CLI I/O</text></g><!--entity PS--><g id="elem_PS"><rect fill="#F1F1F1" height="56.9551" rx="2.5" ry="2.5" style="stroke:#181818;stroke-width:0.5;" width="137" x="829.19" y="692.6416"/><text fill="#000000" font-family="Microsoft YaHei" font-size="14" lengthAdjust="spacing" textLength="117" x="839.19" y="717.4551">engine_service.py</text><text fill="#000000" font-family="Microsoft YaHei" font-size="14" lengthAdjust="spacing" textLength="87" x="839.19" y="735.9326">action router</text></g><!--entity PC--><g id="elem_PC"><rect fill="#F1F1F1" height="56.9551" rx="2.5" ry="2.5" style="stroke:#181818;stroke-width:0.5;" width="242" x="750.69" y="821.6416"/><text fill="#000000" font-family="Microsoft YaHei" font-size="14" lengthAdjust="spacing" textLength="222" x="760.69" y="846.4551">engine_core.py / training_core.py</text><text fill="#000000" font-family="Microsoft YaHei" font-size="14" lengthAdjust="spacing" textLength="66" x="760.69" y="864.9326">algorithm</text></g><!--entity IN--><g id="elem_IN"><rect fill="#F1F1F1" height="38.4775" rx="2.5" ry="2.5" style="stroke:#181818;stroke-width:0.5;" width="125" x="589.19" y="992.1416"/><text fill="#000000" font-family="Microsoft YaHei" font-size="14" lengthAdjust="spacing" textLength="105" x="599.19" y="1016.9551">Input CSV/XLSX</text></g><!--entity OUT--><g id="elem_OUT"><rect fill="#F1F1F1" height="56.9551" rx="2.5" ry="2.5" style="stroke:#181818;stroke-width:0.5;" width="122" x="638.69" y="1100.6416"/><text fill="#000000" font-family="Microsoft YaHei" font-size="14" lengthAdjust="spacing" textLength="102" x="648.69" y="1125.4551">Job Workspace</text><text fill="#000000" font-family="Microsoft YaHei" font-size="14" lengthAdjust="spacing" textLength="80" x="648.69" y="1143.9326">(output_dir)</text></g><!--entity ART--><g id="elem_ART"><rect fill="#F1F1F1" height="56.9551" rx="2.5" ry="2.5" style="stroke:#181818;stroke-width:0.5;" width="244" x="749.69" y="982.6416"/><text fill="#000000" font-family="Microsoft YaHei" font-size="14" lengthAdjust="spacing" textLength="55" x="759.69" y="1007.4551">Artifacts</text><text fill="#000000" font-family="Microsoft YaHei" font-size="14" lengthAdjust="spacing" textLength="224" x="759.69" y="1025.9326">result.csv summary.json plots.json</text></g><!--entity LOG--><g id="elem_LOG"><rect fill="#F1F1F1" height="56.9551" rx="2.5" ry="2.5" style="stroke:#181818;stroke-width:0.5;" width="87" x="467.19" y="982.6416"/><text fill="#000000" font-family="Microsoft YaHei" font-size="14" lengthAdjust="spacing" textLength="31" x="477.19" y="1007.4551">Logs</text><text fill="#000000" font-family="Microsoft YaHei" font-size="14" lengthAdjust="spacing" textLength="67" x="477.19" y="1025.9326">(optional)</text></g><!--link UI to API--><g id="link_UI_API"><path d="M287.1,113.2116 C196.13,116.8916 6,133.2216 68.69,205.6416 C110.91,254.4116 293.9102,262.6606 395.1602,263.5206 " fill="none" id="UI-to-API" style="stroke:#444444;stroke-width:1.0;"/><polygon fill="#444444" points="401.16,263.5716,392.1943,259.4953,396.1602,263.5291,392.1264,267.495,401.16,263.5716" style="stroke:#444444;stroke-width:1.0;"/><text fill="#000000" font-family="Microsoft YaHei" font-size="13" lengthAdjust="spacing" textLength="219" x="69.69" y="184.397">RunTask/GetTaskStatus/CancelTask</text><text fill="#000000" font-family="Microsoft YaHei" font-size="13" lengthAdjust="spacing" textLength="87" x="135.69" y="201.5547">(select file/dir)</text></g><!--link UI to API--><g id="link_UI_API"><path d="M323.85,139.8216 C319.26,159.7516 316.95,186.4216 329.69,205.6416 C345.77,229.8916 368.5782,242.2004 395.3882,250.3304 " fill="none" id="UI-to-API-1" style="stroke:#444444;stroke-width:1.0;"/><polygon fill="#444444" points="401.13,252.0716,393.6781,245.632,396.3452,250.6206,391.3565,253.2877,401.13,252.0716" style="stroke:#444444;stroke-width:1.0;"/><text fill="#000000" font-family="Microsoft YaHei" font-size="13" lengthAdjust="spacing" textLength="133" x="330.69" y="192.897">polling GetTaskStatus</text></g><!--link API to UI--><g id="link_API_UI"><path d="M474.53,235.4616 C479.12,215.5316 481.43,188.8616 468.69,169.6416 C448.72,139.5116 415.3509,126.4161 384.1409,119.5761 " fill="none" id="API-to-UI" style="stroke:#444444;stroke-width:1.0;"/><polygon fill="#444444" points="378.28,118.2916,386.215,124.1256,383.1641,119.362,387.9277,116.3111,378.28,118.2916" style="stroke:#444444;stroke-width:1.0;"/><text fill="#000000" font-family="Microsoft YaHei" font-size="13" lengthAdjust="spacing" textLength="185" x="478.69" y="192.897">status + latest logs + artifacts</text></g><!--link API to TS--><g id="link_API_TS"><path d="M443.68,292.8416 C422.03,320.0816 392.893,356.7443 371.293,383.9243 " fill="none" id="API-to-TS" style="stroke:#444444;stroke-width:1.0;"/><polygon fill="#444444" points="367.56,388.6216,376.291,384.0643,370.6708,384.7072,370.0279,379.087,367.56,388.6216" style="stroke:#444444;stroke-width:1.0;"/><text fill="#000000" font-family="Microsoft YaHei" font-size="13" lengthAdjust="spacing" textLength="97" x="420.69" y="337.397">validate request</text><text fill="#000000" font-family="Microsoft YaHei" font-size="13" lengthAdjust="spacing" textLength="84" x="427.19" y="354.5547">create task_id</text></g><!--link TS to REG--><g id="link_TS_REG"><path d="M361.24,445.6816 C372.57,462.9216 389.6,483.8316 410.69,494.6416 C449.98,514.7716 468.4,487.0416 509.69,502.6416 C535.65,512.4516 556.1421,527.4393 574.2521,543.5093 " fill="none" id="TS-to-REG" style="stroke:#444444;stroke-width:1.0;"/><polygon fill="#444444" points="578.74,547.4916,574.6631,538.5262,575.0001,544.173,569.3533,544.51,578.74,547.4916" style="stroke:#444444;stroke-width:1.0;"/><text fill="#000000" font-family="Microsoft YaHei" font-size="13" lengthAdjust="spacing" textLength="128" x="411.69" y="490.397">create/update status</text></g><!--link TS to Q--><g id="link_TS_Q"><path d="M232.64,435.0816 C182.71,444.7416 131.34,458.3716 113.69,475.6416 C91.68,497.1716 87.2401,528.6843 86.5701,550.9943 " fill="none" id="TS-to-Q" style="stroke:#444444;stroke-width:1.0;"/><polygon fill="#444444" points="86.39,556.9916,90.6584,548.1157,86.5401,551.9939,82.662,547.8756,86.39,556.9916" style="stroke:#444444;stroke-width:1.0;"/><text fill="#000000" font-family="Microsoft YaHei" font-size="13" lengthAdjust="spacing" textLength="82" x="114.69" y="490.397">enqueue task</text></g><!--link TS to RUN--><g id="link_TS_RUN"><path d="M352.82,445.7416 C366.92,500.3416 396.8793,616.3523 412.7093,677.6323 " fill="none" id="TS-to-RUN" style="stroke:#444444;stroke-width:1.0;"/><polygon fill="#444444" points="414.21,683.4416,415.8319,673.7272,412.9594,678.6005,408.0861,675.7281,414.21,683.4416" style="stroke:#444444;stroke-width:1.0;"/><text fill="#000000" font-family="Microsoft YaHei" font-size="13" lengthAdjust="spacing" textLength="106" x="394.69" y="581.397">dispatch (worker)</text></g><!--link RUN to TS--><g id="link_RUN_TS"><path d="M334.88,686.1216 C299.58,667.7016 262.67,641.0916 242.69,604.6416 C220.9,564.8916 223.3,543.6216 242.69,502.6416 C253.87,479.0116 270.3162,463.1959 290.7062,449.0859 " fill="none" id="RUN-to-TS" style="stroke:#444444;stroke-width:1.0;"/><polygon fill="#444444" points="295.64,445.6716,285.9631,447.5037,291.5285,448.5168,290.5154,454.0822,295.64,445.6716" style="stroke:#444444;stroke-width:1.0;"/><text fill="#000000" font-family="Microsoft YaHei" font-size="13" lengthAdjust="spacing" textLength="115" x="243.69" y="572.897">parsed result/error</text><text fill="#000000" font-family="Microsoft YaHei" font-size="13" lengthAdjust="spacing" textLength="84" x="259.19" y="590.0547">update status</text></g><!--link Q to RUN--><g id="link_Q_RUN"><path d="M94.68,595.2116 C103.42,612.8516 119.13,639.0916 140.69,653.6416 C198.22,692.4516 269.6288,708.07 328.9288,714.85 " fill="none" id="Q-to-RUN" style="stroke:#444444;stroke-width:1.0;"/><polygon fill="#444444" points="334.89,715.5316,326.4026,710.5351,329.9224,714.9636,325.4939,718.4834,334.89,715.5316" style="stroke:#444444;stroke-width:1.0;"/><text fill="#000000" font-family="Microsoft YaHei" font-size="13" lengthAdjust="spacing" textLength="55" x="141.69" y="649.397">take task</text></g><!--link RUN to PM--><g id="link_RUN_PM"><path d="M512.55,709.8316 C597.31,698.6916 717.81,679.0716 757.69,653.6416 C776.15,641.8716 787.5541,626.8859 797.1241,610.2059 " fill="none" id="RUN-to-PM" style="stroke:#444444;stroke-width:1.0;"/><polygon fill="#444444" points="800.11,605.0016,792.1616,610.8174,797.6217,609.3385,799.1007,614.7986,800.11,605.0016" style="stroke:#444444;stroke-width:1.0;"/><text fill="#000000" font-family="Microsoft YaHei" font-size="13" lengthAdjust="spacing" textLength="151" x="779.69" y="649.397">request JSON (stdin/file)</text></g><!--link PM to RUN--><g id="link_PM_RUN"><path d="M750.58,595.6316 C737.48,599.0016 723.7,602.2216 710.69,604.6416 C649.39,616.0516 475.48,590.2416 431.69,634.6416 C419.34,647.1716 416.4161,660.317 417.1361,677.317 " fill="none" id="PM-to-RUN" style="stroke:#444444;stroke-width:1.0;"/><polygon fill="#444444" points="417.39,683.3116,421.0056,674.1504,417.1784,678.3161,413.0127,674.4889,417.39,683.3116" style="stroke:#444444;stroke-width:1.0;"/><text fill="#000000" font-family="Microsoft YaHei" font-size="13" lengthAdjust="spacing" textLength="146" x="432.69" y="649.397">response JSON (stdout)</text></g><!--link PM to RUN--><g id="link_PM_RUN"><path d="M750.46,594.6416 C697.42,609.4616 628.33,629.1616 615.69,634.6416 C600.52,641.2216 598.48,646.2316 583.69,653.6416 C560.97,665.0416 541.3486,673.8442 517.8486,683.6342 " fill="none" id="PM-to-RUN-1" style="stroke:#444444;stroke-width:1.0;"/><polygon fill="#444444" points="512.31,685.9416,522.1561,686.173,516.9255,684.0188,519.0797,678.7882,512.31,685.9416" style="stroke:#444444;stroke-width:1.0;"/><text fill="#000000" font-family="Microsoft YaHei" font-size="13" lengthAdjust="spacing" textLength="132" x="616.69" y="649.397">logs/progress (stderr)</text></g><!--link PM to PS--><g id="link_PM_PS"><path d="M876.93,587.5616 C904.44,595.5816 934.12,609.7216 950.69,634.6416 C963.36,653.6916 953.4189,671.3852 936.5589,688.2752 " fill="none" id="PM-to-PS" style="stroke:#444444;stroke-width:1.0;"/><polygon fill="#444444" points="932.32,692.5216,941.5092,688.9779,935.8524,688.9829,935.8474,683.3261,932.32,692.5216" style="stroke:#444444;stroke-width:1.0;"/></g><!--link PS to PC--><g id="link_PS_PC"><path d="M892.05,749.7016 C887.69,771.0016 882.8838,794.4736 878.5238,815.7636 " fill="none" id="PS-to-PC" style="stroke:#444444;stroke-width:1.0;"/><polygon fill="#444444" points="877.32,821.6416,883.0443,813.6271,878.3231,816.7433,875.207,812.0221,877.32,821.6416" style="stroke:#444444;stroke-width:1.0;"/></g><!--link PC to ART--><g id="link_PC_ART"><path d="M871.69,878.8416 C871.69,907.9316 871.69,947.4216 871.69,976.5016 " fill="none" id="PC-to-ART" style="stroke:#444444;stroke-width:1.0;"/><polygon fill="#444444" points="871.69,982.5016,875.69,973.5016,871.69,977.5016,867.69,973.5016,871.69,982.5016" style="stroke:#444444;stroke-width:1.0;"/><text fill="#000000" font-family="Microsoft YaHei" font-size="13" lengthAdjust="spacing" textLength="84" x="872.69" y="925.397">write artifacts</text></g><!--link ART to OUT--><g id="link_ART_OUT"><path d="M830.49,1039.9216 C803.26,1058.2916 772.6842,1078.9064 745.5242,1097.2264 " fill="none" id="ART-to-OUT" style="stroke:#444444;stroke-width:1.0;"/><polygon fill="#444444" points="740.55,1100.5816,750.2481,1098.8649,744.6952,1097.7856,745.7745,1092.2327,740.55,1100.5816" style="stroke:#444444;stroke-width:1.0;"/></g><!--link API to REG--><g id="link_API_REG"><path d="M499.5,292.6616 C508.47,301.4216 517.4,311.7016 523.69,322.6416 C551.86,371.6016 538.2,391.9316 555.69,445.6416 C567.33,481.3716 581.297,515.948 592.317,541.928 " fill="none" id="API-to-REG" style="stroke:#444444;stroke-width:1.0;"/><polygon fill="#444444" points="594.66,547.4516,594.828,537.6042,592.7075,542.8486,587.4631,540.7281,594.66,547.4516" style="stroke:#444444;stroke-width:1.0;"/><text fill="#000000" font-family="Microsoft YaHei" font-size="13" lengthAdjust="spacing" textLength="127" x="556.69" y="422.397">read status/progress</text></g><!--link REG to API--><g id="link_REG_API"><path d="M634.97,547.6016 C669.69,510.3116 720.3,442.2716 688.69,388.6416 C654.76,331.0716 588.9804,300.2832 536.0504,283.2132 " fill="none" id="REG-to-API" style="stroke:#444444;stroke-width:1.0;"/><polygon fill="#444444" points="530.34,281.3716,537.6778,287.9409,535.0987,282.9063,540.1333,280.3271,530.34,281.3716" style="stroke:#444444;stroke-width:1.0;"/></g><!--link RUN to IN--><g id="link_RUN_IN"><path d="M452.8,758.9116 C502.14,821.2316 596.7059,940.6872 633.5559,987.2372 " fill="none" id="RUN-to-IN" style="stroke:#444444;stroke-width:1.0;"/><polygon fill="#444444" points="637.28,991.9416,634.8301,982.4023,634.1766,988.0213,628.5576,987.3678,637.28,991.9416" style="stroke:#444444;stroke-width:1.0;"/><text fill="#000000" font-family="Microsoft YaHei" font-size="13" lengthAdjust="spacing" textLength="85" x="566.69" y="855.397">read input file</text></g><!--link RUN to OUT--><g id="link_RUN_OUT"><path d="M415.05,758.7316 C402.18,822.8816 385.84,956.7116 449.69,1039.6416 C494.35,1097.6516 574.0112,1117.0395 632.4912,1123.9295 " fill="none" id="RUN-to-OUT" style="stroke:#444444;stroke-width:1.0;"/><polygon fill="#444444" points="638.45,1124.6316,629.9799,1119.606,633.4843,1124.0466,629.0438,1127.551,638.45,1124.6316" style="stroke:#444444;stroke-width:1.0;"/><text fill="#000000" font-family="Microsoft YaHei" font-size="13" lengthAdjust="spacing" textLength="107" x="407.69" y="925.397">create workspace</text></g><!--SRC=[LLHDRnit4BtlhnYa5mc5lHUVUYZWAh6hm9PbhTIag0k3sHt9hBZaXkHQ48BUUcY18eSsxQq1sbD_GG-5_quKz9I_q4TIsaYdNSwy-NflI2-zOjhy-VD_V_prxjytxz_ylNdxp-Rj3nyUVdmcf78q6zAdT6xe_SFlczU_u7-yzdT6qxk7tpQ_llxmy5EMkQNKZR2Y9dSdAhEIUa5peHplUKfJDqQpzeLVew3bqWkzKFkGKslDQc2KiVJ9oSd9dkSnpqMh_9dHVYHgfajPMkFCtDFNuakMMTQ8SYaMJ8yUirjwqz1fqr0l3j1_HAyoeczsqzpetfb58jPL_riImHJScF0B984LW8Hz8NM5KLo2dOuZRYhSaWgszxBa6ttTSilWv9cnIxOqDaRXL7ZXMnUZfaK8Ug8NKZDDMgtPtcZNY9NEQwEbnwoDDIKxTwDBenHe8UShq_eS7xOsPfdCHbtj2I-aytQDDgK-ghasTeqGuJdrENbotc5ZUz5wdNs_nz9MmcrRlS75SCSIHzDjBQG-Rb03BXhcLp77-78FuH854IHABv7EecjE3O-BFMXfRC1HJjuYBoZTcH2g5iPAVrUdiC51csTIiLixp_Mskw5kMa-3ugly-KNnF8OC8pDFpOke0PWDilJG2P2tbRI9bAlPDC1EhPTpT0koBJjir77fxicrTIti-lWxXo4QPRoBlqdrIGoyC0iNqZPXKA5Iqekhyz0kBiZHqUTXF-Yp875WFZzd7xvf4_A1q2MhO40Inr7bEORBGuDPY0mPfWKIt0ibAuY96_AoPUUn5fR3sIFwLbOPK04CcO5ElhnjOeYBrNQ8Q_XPlumR6eAxoDa8dag2Ar_UKMyLTxUVNUzvlLXkWx9W28xn9UpRfkXfSJMY7ZPKwZmCqi_WZgWY6wSoq78yICnCfWXTGMOciLCW2zRW3T9iWrDjA8ENml778b2pVuXHq2F7nLa0x286LwNVzHgPnDFXkA8aT0w_mTKxPEfGkmRtBpnT1zfrwYJ2mNUrZUxgPy6rJTF1Po5Z0k95K2WAsaBRE7qaeUjuEDebbt770wcT4nHrMjDgj-R_0m00]--></g></svg>